<svg width="66" height="66" viewBox="0 0 66 66" fill="none" xmlns="http://www.w3.org/2000/svg">
  <path fill-rule="evenodd" clip-rule="evenodd"
    d="M35.75 2.75H30.25V8.25H24.75V13.75H19.25V19.25H13.75V24.75H8.25V30.25H2.75V35.75H8.25V41.25H13.75V46.75H19.25V52.25H24.75V57.75H30.25V63.25H35.75V57.75H41.25V52.25H46.75V46.75H52.25V41.25H57.75V35.75H63.25V30.25H57.75V24.75H52.25V19.25H46.75V13.75H41.25V8.25H35.75V2.75ZM35.75 8.25V13.75H41.25V19.25H46.75V24.75H52.25V30.25H57.75V35.75H52.25V41.25H46.75V46.75H41.25V52.25H35.75V57.75H30.25V52.25H24.75V46.75H19.25V41.25H13.75V35.75H8.25V30.25H13.75V24.75H19.25V19.25H24.75V13.75H30.25V8.25H35.75ZM35.75 19.25H30.25V35.75H35.75V19.25ZM35.75 41.25H30.25V46.75H35.75V41.25Z"
    fill="currentColor" />
</svg>