<svg width="194" height="180" viewBox="0 0 194 180" fill="none" xmlns="http://www.w3.org/2000/svg">
  <path d="M14.703 41.4197H0.956543V55.1883H14.703V41.4197Z" fill="currentColor" />
  <path d="M42.1959 110.285H28.4495V124.053H42.1959V110.285Z" fill="currentColor" />
  <path d="M83.4428 96.5088H69.6963V110.277H83.4428V96.5088Z" fill="currentColor" />
  <path d="M69.6964 96.5088H55.95V110.277H69.6964V96.5088Z" fill="currentColor" />
  <path d="M55.9423 96.5088H42.1958V110.277H55.9423V96.5088Z" fill="currentColor" />
  <path d="M152.183 82.7402H138.436V96.5088H152.183V82.7402Z" fill="currentColor" />
  <path d="M97.1891 82.7402H83.4426V96.5088H97.1891V82.7402Z" fill="currentColor" />
  <path d="M110.936 82.7402H97.1892V96.5088H110.936V82.7402Z" fill="currentColor" />
  <path d="M83.4428 68.9642H69.6963V82.7328H83.4428V68.9642Z" fill="currentColor" />
  <path d="M83.4428 55.1956H69.6963V68.9642H83.4428V55.1956Z" fill="currentColor" />
  <path d="M97.1891 41.4197H83.4426V55.1883H97.1891V41.4197Z" fill="currentColor" />
  <path d="M42.1959 27.6511H28.4495V41.4196H42.1959V27.6511Z" fill="currentColor" />
  <path d="M42.1959 13.8825H28.4495V27.6511H42.1959V13.8825Z" fill="currentColor" />
  <path d="M83.4428 13.8825H69.6963V27.6511H83.4428V13.8825Z" fill="currentColor" />
  <path d="M69.6964 13.8825H55.95V27.6511H69.6964V13.8825Z" fill="currentColor" />
  <path d="M55.9423 13.8825H42.1958V27.6511H55.9423V13.8825Z" fill="currentColor" />
  <path d="M138.436 13.8825H124.689V27.6511H138.436V13.8825Z" fill="currentColor" />
  <path d="M152.183 13.8825H138.436V27.6511H152.183V13.8825Z" fill="currentColor" />
  <path d="M124.682 124.053H110.936V137.822H124.682V124.053Z" fill="currentColor" />
  <path d="M152.183 124.053H138.436V137.822H152.183V124.053Z" fill="currentColor" />
  <path d="M138.436 124.053H124.689V137.822H138.436V124.053Z" fill="currentColor" />
  <path d="M55.9423 124.053H42.1958V137.822H55.9423V124.053Z" fill="currentColor" />
  <path d="M165.929 124.053H152.182V137.822H165.929V124.053Z" fill="currentColor" />
  <path d="M165.929 68.9642H152.182V82.7328H165.929V68.9642Z" fill="currentColor" />
  <path d="M165.929 27.6511H152.182V41.4196H165.929V27.6511Z" fill="currentColor" />
  <path d="M165.929 13.8825H152.182V27.6511H165.929V13.8825Z" fill="currentColor" />
  <path d="M179.675 124.053H165.929V137.822H179.675V124.053Z" fill="currentColor" />
  <path d="M179.675 68.9642H165.929V82.7328H179.675V68.9642Z" fill="currentColor" />
  <path d="M179.675 41.4197H165.929V55.1883H179.675V41.4197Z" fill="currentColor" />
  <path d="M179.675 27.6511H165.929V41.4196H179.675V27.6511Z" fill="currentColor" />
  <path d="M28.4494 96.5088H14.7029V110.277H28.4494V96.5088Z" fill="currentColor" />
  <path d="M28.4494 110.285H14.7029V124.053H28.4494V110.285Z" fill="currentColor" />
  <path d="M28.4494 41.4197H14.7029V55.1883H28.4494V41.4197Z" fill="currentColor" />
  <path d="M28.4494 27.6511H14.7029V41.4196H28.4494V27.6511Z" fill="currentColor" />
  <path d="M97.1891 0.106567H83.4426V13.8751H97.1891V0.106567Z" fill="currentColor" />
  <path d="M110.936 0.106567H97.1892V13.8751H110.936V0.106567Z" fill="currentColor" />
  <path d="M124.682 0.106567H110.936V13.8751H124.682V0.106567Z" fill="currentColor" />
  <path d="M83.4428 0.106567H69.6963V13.8751H83.4428V0.106567Z" fill="currentColor" />
  <path d="M138.436 0.106567H124.689V13.8751H138.436V0.106567Z" fill="currentColor" />
  <path d="M110.936 137.829H97.1892V151.598H110.936V137.829Z" fill="currentColor" />
  <path d="M97.1891 137.829H83.4426V151.598H97.1891V137.829Z" fill="currentColor" />
  <path d="M124.682 137.829H110.936V151.598H124.682V137.829Z" fill="currentColor" />
  <path d="M83.4428 137.829H69.6963V151.598H83.4428V137.829Z" fill="currentColor" />
  <path d="M69.6964 137.829H55.95V151.598H69.6964V137.829Z" fill="currentColor" />
  <path d="M179.675 137.829H165.929V151.598H179.675V137.829Z" fill="currentColor" />
  <path d="M152.183 151.598H138.436V165.366H152.183V151.598Z" fill="currentColor" />
  <path d="M138.436 151.598H124.689V165.366H138.436V151.598Z" fill="currentColor" />
  <path d="M165.929 151.598H152.182V165.366H165.929V151.598Z" fill="currentColor" />
  <path d="M14.703 96.5088H0.956543V110.277H14.703V96.5088Z" fill="currentColor" />
  <path d="M14.703 82.7402H0.956543V96.5088H14.703V82.7402Z" fill="currentColor" />
  <path d="M14.703 68.9642H0.956543V82.7328H14.703V68.9642Z" fill="currentColor" />
  <path d="M14.703 55.1956H0.956543V68.9642H14.703V55.1956Z" fill="currentColor" />
  <path d="M193.429 96.5088H179.683V110.277H193.429V96.5088Z" fill="currentColor" />
  <path d="M193.429 110.285H179.683V124.053H193.429V110.285Z" fill="currentColor" />
  <path d="M193.429 82.7402H179.683V96.5088H193.429V82.7402Z" fill="currentColor" />
  <path d="M193.429 68.9642H179.683V82.7328H193.429V68.9642Z" fill="currentColor" />
  <path d="M193.429 55.1956H179.683V68.9642H193.429V55.1956Z" fill="currentColor" />
  <path d="M193.429 41.4197H179.683V55.1883H193.429V41.4197Z" fill="currentColor" />
  <path d="M55.9423 110.285H42.1958V124.053H55.9423V110.285Z" fill="currentColor" />
  <path d="M165.929 165.374H152.182V179.142H165.929V165.374Z" fill="currentColor" />
  <path d="M179.675 165.374H165.929V179.142H179.675V165.374Z" fill="currentColor" />
</svg>