<svg width="107" height="107" viewBox="0 0 107 107" fill="none" xmlns="http://www.w3.org/2000/svg">
  <path fill-rule="evenodd" clip-rule="evenodd"
    d="M86.0511 21.6692H68.2178V30.5858H86.0511V21.6692ZM50.3845 30.5858H68.2179V39.5025H50.3845V30.5858ZM41.4678 39.5025H50.3844V48.3798H41.4678V39.5025ZM63.7339 57.3358V66.2525H94.9679V57.3358L103.884 57.3358V39.5025H94.9678V57.3358L63.7339 57.3358ZM94.9677 30.5858H86.051V39.5025H94.9677V30.5858ZM68.2178 39.5025H77.1344V48.4192H68.2178V39.5025Z"
    fill="currentColor" />
  <path fill-rule="evenodd" clip-rule="evenodd"
    d="M50.5833 57H32.75V65.9167L14.9167 65.9167V74.8333L32.75 74.8333V83.75H41.6667V74.8333L32.7501 74.8333V65.9167H50.5833V74.8333H59.4999V65.9167L50.5833 65.9167V57ZM6 74.8333H14.9167V92.6667H6V74.8333ZM14.9167 92.6667L59.5 92.6667V74.8333H68.4167V92.6667L59.5001 92.6667V101.583H14.9167V92.6667Z"
    fill="currentColor" />
</svg>