<svg width="52" height="42" viewBox="0 0 52 42" fill="none" xmlns="http://www.w3.org/2000/svg">
<g clip-path="url(#clip0_1500_60298)">
<path d="M14.0988 6.16245C13.4054 6.00307 12.749 6.55317 12.749 7.26462V34.7357C12.749 35.4471 13.4054 35.9972 14.0988 35.8379C16.76 35.2256 18.7445 32.842 18.7445 29.9948V12.0053C18.7445 9.15835 16.76 6.77496 14.0988 6.16245Z" fill="#0E072D"/>
<path d="M4.93611 0.00195312H2.54962C1.5514 0.00195312 0.742188 0.811171 0.742188 1.80939V40.1929C0.742188 41.1911 1.5514 42.0003 2.54962 42.0003H4.93611C5.93433 42.0003 6.74355 41.1911 6.74355 40.1929V1.80939C6.74355 0.811171 5.93433 0.00195312 4.93611 0.00195312Z" fill="#0E072D"/>
<path d="M51.4512 20.1047C49.2075 17.4669 48.0457 14.2239 47.9594 10.9602V1.80744C47.9594 0.809271 47.1502 0 46.152 0H21.1782C20.5106 0 19.8902 0.420236 19.7092 1.0631C19.5445 1.64862 19.7539 2.24904 20.2073 2.60884C22.9755 4.807 24.7545 8.19587 24.7545 12.0055V29.9947C24.7545 33.8044 22.9755 37.193 20.2073 39.3914C19.7542 39.7515 19.5445 40.3519 19.7092 40.9372C19.8899 41.58 20.5103 42.0003 21.1782 42.0003H46.152C47.1502 42.0003 47.9594 41.191 47.9594 40.1928V31.0123C48.0527 27.7589 49.2145 24.5266 51.4512 21.8956C51.8866 21.3803 51.8866 20.62 51.4512 20.1047ZM46.3198 21.418L42.4523 22.7116C41.0283 23.1861 39.9753 24.3759 39.6745 25.827L38.0433 33.7859C38 33.9863 37.8196 34.1336 37.6087 34.1336C37.3979 34.1336 37.2211 33.9863 37.1744 33.7859L35.5433 25.827C35.2456 24.3759 34.1895 23.1861 32.7686 22.7116L28.8976 21.418C28.7172 21.3578 28.6002 21.1872 28.6002 21.0034C28.6002 20.8195 28.7172 20.6492 28.8976 20.5888L32.7686 19.2954C34.1892 18.8207 35.2456 17.6305 35.5433 16.1801L37.1744 8.21414C37.2214 8.01372 37.3982 7.86643 37.6087 7.86643C37.8193 7.86643 38 8.01372 38.0433 8.21414L39.6745 16.1801C39.9753 17.6308 41.0283 18.8207 42.4523 19.2954L46.3198 20.5888C46.5003 20.6492 46.6206 20.8195 46.6206 21.0034C46.6206 21.1872 46.5003 21.3578 46.3198 21.418Z" fill="#0E072D"/>
</g>
<defs>
<clipPath id="clip0_1500_60298">
<rect width="51.0352" height="42" fill="white" transform="translate(0.742188)"/>
</clipPath>
</defs>
</svg>
