<svg xmlns="http://www.w3.org/2000/svg" version="1.1" viewBox="0.00 0.00 360.00 360.00">
  <g stroke-width="2.00" fill="none" stroke-linecap="butt">
    <path stroke="#9898ad" vector-effect="non-scaling-stroke"
      d="
  M 84.35 255.00
  A 0.63 0.63 0.0 0 1 84.98 255.63
  L 85.01 264.37
  A 0.63 0.63 0.0 0 0 85.64 265.00
  L 103.36 265.00
  A 0.63 0.63 0.0 0 1 103.99 265.63
  L 104.01 273.36
  A 0.63 0.63 0.0 0 0 104.64 273.99
  L 122.35 274.01
  A 0.63 0.63 0.0 0 1 122.98 274.64
  L 123.01 282.37
  A 0.63 0.63 0.0 0 0 123.64 283.00
  L 150.37 283.00
  A 0.63 0.63 0.0 0 0 151.00 282.37
  L 151.01 265.64
  A 0.63 0.63 0.0 0 0 150.38 265.01
  L 142.63 264.99
  A 0.63 0.63 0.0 0 1 142.00 264.36
  L 142.01 255.62
  A 0.63 0.63 0.0 0 1 142.64 254.99
  L 216.32 255.00
  A 0.63 0.63 0.0 0 1 216.95 255.62
  L 217.03 264.35
  A 0.63 0.63 0.0 0 1 216.40 264.99
  L 208.63 265.00
  A 0.63 0.63 0.0 0 0 208.00 265.63
  L 208.00 282.37
  A 0.63 0.63 0.0 0 0 208.63 283.00
  L 235.36 283.00
  A 0.63 0.63 0.0 0 0 235.99 282.37
  L 236.01 274.63
  A 0.63 0.63 0.0 0 1 236.64 274.00
  L 254.36 274.00
  A 0.63 0.63 0.0 0 0 254.99 273.37
  L 255.01 265.63
  A 0.63 0.63 0.0 0 1 255.64 265.00
  L 273.37 265.00
  A 0.63 0.63 0.0 0 0 274.00 264.37
  L 274.00 255.63
  A 0.63 0.63 0.0 0 1 274.63 255.00
  L 292.37 255.00
  A 0.63 0.63 0.0 0 0 293.00 254.37
  L 293.00 246.64
  A 0.63 0.63 0.0 0 1 293.63 246.01
  L 301.37 245.99
  A 0.63 0.63 0.0 0 0 302.00 245.36
  L 302.00 170.63
  A 0.63 0.63 0.0 0 0 301.37 170.00
  L 293.63 169.98
  A 0.63 0.63 0.0 0 1 293.00 169.35
  L 293.00 142.63
  A 0.63 0.63 0.0 0 0 292.37 142.00
  L 284.64 142.00
  A 0.63 0.63 0.0 0 1 284.01 141.37
  L 283.99 123.64
  A 0.63 0.63 0.0 0 0 283.36 123.01
  L 274.63 122.98
  A 0.63 0.63 0.0 0 1 274.00 122.35
  L 274.00 104.64
  A 0.63 0.63 0.0 0 0 273.37 104.01
  L 265.64 103.99
  A 0.63 0.63 0.0 0 1 265.01 103.36
  L 265.00 95.63
  A 0.63 0.63 0.0 0 0 264.37 95.00
  L 246.64 94.99
  A 0.63 0.63 0.0 0 1 246.01 94.36
  L 246.00 85.62
  A 0.63 0.63 0.0 0 0 245.37 84.99
  L 208.63 85.00
  A 0.63 0.63 0.0 0 0 208.00 85.63
  L 207.99 103.35
  A 0.63 0.63 0.0 0 1 207.36 103.98
  L 198.62 104.00
  A 0.63 0.63 0.0 0 0 197.99 104.63
  L 198.00 113.36
  A 0.63 0.63 0.0 0 1 197.37 113.99
  L 161.64 114.00
  A 0.63 0.63 0.0 0 1 161.01 113.37
  L 161.00 104.63
  A 0.63 0.63 0.0 0 0 160.37 104.00
  L 151.64 103.99
  A 0.63 0.63 0.0 0 1 151.01 103.36
  L 151.00 85.63
  A 0.63 0.63 0.0 0 0 150.37 85.00
  L 113.61 85.00
  A 0.63 0.63 0.0 0 0 112.98 85.63
  L 112.98 94.35
  A 0.63 0.63 0.0 0 1 112.35 94.98
  L 94.63 94.97
  A 0.63 0.63 0.0 0 0 94.00 95.60
  L 94.00 103.36
  A 0.63 0.63 0.0 0 1 93.37 103.99
  L 85.63 104.00
  A 0.63 0.63 0.0 0 0 85.00 104.63
  L 85.00 122.36
  A 0.63 0.63 0.0 0 1 84.37 122.99
  L 75.63 123.00
  A 0.63 0.63 0.0 0 0 75.00 123.63
  L 75.00 141.37
  A 0.63 0.63 0.0 0 1 74.37 142.00
  L 66.63 142.00
  A 0.63 0.63 0.0 0 0 66.00 142.63
  L 66.00 169.37
  A 0.63 0.63 0.0 0 1 65.37 170.00
  L 56.63 170.00
  A 0.63 0.63 0.0 0 0 56.00 170.63
  L 56.00 245.37
  A 0.63 0.63 0.0 0 0 56.63 246.00
  L 65.36 246.01
  A 0.63 0.63 0.0 0 1 65.99 246.64
  L 66.00 254.37
  A 0.63 0.63 0.0 0 0 66.63 255.00
  L 84.35 255.00"
    />
    <path stroke="#9898ad" vector-effect="non-scaling-stroke"
      d="
  M 151.00 208.63
  A 0.63 0.63 0.0 0 1 151.63 208.00
  L 160.37 208.00
  A 0.63 0.63 0.0 0 0 161.00 207.37
  L 161.01 180.64
  A 0.63 0.63 0.0 0 0 160.38 180.01
  L 151.64 179.99
  A 0.63 0.63 0.0 0 1 151.01 179.36
  L 150.98 170.63
  A 0.63 0.63 0.0 0 0 150.35 170.00
  L 123.63 170.00
  A 0.63 0.63 0.0 0 0 123.00 170.63
  L 123.00 179.36
  A 0.63 0.63 0.0 0 1 122.37 179.99
  L 113.63 180.01
  A 0.63 0.63 0.0 0 0 113.00 180.64
  L 113.00 207.37
  A 0.63 0.63 0.0 0 0 113.63 208.00
  L 122.37 207.99
  A 0.63 0.63 0.0 0 1 123.00 208.62
  L 123.01 216.37
  A 0.63 0.63 0.0 0 0 123.64 217.00
  L 150.37 217.00
  A 0.63 0.63 0.0 0 0 151.00 216.37
  L 151.00 208.63"
    />
    <path stroke="#9898ad" vector-effect="non-scaling-stroke"
      d="
  M 235.99 208.69
  A 0.69 0.69 0.0 0 1 236.68 208.00
  L 245.31 207.99
  A 0.69 0.69 0.0 0 0 246.00 207.30
  L 246.02 180.70
  A 0.69 0.69 0.0 0 0 245.33 180.01
  L 236.70 179.99
  A 0.69 0.69 0.0 0 1 236.01 179.30
  L 236.00 170.69
  A 0.69 0.69 0.0 0 0 235.31 170.00
  L 208.70 170.00
  A 0.69 0.69 0.0 0 0 208.01 170.69
  L 207.99 179.30
  A 0.69 0.69 0.0 0 1 207.30 179.99
  L 198.69 180.01
  A 0.69 0.69 0.0 0 0 198.00 180.70
  L 198.00 207.29
  A 0.69 0.69 0.0 0 0 198.69 207.98
  L 207.31 208.00
  A 0.69 0.69 0.0 0 1 208.00 208.69
  L 208.01 216.31
  A 0.69 0.69 0.0 0 0 208.70 217.00
  L 235.31 217.00
  A 0.69 0.69 0.0 0 0 236.00 216.31
  L 235.99 208.69"
    />
    <path stroke="#9898ad" vector-effect="non-scaling-stroke"
      d="
  M 122.9750 236.7074
  A 0.69 0.69 0.0 0 0 122.2874 236.0150
  L 113.7075 235.9851
  A 0.69 0.69 0.0 0 0 113.0151 236.6726
  L 112.9850 245.2926
  A 0.69 0.69 0.0 0 0 113.6726 245.9850
  L 122.2525 246.0149
  A 0.69 0.69 0.0 0 0 122.9449 245.3274
  L 122.9750 236.7074"
    />
    <path stroke="#9898ad" vector-effect="non-scaling-stroke"
      d="
  M 246.0146 236.8275
  A 0.81 0.81 0.0 0 0 245.2074 236.0147
  L 236.8274 235.9854
  A 0.81 0.81 0.0 0 0 236.0146 236.7926
  L 235.9854 245.1525
  A 0.81 0.81 0.0 0 0 236.7926 245.9653
  L 245.1726 245.9946
  A 0.81 0.81 0.0 0 0 245.9854 245.1874
  L 246.0146 236.8275"
    />
    <path stroke="#9898ad" vector-effect="non-scaling-stroke"
      d="
  M 141.99 246.63
  A 0.63 0.63 0.0 0 0 141.36 246.00
  L 123.64 246.00
  A 0.63 0.63 0.0 0 0 123.01 246.63
  L 123.01 254.37
  A 0.63 0.63 0.0 0 0 123.64 255.00
  L 141.36 255.00
  A 0.63 0.63 0.0 0 0 141.99 254.37
  L 141.99 246.63"
    />
    <path stroke="#9898ad" vector-effect="non-scaling-stroke"
      d="
  M 235.9832 246.6134
  A 0.63 0.63 0.0 0 0 235.3521 245.9845
  L 217.6322 246.0155
  A 0.63 0.63 0.0 0 0 217.0033 246.6466
  L 217.0168 254.3866
  A 0.63 0.63 0.0 0 0 217.6479 255.0155
  L 235.3678 254.9845
  A 0.63 0.63 0.0 0 0 235.9967 254.3534
  L 235.9832 246.6134"
    />
  </g>
  <path fill="currentColor"
    d="
  M 284.48 47.00
  L 293.52 47.00
  A 0.48 0.48 0.0 0 1 294.00 47.48
  L 294.01 56.52
  A 0.48 0.48 0.0 0 0 294.49 57.00
  L 302.52 57.00
  A 0.48 0.48 0.0 0 1 303.00 57.48
  L 303.01 65.52
  A 0.48 0.48 0.0 0 0 303.49 66.00
  L 312.52 66.00
  A 0.48 0.48 0.0 0 1 313.00 66.48
  L 313.01 75.51
  A 0.48 0.48 0.0 0 0 313.49 75.99
  L 321.52 76.01
  A 0.48 0.48 0.0 0 1 322.00 76.49
  L 322.00 94.51
  A 0.48 0.48 0.0 0 0 322.48 94.99
  L 331.52 95.01
  A 0.48 0.48 0.0 0 1 332.00 95.49
  L 332.00 113.52
  A 0.48 0.48 0.0 0 0 332.48 114.00
  L 340.52 114.00
  A 0.48 0.48 0.0 0 1 341.00 114.48
  L 341.00 141.52
  A 0.48 0.48 0.0 0 0 341.48 142.00
  L 349.52 142.01
  A 0.48 0.48 0.0 0 1 350.00 142.49
  L 350.00 217.51
  A 0.48 0.48 0.0 0 1 349.52 217.99
  L 341.48 218.00
  A 0.48 0.48 0.0 0 0 341.00 218.48
  L 341.00 245.52
  A 0.48 0.48 0.0 0 1 340.52 246.00
  L 332.48 246.00
  A 0.48 0.48 0.0 0 0 332.00 246.48
  L 332.00 264.52
  A 0.48 0.48 0.0 0 1 331.52 265.00
  L 322.48 265.00
  A 0.48 0.48 0.0 0 0 322.00 265.48
  L 322.00 283.52
  A 0.48 0.48 0.0 0 1 321.52 284.00
  L 313.48 284.00
  A 0.48 0.48 0.0 0 0 313.00 284.48
  L 313.00 293.52
  A 0.48 0.48 0.0 0 1 312.52 294.00
  L 303.48 294.00
  A 0.48 0.48 0.0 0 0 303.00 294.48
  L 303.00 302.52
  A 0.48 0.48 0.0 0 1 302.52 303.00
  L 294.48 303.00
  A 0.48 0.48 0.0 0 0 294.00 303.48
  L 294.00 312.52
  A 0.48 0.48 0.0 0 1 293.52 313.00
  L 284.48 313.00
  A 0.48 0.48 0.0 0 0 284.00 313.48
  L 284.00 321.52
  A 0.48 0.48 0.0 0 1 283.52 322.00
  L 265.48 322.00
  A 0.48 0.48 0.0 0 0 265.00 322.48
  L 265.00 331.52
  A 0.48 0.48 0.0 0 1 264.52 332.00
  L 246.48 332.00
  A 0.48 0.48 0.0 0 0 246.00 332.48
  L 246.00 340.52
  A 0.48 0.48 0.0 0 1 245.52 341.00
  L 218.48 341.00
  A 0.48 0.48 0.0 0 0 218.00 341.48
  L 218.00 349.52
  A 0.48 0.48 0.0 0 1 217.52 350.00
  L 142.48 350.00
  A 0.48 0.48 0.0 0 1 142.00 349.52
  L 142.00 341.48
  A 0.48 0.48 0.0 0 0 141.52 341.00
  L 114.49 341.00
  A 0.48 0.48 0.0 0 1 114.01 340.52
  L 113.99 332.48
  A 0.48 0.48 0.0 0 0 113.51 332.00
  L 95.49 332.00
  A 0.48 0.48 0.0 0 1 95.01 331.52
  L 94.99 322.48
  A 0.48 0.48 0.0 0 0 94.51 322.00
  L 76.49 322.00
  A 0.48 0.48 0.0 0 1 76.01 321.52
  L 75.99 313.48
  A 0.48 0.48 0.0 0 0 75.51 313.00
  L 66.48 312.99
  A 0.48 0.48 0.0 0 1 66.00 312.51
  L 66.00 303.49
  A 0.48 0.48 0.0 0 0 65.52 303.01
  L 57.49 302.99
  A 0.48 0.48 0.0 0 1 57.01 302.51
  L 56.99 294.48
  A 0.48 0.48 0.0 0 0 56.51 294.00
  L 47.49 294.00
  A 0.48 0.48 0.0 0 1 47.01 293.52
  L 46.99 284.49
  A 0.48 0.48 0.0 0 0 46.51 284.01
  L 38.48 283.99
  A 0.48 0.48 0.0 0 1 38.00 283.51
  L 38.00 265.49
  A 0.48 0.48 0.0 0 0 37.52 265.01
  L 28.48 264.98
  A 0.48 0.48 0.0 0 1 28.00 264.50
  L 28.00 246.47
  A 0.48 0.48 0.0 0 0 27.52 245.99
  L 19.49 245.99
  A 0.48 0.48 0.0 0 1 19.01 245.51
  L 18.99 218.47
  A 0.48 0.48 0.0 0 0 18.51 217.99
  L 9.48 217.99
  A 0.48 0.48 0.0 0 1 9.00 217.51
  L 9.00 142.48
  A 0.48 0.48 0.0 0 1 9.48 142.00
  L 18.52 142.00
  A 0.48 0.48 0.0 0 0 19.00 141.52
  L 19.01 114.49
  A 0.48 0.48 0.0 0 1 19.49 114.01
  L 27.52 113.99
  A 0.48 0.48 0.0 0 0 28.00 113.51
  L 28.01 95.48
  A 0.48 0.48 0.0 0 1 28.49 95.00
  L 37.51 94.99
  A 0.48 0.48 0.0 0 0 37.99 94.51
  L 38.01 76.49
  A 0.48 0.48 0.0 0 1 38.49 76.01
  L 46.51 75.99
  A 0.48 0.48 0.0 0 0 46.99 75.51
  L 47.01 66.49
  A 0.48 0.48 0.0 0 1 47.49 66.01
  L 56.52 66.00
  A 0.48 0.48 0.0 0 0 57.00 65.52
  L 57.00 57.49
  A 0.48 0.48 0.0 0 1 57.48 57.01
  L 65.52 56.99
  A 0.48 0.48 0.0 0 0 66.00 56.51
  L 66.01 47.50
  A 0.48 0.48 0.0 0 1 66.49 47.02
  L 75.51 46.99
  A 0.48 0.48 0.0 0 0 75.99 46.51
  L 76.02 38.48
  A 0.48 0.48 0.0 0 1 76.50 38.00
  L 94.52 38.00
  A 0.48 0.48 0.0 0 0 95.00 37.52
  L 95.01 28.48
  A 0.48 0.48 0.0 0 1 95.49 28.00
  L 113.52 28.00
  A 0.48 0.48 0.0 0 0 114.00 27.52
  L 114.01 19.49
  A 0.48 0.48 0.0 0 1 114.49 19.01
  L 141.51 18.99
  A 0.48 0.48 0.0 0 0 141.99 18.51
  L 142.01 9.50
  A 0.48 0.48 0.0 0 1 142.49 9.02
  L 217.52 8.99
  A 0.48 0.48 0.0 0 1 218.00 9.47
  L 218.01 18.52
  A 0.48 0.48 0.0 0 0 218.49 19.00
  L 245.52 19.00
  A 0.48 0.48 0.0 0 1 246.00 19.48
  L 246.00 27.52
  A 0.48 0.48 0.0 0 0 246.48 28.00
  L 264.52 28.00
  A 0.48 0.48 0.0 0 1 265.00 28.48
  L 265.01 37.52
  A 0.48 0.48 0.0 0 0 265.49 38.00
  L 283.52 38.00
  A 0.48 0.48 0.0 0 1 284.00 38.48
  L 284.00 46.52
  A 0.48 0.48 0.0 0 0 284.48 47.00
  Z
  M 84.35 255.00
  A 0.63 0.63 0.0 0 1 84.98 255.63
  L 85.01 264.37
  A 0.63 0.63 0.0 0 0 85.64 265.00
  L 103.36 265.00
  A 0.63 0.63 0.0 0 1 103.99 265.63
  L 104.01 273.36
  A 0.63 0.63 0.0 0 0 104.64 273.99
  L 122.35 274.01
  A 0.63 0.63 0.0 0 1 122.98 274.64
  L 123.01 282.37
  A 0.63 0.63 0.0 0 0 123.64 283.00
  L 150.37 283.00
  A 0.63 0.63 0.0 0 0 151.00 282.37
  L 151.01 265.64
  A 0.63 0.63 0.0 0 0 150.38 265.01
  L 142.63 264.99
  A 0.63 0.63 0.0 0 1 142.00 264.36
  L 142.01 255.62
  A 0.63 0.63 0.0 0 1 142.64 254.99
  L 216.32 255.00
  A 0.63 0.63 0.0 0 1 216.95 255.62
  L 217.03 264.35
  A 0.63 0.63 0.0 0 1 216.40 264.99
  L 208.63 265.00
  A 0.63 0.63 0.0 0 0 208.00 265.63
  L 208.00 282.37
  A 0.63 0.63 0.0 0 0 208.63 283.00
  L 235.36 283.00
  A 0.63 0.63 0.0 0 0 235.99 282.37
  L 236.01 274.63
  A 0.63 0.63 0.0 0 1 236.64 274.00
  L 254.36 274.00
  A 0.63 0.63 0.0 0 0 254.99 273.37
  L 255.01 265.63
  A 0.63 0.63 0.0 0 1 255.64 265.00
  L 273.37 265.00
  A 0.63 0.63 0.0 0 0 274.00 264.37
  L 274.00 255.63
  A 0.63 0.63 0.0 0 1 274.63 255.00
  L 292.37 255.00
  A 0.63 0.63 0.0 0 0 293.00 254.37
  L 293.00 246.64
  A 0.63 0.63 0.0 0 1 293.63 246.01
  L 301.37 245.99
  A 0.63 0.63 0.0 0 0 302.00 245.36
  L 302.00 170.63
  A 0.63 0.63 0.0 0 0 301.37 170.00
  L 293.63 169.98
  A 0.63 0.63 0.0 0 1 293.00 169.35
  L 293.00 142.63
  A 0.63 0.63 0.0 0 0 292.37 142.00
  L 284.64 142.00
  A 0.63 0.63 0.0 0 1 284.01 141.37
  L 283.99 123.64
  A 0.63 0.63 0.0 0 0 283.36 123.01
  L 274.63 122.98
  A 0.63 0.63 0.0 0 1 274.00 122.35
  L 274.00 104.64
  A 0.63 0.63 0.0 0 0 273.37 104.01
  L 265.64 103.99
  A 0.63 0.63 0.0 0 1 265.01 103.36
  L 265.00 95.63
  A 0.63 0.63 0.0 0 0 264.37 95.00
  L 246.64 94.99
  A 0.63 0.63 0.0 0 1 246.01 94.36
  L 246.00 85.62
  A 0.63 0.63 0.0 0 0 245.37 84.99
  L 208.63 85.00
  A 0.63 0.63 0.0 0 0 208.00 85.63
  L 207.99 103.35
  A 0.63 0.63 0.0 0 1 207.36 103.98
  L 198.62 104.00
  A 0.63 0.63 0.0 0 0 197.99 104.63
  L 198.00 113.36
  A 0.63 0.63 0.0 0 1 197.37 113.99
  L 161.64 114.00
  A 0.63 0.63 0.0 0 1 161.01 113.37
  L 161.00 104.63
  A 0.63 0.63 0.0 0 0 160.37 104.00
  L 151.64 103.99
  A 0.63 0.63 0.0 0 1 151.01 103.36
  L 151.00 85.63
  A 0.63 0.63 0.0 0 0 150.37 85.00
  L 113.61 85.00
  A 0.63 0.63 0.0 0 0 112.98 85.63
  L 112.98 94.35
  A 0.63 0.63 0.0 0 1 112.35 94.98
  L 94.63 94.97
  A 0.63 0.63 0.0 0 0 94.00 95.60
  L 94.00 103.36
  A 0.63 0.63 0.0 0 1 93.37 103.99
  L 85.63 104.00
  A 0.63 0.63 0.0 0 0 85.00 104.63
  L 85.00 122.36
  A 0.63 0.63 0.0 0 1 84.37 122.99
  L 75.63 123.00
  A 0.63 0.63 0.0 0 0 75.00 123.63
  L 75.00 141.37
  A 0.63 0.63 0.0 0 1 74.37 142.00
  L 66.63 142.00
  A 0.63 0.63 0.0 0 0 66.00 142.63
  L 66.00 169.37
  A 0.63 0.63 0.0 0 1 65.37 170.00
  L 56.63 170.00
  A 0.63 0.63 0.0 0 0 56.00 170.63
  L 56.00 245.37
  A 0.63 0.63 0.0 0 0 56.63 246.00
  L 65.36 246.01
  A 0.63 0.63 0.0 0 1 65.99 246.64
  L 66.00 254.37
  A 0.63 0.63 0.0 0 0 66.63 255.00
  L 84.35 255.00
  Z"
  />
  <path fill="#ffffff"
    d="
  M 84.35 255.00
  L 66.63 255.00
  A 0.63 0.63 0.0 0 1 66.00 254.37
  L 65.99 246.64
  A 0.63 0.63 0.0 0 0 65.36 246.01
  L 56.63 246.00
  A 0.63 0.63 0.0 0 1 56.00 245.37
  L 56.00 170.63
  A 0.63 0.63 0.0 0 1 56.63 170.00
  L 65.37 170.00
  A 0.63 0.63 0.0 0 0 66.00 169.37
  L 66.00 142.63
  A 0.63 0.63 0.0 0 1 66.63 142.00
  L 74.37 142.00
  A 0.63 0.63 0.0 0 0 75.00 141.37
  L 75.00 123.63
  A 0.63 0.63 0.0 0 1 75.63 123.00
  L 84.37 122.99
  A 0.63 0.63 0.0 0 0 85.00 122.36
  L 85.00 104.63
  A 0.63 0.63 0.0 0 1 85.63 104.00
  L 93.37 103.99
  A 0.63 0.63 0.0 0 0 94.00 103.36
  L 94.00 95.60
  A 0.63 0.63 0.0 0 1 94.63 94.97
  L 112.35 94.98
  A 0.63 0.63 0.0 0 0 112.98 94.35
  L 112.98 85.63
  A 0.63 0.63 0.0 0 1 113.61 85.00
  L 150.37 85.00
  A 0.63 0.63 0.0 0 1 151.00 85.63
  L 151.01 103.36
  A 0.63 0.63 0.0 0 0 151.64 103.99
  L 160.37 104.00
  A 0.63 0.63 0.0 0 1 161.00 104.63
  L 161.01 113.37
  A 0.63 0.63 0.0 0 0 161.64 114.00
  L 197.37 113.99
  A 0.63 0.63 0.0 0 0 198.00 113.36
  L 197.99 104.63
  A 0.63 0.63 0.0 0 1 198.62 104.00
  L 207.36 103.98
  A 0.63 0.63 0.0 0 0 207.99 103.35
  L 208.00 85.63
  A 0.63 0.63 0.0 0 1 208.63 85.00
  L 245.37 84.99
  A 0.63 0.63 0.0 0 1 246.00 85.62
  L 246.01 94.36
  A 0.63 0.63 0.0 0 0 246.64 94.99
  L 264.37 95.00
  A 0.63 0.63 0.0 0 1 265.00 95.63
  L 265.01 103.36
  A 0.63 0.63 0.0 0 0 265.64 103.99
  L 273.37 104.01
  A 0.63 0.63 0.0 0 1 274.00 104.64
  L 274.00 122.35
  A 0.63 0.63 0.0 0 0 274.63 122.98
  L 283.36 123.01
  A 0.63 0.63 0.0 0 1 283.99 123.64
  L 284.01 141.37
  A 0.63 0.63 0.0 0 0 284.64 142.00
  L 292.37 142.00
  A 0.63 0.63 0.0 0 1 293.00 142.63
  L 293.00 169.35
  A 0.63 0.63 0.0 0 0 293.63 169.98
  L 301.37 170.00
  A 0.63 0.63 0.0 0 1 302.00 170.63
  L 302.00 245.36
  A 0.63 0.63 0.0 0 1 301.37 245.99
  L 293.63 246.01
  A 0.63 0.63 0.0 0 0 293.00 246.64
  L 293.00 254.37
  A 0.63 0.63 0.0 0 1 292.37 255.00
  L 274.63 255.00
  A 0.63 0.63 0.0 0 0 274.00 255.63
  L 274.00 264.37
  A 0.63 0.63 0.0 0 1 273.37 265.00
  L 255.64 265.00
  A 0.63 0.63 0.0 0 0 255.01 265.63
  L 254.99 273.37
  A 0.63 0.63 0.0 0 1 254.36 274.00
  L 236.64 274.00
  A 0.63 0.63 0.0 0 0 236.01 274.63
  L 235.99 282.37
  A 0.63 0.63 0.0 0 1 235.36 283.00
  L 208.63 283.00
  A 0.63 0.63 0.0 0 1 208.00 282.37
  L 208.00 265.63
  A 0.63 0.63 0.0 0 1 208.63 265.00
  L 216.40 264.99
  A 0.63 0.63 0.0 0 0 217.03 264.35
  L 216.95 255.62
  A 0.63 0.63 0.0 0 0 216.32 255.00
  L 142.64 254.99
  A 0.63 0.63 0.0 0 0 142.01 255.62
  L 142.00 264.36
  A 0.63 0.63 0.0 0 0 142.63 264.99
  L 150.38 265.01
  A 0.63 0.63 0.0 0 1 151.01 265.64
  L 151.00 282.37
  A 0.63 0.63 0.0 0 1 150.37 283.00
  L 123.64 283.00
  A 0.63 0.63 0.0 0 1 123.01 282.37
  L 122.98 274.64
  A 0.63 0.63 0.0 0 0 122.35 274.01
  L 104.64 273.99
  A 0.63 0.63 0.0 0 1 104.01 273.36
  L 103.99 265.63
  A 0.63 0.63 0.0 0 0 103.36 265.00
  L 85.64 265.00
  A 0.63 0.63 0.0 0 1 85.01 264.37
  L 84.98 255.63
  A 0.63 0.63 0.0 0 0 84.35 255.00
  Z
  M 151.00 208.63
  A 0.63 0.63 0.0 0 1 151.63 208.00
  L 160.37 208.00
  A 0.63 0.63 0.0 0 0 161.00 207.37
  L 161.01 180.64
  A 0.63 0.63 0.0 0 0 160.38 180.01
  L 151.64 179.99
  A 0.63 0.63 0.0 0 1 151.01 179.36
  L 150.98 170.63
  A 0.63 0.63 0.0 0 0 150.35 170.00
  L 123.63 170.00
  A 0.63 0.63 0.0 0 0 123.00 170.63
  L 123.00 179.36
  A 0.63 0.63 0.0 0 1 122.37 179.99
  L 113.63 180.01
  A 0.63 0.63 0.0 0 0 113.00 180.64
  L 113.00 207.37
  A 0.63 0.63 0.0 0 0 113.63 208.00
  L 122.37 207.99
  A 0.63 0.63 0.0 0 1 123.00 208.62
  L 123.01 216.37
  A 0.63 0.63 0.0 0 0 123.64 217.00
  L 150.37 217.00
  A 0.63 0.63 0.0 0 0 151.00 216.37
  L 151.00 208.63
  Z
  M 235.99 208.69
  A 0.69 0.69 0.0 0 1 236.68 208.00
  L 245.31 207.99
  A 0.69 0.69 0.0 0 0 246.00 207.30
  L 246.02 180.70
  A 0.69 0.69 0.0 0 0 245.33 180.01
  L 236.70 179.99
  A 0.69 0.69 0.0 0 1 236.01 179.30
  L 236.00 170.69
  A 0.69 0.69 0.0 0 0 235.31 170.00
  L 208.70 170.00
  A 0.69 0.69 0.0 0 0 208.01 170.69
  L 207.99 179.30
  A 0.69 0.69 0.0 0 1 207.30 179.99
  L 198.69 180.01
  A 0.69 0.69 0.0 0 0 198.00 180.70
  L 198.00 207.29
  A 0.69 0.69 0.0 0 0 198.69 207.98
  L 207.31 208.00
  A 0.69 0.69 0.0 0 1 208.00 208.69
  L 208.01 216.31
  A 0.69 0.69 0.0 0 0 208.70 217.00
  L 235.31 217.00
  A 0.69 0.69 0.0 0 0 236.00 216.31
  L 235.99 208.69
  Z
  M 122.9750 236.7074
  A 0.69 0.69 0.0 0 0 122.2874 236.0150
  L 113.7075 235.9851
  A 0.69 0.69 0.0 0 0 113.0151 236.6726
  L 112.9850 245.2926
  A 0.69 0.69 0.0 0 0 113.6726 245.9850
  L 122.2525 246.0149
  A 0.69 0.69 0.0 0 0 122.9449 245.3274
  L 122.9750 236.7074
  Z
  M 246.0146 236.8275
  A 0.81 0.81 0.0 0 0 245.2074 236.0147
  L 236.8274 235.9854
  A 0.81 0.81 0.0 0 0 236.0146 236.7926
  L 235.9854 245.1525
  A 0.81 0.81 0.0 0 0 236.7926 245.9653
  L 245.1726 245.9946
  A 0.81 0.81 0.0 0 0 245.9854 245.1874
  L 246.0146 236.8275
  Z
  M 141.99 246.63
  A 0.63 0.63 0.0 0 0 141.36 246.00
  L 123.64 246.00
  A 0.63 0.63 0.0 0 0 123.01 246.63
  L 123.01 254.37
  A 0.63 0.63 0.0 0 0 123.64 255.00
  L 141.36 255.00
  A 0.63 0.63 0.0 0 0 141.99 254.37
  L 141.99 246.63
  Z
  M 235.9832 246.6134
  A 0.63 0.63 0.0 0 0 235.3521 245.9845
  L 217.6322 246.0155
  A 0.63 0.63 0.0 0 0 217.0033 246.6466
  L 217.0168 254.3866
  A 0.63 0.63 0.0 0 0 217.6479 255.0155
  L 235.3678 254.9845
  A 0.63 0.63 0.0 0 0 235.9967 254.3534
  L 235.9832 246.6134
  Z"
  />
  <path fill="currentColor"
    d="
  M 151.00 208.63
  L 151.00 216.37
  A 0.63 0.63 0.0 0 1 150.37 217.00
  L 123.64 217.00
  A 0.63 0.63 0.0 0 1 123.01 216.37
  L 123.00 208.62
  A 0.63 0.63 0.0 0 0 122.37 207.99
  L 113.63 208.00
  A 0.63 0.63 0.0 0 1 113.00 207.37
  L 113.00 180.64
  A 0.63 0.63 0.0 0 1 113.63 180.01
  L 122.37 179.99
  A 0.63 0.63 0.0 0 0 123.00 179.36
  L 123.00 170.63
  A 0.63 0.63 0.0 0 1 123.63 170.00
  L 150.35 170.00
  A 0.63 0.63 0.0 0 1 150.98 170.63
  L 151.01 179.36
  A 0.63 0.63 0.0 0 0 151.64 179.99
  L 160.38 180.01
  A 0.63 0.63 0.0 0 1 161.01 180.64
  L 161.00 207.37
  A 0.63 0.63 0.0 0 1 160.37 208.00
  L 151.63 208.00
  A 0.63 0.63 0.0 0 0 151.00 208.63
  Z"
  />
  <path fill="currentColor"
    d="
  M 235.99 208.69
  L 236.00 216.31
  A 0.69 0.69 0.0 0 1 235.31 217.00
  L 208.70 217.00
  A 0.69 0.69 0.0 0 1 208.01 216.31
  L 208.00 208.69
  A 0.69 0.69 0.0 0 0 207.31 208.00
  L 198.69 207.98
  A 0.69 0.69 0.0 0 1 198.00 207.29
  L 198.00 180.70
  A 0.69 0.69 0.0 0 1 198.69 180.01
  L 207.30 179.99
  A 0.69 0.69 0.0 0 0 207.99 179.30
  L 208.01 170.69
  A 0.69 0.69 0.0 0 1 208.70 170.00
  L 235.31 170.00
  A 0.69 0.69 0.0 0 1 236.00 170.69
  L 236.01 179.30
  A 0.69 0.69 0.0 0 0 236.70 179.99
  L 245.33 180.01
  A 0.69 0.69 0.0 0 1 246.02 180.70
  L 246.00 207.30
  A 0.69 0.69 0.0 0 1 245.31 207.99
  L 236.68 208.00
  A 0.69 0.69 0.0 0 0 235.99 208.69
  Z"
  />
  <rect fill="currentColor" x="-4.98" y="-5.00" transform="translate(117.98,241.00) rotate(0.2)"
    width="9.96" height="10.00" rx="0.69" />
  <rect fill="currentColor" x="-5.00" y="-4.99" transform="translate(241.00,240.99) rotate(0.2)"
    width="10.00" height="9.98" rx="0.81" />
  <rect fill="currentColor" x="123.01" y="246.00" width="18.98" height="9.00" rx="0.63" />
  <rect fill="currentColor" x="-9.49" y="-4.50" transform="translate(226.50,250.50) rotate(-0.1)"
    width="18.98" height="9.00" rx="0.63" />
</svg>