<svg width="244" height="125" viewBox="0 0 244 125" fill="none" xmlns="http://www.w3.org/2000/svg">
<path d="M237.772 54.9227C235.917 26.3415 211.244 4.67555 182.663 6.53051L54.9666 14.8182C26.3853 16.6731 4.7194 41.3466 6.57436 69.9278C8.42933 98.509 33.1027 120.175 61.684 118.32L189.38 110.032C217.961 108.177 239.627 83.5039 237.772 54.9227Z" fill="#F8FF1D" stroke="#0E072D" stroke-width="11.5849"/>
<path d="M193.995 78.6212C186.231 79.527 184.367 72.3731 182.927 66.8475L182.921 66.8252L182.912 66.7887C182.839 66.5096 182.767 66.2347 182.696 65.9654C181.805 62.4898 181.273 60.8997 179.772 61.0748C179.158 61.1464 178.909 61.3819 178.171 62.1565L177.741 62.6197C176.693 63.7057 176.399 64.153 176.487 64.9L176.495 64.9679C176.584 65.7285 177.02 66.2394 177.543 66.8524C178.328 67.7719 179.309 68.9214 179.609 71.4884C180.23 76.7854 177.185 80.3071 171.729 80.9437L165.795 81.6361C161.021 82.1931 158.527 80.9696 158.05 76.895C157.668 73.6394 158.837 71.8166 160.228 69.6475C161.739 67.2922 163.511 64.5284 163.844 59.0782L164.04 56.0265C164.387 50.3886 162.874 48.4403 161.501 46.672C160.612 45.5263 159.781 44.4562 159.553 42.507C158.964 37.4817 162.158 33.4607 168.091 32.7683L173.821 32.0999C178.459 31.5588 180.732 32.6703 181.209 36.7449C181.576 39.8794 180.26 42.3409 179.063 44.5779L179.063 44.578C178.212 46.1698 177.421 47.6479 177.341 49.174L177.239 51.2511C177.141 52.777 177.983 52.8852 179.092 51.7233L182.907 47.6986C184.256 46.2332 184.662 45.5664 184.687 44.5997C184.738 43.8961 184.522 43.384 184.249 42.7371C183.956 42.0436 183.597 41.1952 183.433 39.7897C182.82 34.5606 185.893 30.6914 190.394 30.1662L197.215 29.3704C201.989 28.8134 204.483 30.0368 204.96 34.1114C205.549 39.1368 200.928 42.7737 195.604 46.9055C192.629 49.2489 192.147 49.8559 192.203 50.3313C192.295 51.1157 192.712 51.4138 193.301 51.8351C194.038 52.362 195.045 53.0815 196.021 55.1863L198.775 60.9916C199.556 62.6532 200.428 63.4388 201.186 64.1211C202.123 64.9662 202.885 65.6526 203.081 67.6484C203.549 72.8255 199.793 77.9448 193.995 78.6212Z" fill="#0E072D"/>
<path d="M81.6874 74.8592C80.0386 86.7541 87.7602 91.2914 100.514 89.8033C113.542 88.2834 119.898 81.7593 119.806 70.343L119.744 64.499C119.673 58.2162 121.565 54.87 123.208 51.9653C124.639 49.4349 125.88 47.2396 125.469 43.7302C124.984 39.5876 122.595 38.0766 117.207 38.7053L111.273 39.3976C105.612 40.0581 103.081 43.2445 103.737 49.4323C103.986 51.7901 104.621 53.0448 105.271 54.3303C106.271 56.3075 107.309 58.3574 107.035 64.605L106.94 66.75C106.711 71.8708 105.758 73.7718 102.348 74.1697C98.8692 74.5755 97.6234 72.7934 97.8772 67.8763L98.115 62.8233C98.2732 59.1848 99.235 56.6819 100.129 54.3543C101.14 51.7246 102.064 49.3188 101.647 45.7524C101.217 42.0853 98.8595 40.8459 94.4944 41.3552L85.014 42.4613C82.362 42.7707 80.4051 44.0981 79.3586 46.1087C78.3677 43.8769 76.1558 43.2195 72.4624 43.6504C69.9783 43.9402 67.7105 44.3678 65.5016 44.7844L65.5015 44.7844C63.4042 45.1798 61.36 45.5653 59.2341 45.8133C56.9577 46.0789 55.4161 46.1734 53.8688 46.2682L53.8688 46.2682C52.3101 46.3637 50.7455 46.4595 48.418 46.7311C43.1662 47.3438 40.3265 50.8417 40.8832 55.5954C41.1708 58.0505 41.9885 59.5284 42.8311 61.0513L42.8311 61.0513C44.0163 63.1934 45.2507 65.4245 45.1282 70.5888L45.0735 73.0733C44.9707 77.789 43.3274 80.2185 41.8203 82.4467C40.3058 84.686 38.9288 86.7219 39.3912 90.6705C39.8923 94.9488 41.9611 96.0842 47.3493 95.4556L56.4205 94.3972C62.6271 93.6731 64.7848 90.2548 64.3201 85.6968C63.9918 82.6053 62.525 81.7855 61.1285 81.005C59.6686 80.1891 58.2856 79.4161 58.3607 76.1352L58.3732 75.6519C58.4221 74.889 58.8439 74.3579 59.3895 74.2942L59.6623 74.2624C60.1947 74.2003 60.39 74.7672 60.6355 75.4795C61.0503 76.6836 61.6084 78.3033 64.1795 78.0033C66.9759 77.6771 68.5822 76.044 68.9121 71.1869L69.209 67.2285C69.5343 62.9225 67.8588 61.6036 65.0624 61.9298C62.4344 62.2365 61.7776 63.6425 61.2804 64.7069C60.9776 65.3552 60.734 65.8768 60.1402 65.9461L59.8674 65.9779C59.1853 66.0575 58.9489 65.8097 59.0262 64.6993L59.1889 62.5463C59.5301 58.3762 59.8996 57.9889 61.8093 57.7661L62.696 57.6626C66.2649 57.2462 67.5554 59.3575 68.7858 61.3706C69.9067 63.2046 70.9778 64.9569 73.6765 64.6421C77.5642 64.1885 79.2432 61.9963 79.5857 56.6558L79.7033 54.8217C80.4524 55.9556 80.2042 55.7427 80.4683 56.2005C81.9427 58.7562 83.5378 61.5212 82.5119 68.9118L81.6874 74.8592Z" fill="#0E072D"/>
<path d="M132.343 64.9091L135.597 67.0081C138.462 68.8244 140.783 67.9807 141.632 62.7661C141.802 61.6774 141.922 60.8083 142.018 60.1164L142.018 60.1148C142.304 58.0393 142.37 57.5586 142.925 57.5227C143.479 57.4867 143.607 57.9547 144.159 59.9758L144.159 59.9775C144.343 60.6513 144.575 61.4975 144.884 62.555C146.405 67.6928 148.811 68.1527 151.416 65.9814L154.372 63.4794C157.189 61.1403 156.931 58.3078 152.406 56.0602C151.383 55.5519 150.575 55.1719 149.943 54.8745L149.942 54.8743C148.202 54.0564 147.794 53.8645 147.924 53.3478C148.059 52.7363 148.598 52.759 150.824 52.8528C151.441 52.8789 152.189 52.9104 153.094 52.9353C158.224 53.0644 159.563 50.8212 158.309 47.5143L156.883 43.8335C155.55 40.4547 152.977 39.6976 149.51 43.4649C148.821 44.2203 148.273 44.8415 147.83 45.3441L147.83 45.3442C146.4 46.9655 146.058 47.353 145.584 47.031C145.094 46.6986 145.284 46.1784 146.093 43.9657L146.093 43.9642C146.31 43.3705 146.572 42.6538 146.877 41.7876C148.633 36.8221 146.868 34.7805 143.467 35.0012L139.475 35.2603C136.075 35.481 134.662 37.7289 136.972 42.4305C137.386 43.2504 137.738 43.9263 138.03 44.4871L138.03 44.4877L138.03 44.4879C139.118 46.5775 139.374 47.0699 138.931 47.4628C138.503 47.8433 138.114 47.5033 136.486 46.0804L136.486 46.0804C135.982 45.6392 135.358 45.0941 134.578 44.434C130.653 41.1464 128.199 42.2297 127.314 45.7525L126.375 49.5868C125.56 53.0281 127.177 55.0793 132.248 54.2882C133.142 54.1466 133.879 54.0187 134.488 53.9131C136.682 53.5325 137.215 53.4401 137.427 54.0291C137.623 54.5247 137.243 54.7677 135.624 55.8036L135.623 55.8037C135.035 56.1803 134.282 56.6617 133.334 57.298C129.137 60.1117 129.247 62.9538 132.343 64.9091Z" fill="#0E072D"/>
</svg>
