<svg width="36" height="36" viewBox="0 0 36 36" fill="none" xmlns="http://www.w3.org/2000/svg">
<g id="Left_Arrow">
<path id="Vector" d="M18.0005 10.4998L16.5005 10.4998L16.5005 13.4998L13.5005 13.4998L13.5005 16.4998L31.5005 16.4998L31.5005 19.4998L13.5005 19.4998L13.5005 22.4998L16.5005 22.4998L16.5005 25.4998L18.0005 25.4998L18.0005 28.4998L13.5005 28.4998L13.5005 25.4998L10.5005 25.4998L10.5005 22.4998L7.50049 22.4998L7.50049 20.9998L6.00049 20.9998L6.00049 19.4998L4.50049 19.4998L4.50049 16.4998L6.00049 16.4998L6.00049 14.9998L7.50049 14.9998L7.50049 13.4998L10.5005 13.4998L10.5005 10.4998L13.5005 10.4998L13.5005 7.49975L18.0005 7.49975L18.0005 10.4998Z" fill="#0E072D"/>
</g>
</svg>
