<svg width="68" height="113" viewBox="0 0 68 113" fill="none" xmlns="http://www.w3.org/2000/svg">
<path d="M15.0826 83.5194L8.32725 82.3062L14.3861 48.5706L21.1414 49.7839L22.3547 43.0285L29.11 44.2418L30.3233 37.4864L37.0786 38.6997L38.2918 31.9443L45.0472 33.1575L47.4663 19.688L40.7109 18.4748L41.9242 11.7194L28.4135 9.29295L27.2002 16.0483L20.4449 14.8351L19.2316 21.5904L5.76213 19.1713L8.18861 5.66062L14.9028 6.86647L16.116 0.111118L56.6069 7.38318L55.3937 14.1385L62.149 15.3518L60.9358 22.1071L67.6912 23.3204L64.0588 43.5452L57.3035 42.332L56.0902 49.0873L49.3349 47.8741L48.1216 54.6294L41.4075 53.4236L40.1942 60.1789L33.4389 58.9657L32.2256 65.7211L25.4703 64.5078L24.2644 71.222L17.5091 70.0087L15.0826 83.5194ZM20.3701 112.32L0.104004 108.68L3.73633 88.4549L24.0024 92.0947L20.3701 112.32Z" fill="#F8FF1D"/>
</svg>
