<svg width="231" height="180" viewBox="0 0 231 180" fill="none" xmlns="http://www.w3.org/2000/svg">
  <path
    d="M225.633 102.126C224.159 85.8978 212.512 71.3993 200.701 71.0926C199.116 71.0534 197.4 71.321 195.632 71.8299C191.195 39.1005 168.409 18.4292 131.817 13.7639C131.673 9.71836 126.819 6.39713 120.503 6.12308C117.501 6.00563 114.637 6.58636 112.425 7.78696C110.069 9.07239 108.705 10.9059 108.542 12.9743C96.5427 13.6986 85.9592 16.2564 77.0656 20.5694C70.3057 20.9087 63.2652 21.6787 55.9702 22.8989C38.4049 25.8351 26.2358 34.148 23.4235 45.1426C20.5394 56.4048 27.8475 68.1302 37.4718 78.0548C36.3887 78.7725 35.3903 79.6077 34.5029 80.5669C30.5683 84.8147 28.8262 91.2092 29.5831 98.5694C30.1703 104.24 32.1082 109.616 34.9075 114.118C33.3937 116.97 32.0822 120.095 31.2209 123.423C28.5848 125.133 26.6272 127.749 25.531 130.666C25.9225 121.701 25.0352 111.724 14.693 107.274C16.1807 111.815 17.1399 115.861 16.6571 120.337C16.259 125.028 14.9083 128.917 14.8496 134.131C14.8496 134.385 14.8757 134.627 14.8822 134.875C13.2379 130.966 12.5528 126.235 12.083 120.657C6.33448 126.131 4.5597 135.09 7.6134 142.528C11.0521 150.9 19.5411 154.665 28.0562 154.476L31.7298 160.368C31.9712 160.753 32.3823 160.975 32.8064 160.988C33.0544 160.988 33.3023 160.929 33.5307 160.792L34.1897 160.381C34.3463 160.348 34.4899 160.296 34.6269 160.211L40.9627 156.192L41.0019 156.166L41.0932 156.107C48.9493 163.134 66.1035 172.915 101.149 173.829C103.146 173.881 105.09 173.888 107.009 173.861V173.979C109.136 174.103 111.237 174.194 113.319 174.246C155.327 175.336 186.477 162.384 197.269 139.057C198.059 137.348 198.731 135.599 199.299 133.817C199.396 133.817 199.488 133.844 199.586 133.844C204.284 133.968 209.863 131.39 214.835 126.738C220.642 121.303 226.527 111.985 225.633 102.112V102.126Z"
    fill="white" stroke="white" stroke-width="5.11561" stroke-linecap="round"
    stroke-linejoin="round" />
  <path
    d="M113.253 176.87C111.126 176.817 108.973 176.726 106.852 176.602C106.65 176.589 106.448 176.556 106.259 176.498C104.412 176.511 102.709 176.498 101.084 176.458C67.9241 175.597 50.15 166.971 40.8649 159.369L36.0364 162.43C35.8015 162.58 35.547 162.704 35.273 162.802L34.9141 163.023C34.2616 163.428 33.5112 163.63 32.7478 163.611C31.4232 163.578 30.2096 162.886 29.5114 161.758L26.6078 157.099C16.6898 156.831 8.56614 151.722 5.19924 143.527C1.74099 135.083 3.83551 124.898 10.2887 118.751C11.0195 118.053 12.0831 117.844 13.0293 118.197C13.4795 118.366 13.8644 118.653 14.1515 119.012C14.3342 115.417 13.5121 112.011 12.2202 108.076C11.9004 107.098 12.181 106.021 12.9444 105.323C13.7078 104.625 14.804 104.442 15.7502 104.846C24.2523 108.507 27.1624 115.476 27.9715 122.608C28.2912 122.327 28.624 122.059 28.9633 121.805C29.6876 119.286 30.6859 116.735 31.9387 114.203C29.2569 109.486 27.5539 104.207 26.9993 98.8304C26.1575 90.7068 28.1477 83.5815 32.6043 78.7725C32.9305 78.4202 33.2698 78.0809 33.6222 77.7546C22.6145 65.7029 18.3406 54.5191 20.9049 44.4836C23.9847 32.4515 36.9369 23.4144 55.5592 20.3019C62.6454 19.1209 69.6598 18.3314 76.4262 17.9725C85.0523 13.8748 95.153 11.3562 106.474 10.4818C107.263 8.46557 108.882 6.73645 111.191 5.47712C113.795 4.06119 117.129 3.35649 120.627 3.49352C127.223 3.78062 132.535 7.03659 134.036 11.4018C169.89 16.5501 192.408 36.7841 197.817 68.6522C198.848 68.4956 199.84 68.4304 200.786 68.4565C214.065 68.8023 226.645 84.1035 228.263 101.878C229.248 112.69 222.906 122.797 216.649 128.65C211.748 133.237 206.215 136.003 201.21 136.408C200.741 137.706 200.232 138.953 199.677 140.147C188.519 164.25 156.221 177.972 113.279 176.856L113.253 176.87ZM107.922 171.408C109.743 171.506 111.576 171.584 113.39 171.63C154.178 172.687 184.643 160.107 194.894 137.961C195.605 136.421 196.251 134.764 196.806 133.028C197.171 131.893 198.222 131.116 199.442 131.207C199.547 131.207 199.651 131.221 199.749 131.234C203.651 131.331 208.655 128.943 213.047 124.833C218.404 119.821 223.833 111.287 223.024 102.36C221.686 87.6335 211.018 73.9832 200.636 73.7091C199.383 73.6765 197.941 73.8918 196.362 74.3421C195.632 74.5509 194.842 74.4334 194.203 74.0158C193.563 73.5982 193.139 72.9261 193.035 72.1692C188.767 40.6926 166.908 20.8696 131.491 16.3543C130.218 16.1912 129.246 15.1276 129.2 13.8487C129.116 11.5715 125.723 8.968 120.392 8.7331C117.867 8.6026 115.465 9.11155 113.684 10.0838C112.797 10.5666 111.289 11.6106 111.165 13.1701C111.061 14.4751 110.017 15.5061 108.705 15.5844C97.0714 16.2825 86.8075 18.7555 78.2141 22.925C77.8943 23.0751 77.555 23.1664 77.2027 23.186C70.4754 23.5253 63.4806 24.2952 56.4075 25.4828C39.8927 28.2429 28.5131 35.8315 25.9684 45.7886C23.7368 54.5191 28.239 64.7568 39.3576 76.2213C39.8992 76.7824 40.1668 77.5524 40.0819 78.3288C39.9971 79.1053 39.573 79.8035 38.927 80.2341C37.9939 80.854 37.1587 81.5587 36.4344 82.3417C33.0219 86.0283 31.5211 91.692 32.1997 98.2953C32.7283 103.378 34.4378 108.37 37.1457 112.729C37.6416 113.525 37.6742 114.517 37.237 115.345C35.6841 118.268 34.5161 121.211 33.7722 124.082C33.6091 124.715 33.2111 125.263 32.663 125.622C30.5945 126.96 28.9437 129.08 27.9976 131.586C27.5474 132.793 26.2815 133.491 25.0157 133.237C23.7498 132.976 22.8624 131.84 22.9211 130.555C23.1952 124.193 22.7972 117.896 19.0323 113.518C19.4238 115.848 19.5412 118.164 19.2737 120.624C19.104 122.647 18.7517 124.572 18.4124 126.431C17.9491 128.963 17.5119 131.358 17.4793 134.17C17.4793 134.268 17.4793 134.346 17.4923 134.424C17.4989 134.555 17.5054 134.685 17.5119 134.822C17.5446 136.082 16.6767 137.191 15.4435 137.452C14.2103 137.706 12.964 137.067 12.4746 135.906C11.4175 133.393 10.7455 130.614 10.2822 127.762C8.40301 132.023 8.22684 137.1 10.0473 141.55C13.2641 149.38 21.44 152.029 28.0042 151.872C28.9307 151.872 29.7985 152.322 30.2879 153.105L33.2959 157.934C33.3416 157.921 33.3808 157.901 33.4264 157.888L39.5404 154.012C39.5404 154.012 39.586 153.98 39.6056 153.967C40.5974 153.334 41.9742 153.386 42.8485 154.169C58.4042 168.093 86.1028 170.827 101.228 171.225C103.016 171.271 104.901 171.284 106.989 171.258C107.309 171.251 107.635 171.31 107.935 171.421L107.922 171.408Z"
    fill="white" stroke="white" stroke-width="5.11561" stroke-linecap="round"
    stroke-linejoin="round" />
  <path
    d="M130.506 14.1188C130.657 10.677 126.148 7.68386 120.434 7.43341C114.721 7.18295 109.967 9.77 109.816 13.2118C109.665 16.6536 114.174 19.6468 119.888 19.8972C125.601 20.1477 130.356 17.5606 130.506 14.1188Z"
    fill="#EDEEEE" />
  <path
    d="M120.183 21.2219C120.072 21.2219 119.961 21.2154 119.857 21.2089C113.325 20.9283 108.347 17.3918 108.529 13.1635C108.621 11.0233 110.004 9.11151 112.431 7.79346C114.643 6.58634 117.508 6.01214 120.509 6.12959C127.041 6.41016 132.019 9.94671 131.837 14.1749C131.745 16.3151 130.362 18.2269 127.935 19.545C125.808 20.7065 123.067 21.2937 120.189 21.2219H120.183ZM120.105 8.73959C117.684 8.67434 115.413 9.15719 113.684 10.0968C112.764 10.5927 111.218 11.6758 111.146 13.2745C111.028 15.9432 115.074 18.377 119.968 18.5924C122.493 18.6837 124.874 18.227 126.675 17.2417C127.595 16.7458 129.142 15.6626 129.214 14.064C129.331 11.3953 125.286 8.96144 120.392 8.74611C120.294 8.74611 120.203 8.73959 120.105 8.73306V8.73959Z"
    fill="#0E072D" />
  <path
    d="M107.081 172.674C196.917 177.868 232.119 122.236 165.747 52.6268L48.8123 49.5862L72.9352 164.165L112.966 172.824"
    fill="#8B6155" />
  <path
    d="M113.325 174.253C111.244 174.201 109.136 174.109 107.009 173.985L107.074 172.896L71.8391 165.275L47.1941 48.2355L166.328 51.3283L166.7 51.7198C197.524 84.0513 208.381 115.065 197.276 139.064C186.477 162.39 155.333 175.343 113.325 174.253ZM113.234 171.63H113.423C154.335 172.7 184.559 160.309 194.901 137.967C205.478 115.11 194.92 85.2845 165.179 53.9318L50.4501 50.9499L74.0575 163.076L113.26 171.558L113.24 171.636L113.234 171.63Z"
    fill="#0E072D" />
  <path
    d="M70.9712 100.781C72.4067 114.673 64.5898 125.7 53.5168 125.413C42.4374 125.126 32.3301 112.317 30.8946 98.4257C29.4591 84.534 37.2043 76.1298 48.2838 76.4169C59.3632 76.704 69.5357 86.8895 70.9712 100.781Z"
    fill="#EFD6B8" />
  <path
    d="M53.4778 126.731C42.072 126.438 31.1361 113.538 29.5897 98.5694C28.8263 91.2027 30.575 84.8147 34.5096 80.5669C37.896 76.9064 42.8029 74.975 48.3165 75.112C60.5052 75.4317 70.8017 86.4133 72.2763 100.651C73.1115 108.748 70.9583 116.239 66.3712 121.198C62.9521 124.891 58.3715 126.862 53.4843 126.731H53.4778ZM48.2447 77.735C43.4227 77.6111 39.3381 79.2032 36.4279 82.3482C33.0153 86.0348 31.5146 91.6986 32.1932 98.3019C33.6091 112.03 43.3901 123.847 53.543 124.115C57.7255 124.226 61.497 122.601 64.4398 119.423C68.5179 115.019 70.4232 108.279 69.6598 100.931C68.3417 88.2077 58.9392 78.0221 48.2382 77.7416L48.2447 77.735Z"
    fill="#0E072D" />
  <path
    d="M48.6948 71.9474C46.6329 37.4823 72.2893 12.0413 121.39 14.1815C170.497 16.3217 192.898 43.9159 194.959 78.381L48.6883 71.9474H48.6948Z"
    fill="#EDEEEE" />
  <path
    d="M194.933 79.6926H194.907L48.6361 73.2589C47.9641 73.2263 47.4225 72.6977 47.3833 72.0257C46.4176 55.9415 51.3244 41.9323 61.5752 31.5184C74.6905 18.1878 95.4074 11.7542 121.449 12.8699C166.628 14.834 193.902 38.6829 196.271 78.3027C196.291 78.6747 196.16 79.0335 195.899 79.301C195.645 79.562 195.292 79.6991 194.933 79.6926ZM49.9477 70.688L193.563 77.0042C190.705 39.753 164.462 17.3657 121.344 15.4865C96.0534 14.3642 76.0412 20.5629 63.4544 33.3519C53.9932 42.9698 49.3343 55.8567 49.9477 70.688Z"
    fill="#0E072D" />
  <path
    d="M50.9592 88.3251C3.49625 50.9825 27.7758 28.941 56.1857 24.1908C112.209 14.834 157.304 31.7533 169.336 77.1935C138.492 76.3909 97.5738 74.864 49.4062 76.3387L50.9592 88.3186V88.3251Z"
    fill="#1938F2" />
  <path
    d="M50.9265 89.6367C50.6525 89.6301 50.3784 89.5322 50.1501 89.3561C35.7037 77.9895 19.339 61.0963 23.4236 45.1426C26.2359 34.148 38.405 25.8351 55.9703 22.8989C116.144 12.8438 158.994 33.0192 170.608 76.8607C170.713 77.2587 170.628 77.6828 170.367 78.0091C170.106 78.3353 169.714 78.518 169.303 78.505C165.538 78.4071 161.63 78.2962 157.571 78.1853C128.555 77.3827 92.5365 76.3844 50.8939 77.6111L52.2576 88.1555C52.3229 88.684 52.0684 89.1995 51.6051 89.467C51.3963 89.5844 51.1549 89.6432 50.9265 89.6367ZM88.6345 23.0424C78.5991 22.7814 67.8263 23.5775 56.4075 25.4893C43.6576 27.6165 28.9699 34.0697 25.9684 45.7951C23.143 56.842 31.1818 70.4466 49.2431 85.2649L48.1077 76.5149C48.062 76.1495 48.1729 75.7775 48.4078 75.497C48.6493 75.2164 48.9951 75.0467 49.367 75.0402C91.6948 73.7417 128.261 74.7596 157.643 75.5753C161.069 75.6731 164.39 75.7645 167.6 75.8493C158.061 42.761 129.481 24.106 88.628 23.0489L88.6345 23.0424Z"
    fill="#0E072D" />
  <path
    d="M146.146 104.05C154.406 95.3786 157.434 76.0972 153.917 73.9701C113.24 49.3055 47.9249 60.124 47.3442 73.3893C47.1419 77.9308 47.3377 86.8309 49.1908 98.2366C49.1908 98.2366 31.9713 112.768 31.4297 130.986C30.5815 159.735 64.916 171.584 101.182 172.524C137.448 173.463 166.393 161.712 167.098 134.509C167.391 123.143 159.529 110.784 146.146 104.05Z"
    fill="#EFD6B8" />
  <path
    d="M101.149 173.835C62.3648 172.83 45.4911 160.955 38.8813 153.973C32.8065 147.553 29.8572 139.807 30.1182 130.946C30.6206 114.021 44.7081 100.481 47.7814 97.7276C45.7391 84.7886 45.9283 75.8101 46.0327 73.3306C46.1567 70.4727 48.4665 67.8235 52.897 65.455C71.8326 55.3347 122.056 53.1162 154.596 72.8478C155.62 73.4677 156.273 74.7857 156.534 76.7693C157.356 82.9485 154.504 95.9985 148.227 103.672C160.664 110.536 168.709 122.764 168.409 134.548C167.744 160.224 142.596 174.912 101.149 173.835ZM98.2393 60.5351C79.0818 60.0392 62.1951 63.4583 54.1302 67.7648C50.6785 69.6114 48.7275 71.6276 48.6492 73.4416C48.5383 75.9015 48.3556 84.9452 50.4762 98.0213C50.548 98.478 50.3784 98.9348 50.026 99.2349C49.8564 99.3785 33.2437 113.616 32.7282 131.025C32.4868 139.155 35.1947 146.274 40.7736 152.166C51.5398 163.552 73.5682 170.495 101.202 171.212C141.011 172.243 165.147 158.515 165.773 134.477C166.067 123.221 157.937 111.463 145.546 105.218C145.174 105.029 144.913 104.683 144.841 104.272C144.769 103.861 144.9 103.444 145.18 103.143C151.614 96.39 154.7 83.0007 153.917 77.1086C153.689 75.386 153.226 75.0859 153.219 75.0859C136.58 64.9982 116.379 61.0049 98.2262 60.5286L98.2393 60.5351Z"
    fill="#0E072D" />
  <path
    d="M45.57 85.4707L82.013 86.4186L81.9125 90.2801C81.6297 101.154 72.5748 109.749 61.7013 109.467C50.8278 109.184 42.232 100.129 42.5148 89.2553L42.5385 88.3421C42.581 86.7114 43.9394 85.4283 45.5636 85.4705L45.57 85.4707Z"
    fill="#0E072D" />
  <path
    d="M61.6798 110.752C50.0979 110.451 40.9172 100.781 41.2174 89.1995L41.2434 88.286C41.3022 85.937 43.2662 84.0774 45.6152 84.1361L82.0574 85.0822C82.7816 85.1018 83.3559 85.7021 83.3363 86.4264L83.2384 90.2892C82.9382 101.871 73.2682 111.052 61.6863 110.752H61.6798ZM45.5434 86.7591C44.6365 86.733 43.8861 87.4508 43.86 88.3578L43.8339 89.2713C43.5729 99.4111 51.6051 107.874 61.745 108.135C71.8849 108.396 80.3478 100.364 80.6088 90.2239L80.6741 87.6726L45.5434 86.7591Z"
    fill="#0E072D" />
  <path d="M186.66 93.493L68.8635 90.4328L75.3951 86.2241L186.77 89.1147L186.66 93.493Z"
    fill="#0E072D" />
  <path
    d="M186.62 94.8044L68.8245 91.7442C68.2503 91.7312 67.7544 91.3397 67.5978 90.785C67.4412 90.2304 67.6695 89.6432 68.1524 89.33L74.6839 85.1213C74.9058 84.9778 75.1668 84.906 75.4278 84.9125L186.803 87.8031C187.527 87.8227 188.102 88.423 188.082 89.1473L187.971 93.5255C187.952 94.2498 187.351 94.824 186.627 94.8044H186.62ZM73.144 89.2321L185.381 92.1487L185.426 90.3935L75.7606 87.5421L73.144 89.2321Z"
    fill="#0E072D" />
  <path
    d="M75.5904 116.479C75.6061 115.877 74.6434 115.364 73.4401 115.333C72.2369 115.302 71.2488 115.764 71.2332 116.365C71.2175 116.967 72.1803 117.48 73.3835 117.511C74.5867 117.543 75.5748 117.08 75.5904 116.479Z"
    fill="#0E072D" />
  <path
    d="M73.3334 118.425C71.539 118.379 70.2536 117.498 70.2863 116.337C70.3189 115.176 71.6435 114.36 73.4378 114.412C75.2322 114.458 76.5176 115.339 76.485 116.5C76.4524 117.662 75.1278 118.477 73.3334 118.425ZM72.3612 116.389C72.583 116.481 72.9223 116.578 73.3791 116.592C73.8358 116.605 74.1817 116.526 74.4035 116.448C74.1817 116.357 73.8424 116.259 73.3856 116.246C72.9289 116.233 72.583 116.311 72.3612 116.389Z"
    fill="#0E072D" />
  <path
    d="M88.4061 116.812C88.4217 116.21 87.459 115.697 86.2558 115.666C85.0526 115.634 84.0645 116.097 84.0488 116.698C84.0332 117.3 84.9959 117.813 86.1991 117.844C87.4023 117.876 88.3904 117.413 88.4061 116.812Z"
    fill="#0E072D" />
  <path
    d="M86.155 118.758C84.3606 118.712 83.0752 117.831 83.1078 116.67C83.1404 115.508 84.465 114.693 86.2594 114.745C88.0538 114.791 89.3392 115.671 89.3065 116.833C89.2739 117.994 87.9494 118.81 86.155 118.758ZM85.1828 116.722C85.4046 116.813 85.7439 116.911 86.2007 116.924C86.6574 116.937 87.0033 116.859 87.2251 116.781C87.0033 116.689 86.6639 116.591 86.2072 116.578C85.7504 116.565 85.4046 116.644 85.1828 116.722Z"
    fill="#0E072D" />
  <path
    d="M86.4937 86.5345L136.165 87.8265C135.827 100.826 124.998 111.106 111.998 110.768L109.441 110.701C96.4414 110.363 86.162 99.5346 86.5002 86.5346L86.4937 86.5345Z"
    fill="#0E072D" />
  <path
    d="M111.975 112.057L109.417 111.991C95.7077 111.632 84.837 100.188 85.1959 86.4785C85.2155 85.7543 85.8158 85.1801 86.54 85.1996L136.215 86.4916C136.939 86.5112 137.513 87.1115 137.494 87.8357C137.135 101.545 125.69 112.409 111.981 112.057H111.975ZM87.819 87.8553C88.1974 99.5286 97.6587 109.062 109.482 109.368L112.04 109.434C123.863 109.74 133.807 100.716 134.793 89.0755L87.819 87.8553Z"
    fill="#0E072D" />
  <path
    d="M51.3635 138.953C77.7898 130.47 112.477 129.106 133.846 140.623L130.858 155.787L70.8537 154.228L51.3701 138.953H51.3635Z"
    fill="#EFD6B8" />
  <path
    d="M51.3244 140.264C50.7829 140.251 50.287 139.899 50.1108 139.351C49.8889 138.659 50.2674 137.922 50.959 137.7C86.044 126.438 119.524 130.738 135.778 139.501C136.417 139.847 136.652 140.643 136.313 141.276C135.967 141.915 135.171 142.15 134.538 141.811C113.025 130.216 76.6154 132.225 51.7681 140.199C51.6246 140.245 51.4745 140.264 51.331 140.258L51.3244 140.264Z"
    fill="#0E072D" />
  <path
    d="M58.267 136.963L51.3635 138.953L28.6304 150.613L33.9287 159.108L73.7573 133.857C68.446 134.627 63.2455 135.671 58.2735 136.963H58.267Z"
    fill="#EDEEEE" />
  <path
    d="M33.8895 160.413C33.8047 160.413 33.7199 160.4 33.6351 160.381C33.2958 160.302 32.9956 160.094 32.8129 159.794L27.5146 151.298C27.3189 150.985 27.2666 150.606 27.3645 150.254C27.4624 149.902 27.7038 149.601 28.0301 149.438L50.7632 137.778C50.8415 137.739 50.9198 137.706 50.9981 137.687L57.9016 135.697C57.9016 135.697 57.9277 135.69 57.9342 135.69C62.9519 134.392 68.2111 133.335 73.5551 132.558C74.1684 132.467 74.7556 132.819 74.971 133.4C75.1863 133.981 74.971 134.633 74.4424 134.959L34.6138 160.211C34.392 160.348 34.1375 160.42 33.8765 160.413H33.8895ZM30.4965 151.122L34.3397 157.288L67.5716 136.219C64.5244 136.799 61.5295 137.465 58.6128 138.222L51.8463 140.173L30.4965 151.122Z"
    fill="#0E072D" />
  <path d="M35.3773 147.148L27.5408 151.174L32.8325 159.67L40.3102 155.056L35.3773 147.148Z"
    fill="#FF5027" />
  <path
    d="M32.7999 160.981C32.3758 160.968 31.9647 160.753 31.7233 160.361L26.425 151.866C26.2292 151.552 26.177 151.174 26.2749 150.822C26.3728 150.469 26.6142 150.169 26.9405 150.006L34.7835 145.974C35.3903 145.66 36.1342 145.863 36.4931 146.443L41.426 154.352C41.6087 154.645 41.6674 155.004 41.5891 155.343C41.5108 155.683 41.2955 155.976 41.0019 156.159L33.5242 160.779C33.2958 160.916 33.0479 160.981 32.7999 160.975V160.981ZM29.4004 151.689L33.2501 157.869L38.4962 154.632L34.901 148.864L29.4004 151.689Z"
    fill="#0E072D" />
  <path
    d="M98.2131 81.9567C97.926 81.9502 97.6389 81.8458 97.404 81.65C96.8494 81.1802 96.7776 80.3581 97.2474 79.8035C102.598 73.4481 112.066 71.1839 121.364 74.0484C122.055 74.2637 122.447 74.9945 122.232 75.6862C122.016 76.3778 121.286 76.7693 120.594 76.554C112.307 74.0093 103.929 75.9407 99.2571 81.4934C98.9895 81.8132 98.6046 81.9698 98.2196 81.9567H98.2131Z"
    fill="#0E072D" />
  <path
    d="M73.9923 81.4739C73.6334 81.4673 73.2811 81.3107 73.0331 81.0171C69.0985 76.4365 61.3207 74.8183 57.2556 76.4822C56.5835 76.7563 55.8201 76.4365 55.5461 75.7645C55.272 75.0924 55.5918 74.329 56.2638 74.0549C61.7775 71.7973 70.7232 74.3029 75.0232 79.3076C75.493 79.8557 75.4343 80.6843 74.8862 81.1541C74.6317 81.376 74.312 81.4804 73.9988 81.4673L73.9923 81.4739Z"
    fill="#0E072D" />
  <path
    d="M135.908 149.112C135.308 149.099 134.779 148.668 134.655 148.055C134.512 147.344 134.975 146.652 135.686 146.515C138.492 145.961 140.378 144.688 141.135 142.829C141.82 141.145 141.5 139.083 140.28 137.315C139.869 136.721 140.019 135.906 140.613 135.488C141.213 135.077 142.029 135.227 142.44 135.821C144.169 138.313 144.586 141.302 143.568 143.814C142.479 146.496 139.862 148.368 136.202 149.086C136.104 149.106 136.006 149.112 135.915 149.112H135.908Z"
    fill="#0E072D" />
  <path
    d="M224.329 102.243C225.725 117.616 209.269 134.157 198.307 132.421C188.356 130.842 179.756 114.66 175.469 102.602C170.36 88.2402 189.589 72.1104 200.662 72.3975C211.742 72.6846 222.926 86.8635 224.322 102.243H224.329Z"
    fill="#EFD6B8" />
  <path
    d="M199.592 133.85C199.083 133.837 198.587 133.791 198.105 133.713C187.978 132.108 179.136 116.813 174.236 103.039C172.22 97.3687 173.57 90.8568 178.04 84.6972C183.802 76.7497 193.544 70.9033 200.701 71.086C212.505 71.3927 224.159 85.8978 225.634 102.119C226.527 111.985 220.642 121.309 214.835 126.744C209.863 131.397 204.284 133.968 199.586 133.85H199.592ZM200.636 73.7091C194.372 73.5459 185.381 79.0465 180.161 86.2371C176.213 91.6724 174.986 97.3296 176.709 102.158C181.14 114.627 189.511 129.694 198.516 131.123C202.692 131.782 208.127 129.433 213.047 124.833C218.404 119.821 223.833 111.287 223.024 102.36C221.686 87.6334 211.017 73.9831 200.636 73.7091Z"
    fill="#0E072D" />
  <path
    d="M188.056 86.2241C192.232 82.3091 197.38 79.7644 200.473 79.8427C207.148 80.0188 216.133 90.3675 217.275 102.967C217.705 107.724 215.389 113.473 211.083 118.334C209.236 120.415 207.318 121.988 205.543 123.084"
    fill="#EFD6B8" />
  <path
    d="M205.51 124.402C205.086 124.389 204.669 124.174 204.427 123.782C204.049 123.169 204.238 122.36 204.851 121.981C206.665 120.859 208.486 119.299 210.104 117.472C214.182 112.872 216.374 107.502 215.976 103.091C214.919 91.4702 206.554 81.3173 200.447 81.1542C198.059 81.0889 193.217 83.1835 188.956 87.1768C188.428 87.6727 187.599 87.6466 187.103 87.118C186.607 86.5895 186.633 85.7608 187.162 85.2649C191.488 81.2064 196.976 78.4398 200.512 78.5311C207.866 78.7204 217.366 89.3887 218.586 102.85C219.05 107.965 216.616 114.079 212.068 119.208C210.28 121.224 208.264 122.947 206.235 124.206C206.006 124.343 205.758 124.408 205.51 124.402Z"
    fill="#0E072D" />
  <path
    d="M165.877 95.5744L187.906 96.2008L183.56 101.682L192.023 102.758L188.415 109.153L195.632 110.438L191.606 117.27L198.072 118.464L186.738 134.835"
    fill="#8B6155" />
  <path
    d="M190.392 130.509C190.209 130.509 190.02 130.451 189.857 130.333C189.413 130.02 189.296 129.413 189.609 128.963L196.395 119.156L191.423 118.242C191.11 118.184 190.842 117.975 190.705 117.681C190.568 117.388 190.588 117.048 190.751 116.774L194.059 111.156L188.239 110.125C187.925 110.066 187.658 109.864 187.521 109.577C187.384 109.29 187.397 108.951 187.554 108.677L190.444 103.555L183.436 102.667C183.084 102.621 182.784 102.393 182.647 102.06C182.516 101.734 182.568 101.356 182.784 101.082L185.909 97.1339L173.642 96.7881C173.101 96.775 172.67 96.3183 172.69 95.7767C172.703 95.2351 173.153 94.8045 173.701 94.8241L187.932 95.2286C188.304 95.2417 188.637 95.457 188.793 95.7963C188.95 96.1356 188.904 96.5336 188.669 96.8207L185.407 100.938L192.141 101.793C192.467 101.832 192.747 102.034 192.898 102.328C193.048 102.621 193.035 102.967 192.878 103.254L189.948 108.442L195.795 109.479C196.114 109.538 196.382 109.74 196.519 110.034C196.656 110.327 196.636 110.667 196.473 110.941L193.159 116.565L198.242 117.505C198.568 117.564 198.848 117.786 198.972 118.099C199.096 118.405 199.064 118.758 198.874 119.032L191.221 130.092C191.025 130.379 190.705 130.522 190.385 130.516L190.392 130.509Z"
    fill="#0E072D" />
  <path
    d="M39.4229 150.841C39.5207 150.659 39.6056 150.476 39.6708 150.28C39.6774 150.26 39.6839 150.241 39.6904 150.215C39.7622 149.993 39.8078 149.771 39.8404 149.543C39.9122 148.975 39.8796 148.381 39.7557 147.781C39.3511 145.765 38.0526 143.683 37.0934 142.476C31.6842 136.14 33.3089 130.803 32.2975 122.79C29.1133 124.441 26.7709 127.358 25.5376 130.659C25.9291 121.694 25.0417 111.717 14.6996 107.267C16.1873 111.809 17.1465 115.854 16.6636 120.33C16.2656 125.022 14.9149 128.917 14.8562 134.124C14.8562 134.379 14.8823 134.62 14.8888 134.868C13.2445 130.96 12.5594 126.229 12.0896 120.65C6.34107 126.124 4.56629 135.083 7.61999 142.522C12.4876 154.371 27.4756 157.04 38.3397 152.231L38.3136 152.061C38.542 151.905 38.7377 151.729 38.9139 151.546C38.9531 151.507 38.9857 151.461 39.0183 151.415C39.1488 151.265 39.2663 151.109 39.3641 150.946C39.3837 150.906 39.4033 150.867 39.4229 150.828V150.841Z"
    fill="#A3A1AE" />
  <path
    d="M102.95 98.1322C99.3551 101.545 95.8773 100.188 92.3604 100.559C94.9769 103.998 98.5591 106.66 102.722 108.122C105.273 108.161 107.903 108.05 110.258 105.812C115.537 100.801 110.526 95.5156 115.805 90.5044C116.77 89.5844 117.73 89.0167 118.682 88.6644L105.841 88.3316C105.502 91.6137 106.324 94.9284 102.95 98.1387V98.1322Z"
    fill="white" />
  <path
    d="M54.7372 96.6771C51.8793 99.3915 49.0997 98.9217 46.3135 98.9087C48.0948 101.988 50.7374 104.507 53.9347 106.132C56.5382 106.178 59.2525 106.249 61.6668 103.953C66.6715 99.2023 61.9213 94.1976 66.9194 89.4474C68.1657 88.2599 69.4055 87.6857 70.6257 87.4116L57.5104 87.0723C57.0928 90.2892 58.0389 93.5386 54.7307 96.6837L54.7372 96.6771Z"
    fill="white" />
  <path
    d="M130.506 14.1188C130.657 10.677 126.148 7.68386 120.434 7.43341C114.721 7.18295 109.967 9.77 109.816 13.2118C109.665 16.6536 114.174 19.6468 119.888 19.8972C125.601 20.1477 130.356 17.5606 130.506 14.1188Z"
    fill="#EDEEEE" />
  <path
    d="M120.183 21.2219C120.072 21.2219 119.961 21.2154 119.857 21.2089C113.325 20.9283 108.347 17.3918 108.529 13.1635C108.621 11.0233 110.004 9.11151 112.431 7.79346C114.643 6.58634 117.508 6.01214 120.509 6.12959C127.041 6.41016 132.019 9.94671 131.837 14.1749C131.745 16.3151 130.362 18.2269 127.935 19.545C125.808 20.7065 123.067 21.2937 120.189 21.2219H120.183ZM120.105 8.73959C117.684 8.67434 115.413 9.15719 113.684 10.0968C112.764 10.5927 111.218 11.6758 111.146 13.2745C111.028 15.9432 115.074 18.377 119.968 18.5924C122.493 18.6837 124.874 18.227 126.675 17.2417C127.595 16.7458 129.142 15.6626 129.214 14.064C129.331 11.3953 125.286 8.96144 120.392 8.74611C120.294 8.74611 120.203 8.73959 120.105 8.73306V8.73959Z"
    fill="#0E072D" />
  <path
    d="M107.081 172.674C196.917 177.868 232.119 122.236 165.747 52.6268L48.8123 49.5862L72.9352 164.165L112.966 172.824"
    fill="#8B6155" />
  <path
    d="M113.325 174.253C111.244 174.201 109.136 174.109 107.009 173.985L107.074 172.896L71.8391 165.275L47.1941 48.2355L166.328 51.3283L166.7 51.7198C197.524 84.0513 208.381 115.065 197.276 139.064C186.477 162.39 155.333 175.343 113.325 174.253ZM113.234 171.63H113.423C154.335 172.7 184.559 160.309 194.901 137.967C205.478 115.11 194.92 85.2845 165.179 53.9318L50.4501 50.9499L74.0575 163.076L113.26 171.558L113.24 171.636L113.234 171.63Z"
    fill="#0E072D" />
  <path
    d="M70.9712 100.781C72.4067 114.673 64.5898 125.7 53.5168 125.413C42.4374 125.126 32.3301 112.317 30.8946 98.4257C29.4591 84.534 37.2043 76.1298 48.2838 76.4169C59.3632 76.704 69.5357 86.8895 70.9712 100.781Z"
    fill="#EFD6B8" />
  <path
    d="M53.4778 126.731C42.072 126.438 31.1361 113.538 29.5897 98.5694C28.8263 91.2027 30.575 84.8147 34.5096 80.5669C37.896 76.9064 42.8029 74.975 48.3165 75.112C60.5052 75.4317 70.8017 86.4133 72.2763 100.651C73.1115 108.748 70.9583 116.239 66.3712 121.198C62.9521 124.891 58.3715 126.862 53.4843 126.731H53.4778ZM48.2447 77.735C43.4227 77.6111 39.3381 79.2032 36.4279 82.3482C33.0153 86.0348 31.5146 91.6986 32.1932 98.3019C33.6091 112.03 43.3901 123.847 53.543 124.115C57.7255 124.226 61.497 122.601 64.4398 119.423C68.5179 115.019 70.4232 108.279 69.6598 100.931C68.3417 88.2077 58.9392 78.0221 48.2382 77.7416L48.2447 77.735Z"
    fill="#0E072D" />
  <path
    d="M48.6948 71.9474C46.6329 37.4823 72.2893 12.0413 121.39 14.1815C170.497 16.3217 192.898 43.9159 194.959 78.381L48.6883 71.9474H48.6948Z"
    fill="#EDEEEE" />
  <path
    d="M194.933 79.6926H194.907L48.6361 73.2589C47.9641 73.2263 47.4225 72.6977 47.3833 72.0257C46.4176 55.9415 51.3244 41.9323 61.5752 31.5184C74.6905 18.1878 95.4074 11.7542 121.449 12.8699C166.628 14.834 193.902 38.6829 196.271 78.3027C196.291 78.6747 196.16 79.0335 195.899 79.301C195.645 79.562 195.292 79.6991 194.933 79.6926ZM49.9477 70.688L193.563 77.0042C190.705 39.753 164.462 17.3657 121.344 15.4865C96.0534 14.3642 76.0412 20.5629 63.4544 33.3519C53.9932 42.9698 49.3343 55.8567 49.9477 70.688Z"
    fill="#0E072D" />
  <path
    d="M50.9592 88.3251C3.49625 50.9825 27.7758 28.941 56.1857 24.1908C112.209 14.834 157.304 31.7533 169.336 77.1935C138.492 76.3909 97.5738 74.864 49.4062 76.3387L50.9592 88.3186V88.3251Z"
    fill="#1938F2" />
  <path
    d="M50.9265 89.6367C50.6525 89.6301 50.3784 89.5322 50.1501 89.3561C35.7037 77.9895 19.339 61.0963 23.4236 45.1426C26.2359 34.148 38.405 25.8351 55.9703 22.8989C116.144 12.8438 158.994 33.0192 170.608 76.8607C170.713 77.2587 170.628 77.6828 170.367 78.0091C170.106 78.3353 169.714 78.518 169.303 78.505C165.538 78.4071 161.63 78.2962 157.571 78.1853C128.555 77.3827 92.5365 76.3844 50.8939 77.6111L52.2576 88.1555C52.3229 88.684 52.0684 89.1995 51.6051 89.467C51.3963 89.5844 51.1549 89.6432 50.9265 89.6367ZM88.6345 23.0424C78.5991 22.7814 67.8263 23.5775 56.4075 25.4893C43.6576 27.6165 28.9699 34.0697 25.9684 45.7951C23.143 56.842 31.1818 70.4466 49.2431 85.2649L48.1077 76.5149C48.062 76.1495 48.1729 75.7775 48.4078 75.497C48.6493 75.2164 48.9951 75.0467 49.367 75.0402C91.6948 73.7417 128.261 74.7596 157.643 75.5753C161.069 75.6731 164.39 75.7645 167.6 75.8493C158.061 42.761 129.481 24.106 88.628 23.0489L88.6345 23.0424Z"
    fill="#0E072D" />
  <path
    d="M146.146 104.05C154.406 95.3786 157.434 76.0972 153.917 73.9701C113.24 49.3055 47.9249 60.124 47.3442 73.3893C47.1419 77.9308 47.3377 86.8309 49.1908 98.2366C49.1908 98.2366 31.9713 112.768 31.4297 130.986C30.5815 159.735 64.916 171.584 101.182 172.524C137.448 173.463 166.393 161.712 167.098 134.509C167.391 123.143 159.529 110.784 146.146 104.05Z"
    fill="#EFD6B8" />
  <path
    d="M101.149 173.835C62.3648 172.83 45.4911 160.955 38.8813 153.973C32.8065 147.553 29.8572 139.807 30.1182 130.946C30.6206 114.021 44.7081 100.481 47.7814 97.7276C45.7391 84.7886 45.9283 75.8101 46.0327 73.3306C46.1567 70.4727 48.4665 67.8235 52.897 65.455C71.8326 55.3347 122.056 53.1162 154.596 72.8478C155.62 73.4677 156.273 74.7857 156.534 76.7693C157.356 82.9485 154.504 95.9985 148.227 103.672C160.664 110.536 168.709 122.764 168.409 134.548C167.744 160.224 142.596 174.912 101.149 173.835ZM98.2393 60.5351C79.0818 60.0392 62.1951 63.4583 54.1302 67.7648C50.6785 69.6114 48.7275 71.6276 48.6492 73.4416C48.5383 75.9015 48.3556 84.9452 50.4762 98.0213C50.548 98.478 50.3784 98.9348 50.026 99.2349C49.8564 99.3785 33.2437 113.616 32.7282 131.025C32.4868 139.155 35.1947 146.274 40.7736 152.166C51.5398 163.552 73.5682 170.495 101.202 171.212C141.011 172.243 165.147 158.515 165.773 134.477C166.067 123.221 157.937 111.463 145.546 105.218C145.174 105.029 144.913 104.683 144.841 104.272C144.769 103.861 144.9 103.444 145.18 103.143C151.614 96.39 154.7 83.0007 153.917 77.1086C153.689 75.386 153.226 75.0859 153.219 75.0859C136.58 64.9982 116.379 61.0049 98.2262 60.5286L98.2393 60.5351Z"
    fill="#0E072D" />
  <path
    d="M45.57 85.4707L82.013 86.4186L81.9125 90.2801C81.6297 101.154 72.5748 109.749 61.7013 109.467C50.8278 109.184 42.232 100.129 42.5148 89.2553L42.5385 88.3421C42.581 86.7114 43.9394 85.4283 45.5636 85.4705L45.57 85.4707Z"
    fill="#0E072D" />
  <path
    d="M61.6798 110.752C50.0979 110.451 40.9172 100.781 41.2174 89.1995L41.2434 88.286C41.3022 85.937 43.2662 84.0774 45.6152 84.1361L82.0574 85.0822C82.7816 85.1018 83.3559 85.7021 83.3363 86.4264L83.2384 90.2892C82.9382 101.871 73.2682 111.052 61.6863 110.752H61.6798ZM45.5434 86.7591C44.6365 86.733 43.8861 87.4508 43.86 88.3578L43.8339 89.2713C43.5729 99.4111 51.6051 107.874 61.745 108.135C71.8849 108.396 80.3478 100.364 80.6088 90.2239L80.6741 87.6726L45.5434 86.7591Z"
    fill="#0E072D" />
  <path d="M186.66 93.493L68.8635 90.4328L75.3951 86.2241L186.77 89.1147L186.66 93.493Z"
    fill="#0E072D" />
  <path
    d="M186.62 94.8044L68.8245 91.7442C68.2503 91.7312 67.7544 91.3397 67.5978 90.785C67.4412 90.2304 67.6695 89.6432 68.1524 89.33L74.6839 85.1213C74.9058 84.9778 75.1668 84.906 75.4278 84.9125L186.803 87.8031C187.527 87.8227 188.102 88.423 188.082 89.1473L187.971 93.5255C187.952 94.2498 187.351 94.824 186.627 94.8044H186.62ZM73.144 89.2321L185.381 92.1487L185.426 90.3935L75.7606 87.5421L73.144 89.2321Z"
    fill="#0E072D" />
  <path
    d="M75.5904 116.479C75.6061 115.877 74.6434 115.364 73.4401 115.333C72.2369 115.302 71.2488 115.764 71.2332 116.365C71.2175 116.967 72.1803 117.48 73.3835 117.511C74.5867 117.543 75.5748 117.08 75.5904 116.479Z"
    fill="#0E072D" />
  <path
    d="M73.3334 118.425C71.539 118.379 70.2536 117.498 70.2863 116.337C70.3189 115.176 71.6435 114.36 73.4378 114.412C75.2322 114.458 76.5176 115.339 76.485 116.5C76.4524 117.662 75.1278 118.477 73.3334 118.425ZM72.3612 116.389C72.583 116.481 72.9223 116.578 73.3791 116.592C73.8358 116.605 74.1817 116.526 74.4035 116.448C74.1817 116.357 73.8424 116.259 73.3856 116.246C72.9289 116.233 72.583 116.311 72.3612 116.389Z"
    fill="#0E072D" />
  <path
    d="M88.4061 116.812C88.4217 116.21 87.459 115.697 86.2558 115.666C85.0526 115.634 84.0645 116.097 84.0488 116.698C84.0332 117.3 84.9959 117.813 86.1991 117.844C87.4023 117.876 88.3904 117.413 88.4061 116.812Z"
    fill="#0E072D" />
  <path
    d="M86.155 118.758C84.3606 118.712 83.0752 117.831 83.1078 116.67C83.1404 115.508 84.465 114.693 86.2594 114.745C88.0538 114.791 89.3392 115.671 89.3065 116.833C89.2739 117.994 87.9494 118.81 86.155 118.758ZM85.1828 116.722C85.4046 116.813 85.7439 116.911 86.2007 116.924C86.6574 116.937 87.0033 116.859 87.2251 116.781C87.0033 116.689 86.6639 116.591 86.2072 116.578C85.7504 116.565 85.4046 116.644 85.1828 116.722Z"
    fill="#0E072D" />
  <path
    d="M86.4937 86.5345L136.165 87.8265C135.827 100.826 124.998 111.106 111.998 110.768L109.441 110.701C96.4414 110.363 86.162 99.5346 86.5002 86.5346L86.4937 86.5345Z"
    fill="#0E072D" />
  <path
    d="M111.975 112.057L109.417 111.991C95.7077 111.632 84.837 100.188 85.1959 86.4785C85.2155 85.7543 85.8158 85.1801 86.54 85.1996L136.215 86.4916C136.939 86.5112 137.513 87.1115 137.494 87.8357C137.135 101.545 125.69 112.409 111.981 112.057H111.975ZM87.819 87.8553C88.1974 99.5286 97.6587 109.062 109.482 109.368L112.04 109.434C123.863 109.74 133.807 100.716 134.793 89.0755L87.819 87.8553Z"
    fill="#0E072D" />
  <path
    d="M51.3635 138.953C77.7898 130.47 112.477 129.106 133.846 140.623L130.858 155.787L70.8537 154.228L51.3701 138.953H51.3635Z"
    fill="#EFD6B8" />
  <path
    d="M51.3244 140.264C50.7829 140.251 50.287 139.899 50.1108 139.351C49.8889 138.659 50.2674 137.922 50.959 137.7C86.044 126.438 119.524 130.738 135.778 139.501C136.417 139.847 136.652 140.643 136.313 141.276C135.967 141.915 135.171 142.15 134.538 141.811C113.025 130.216 76.6154 132.225 51.7681 140.199C51.6246 140.245 51.4745 140.264 51.331 140.258L51.3244 140.264Z"
    fill="#0E072D" />
  <path
    d="M58.267 136.963L51.3635 138.953L28.6304 150.613L33.9287 159.108L73.7573 133.857C68.446 134.627 63.2455 135.671 58.2735 136.963H58.267Z"
    fill="#EDEEEE" />
  <path
    d="M33.8895 160.413C33.8047 160.413 33.7199 160.4 33.6351 160.381C33.2958 160.302 32.9956 160.094 32.8129 159.794L27.5146 151.298C27.3189 150.985 27.2666 150.606 27.3645 150.254C27.4624 149.902 27.7038 149.601 28.0301 149.438L50.7632 137.778C50.8415 137.739 50.9198 137.706 50.9981 137.687L57.9016 135.697C57.9016 135.697 57.9277 135.69 57.9342 135.69C62.9519 134.392 68.2111 133.335 73.5551 132.558C74.1684 132.467 74.7556 132.819 74.971 133.4C75.1863 133.981 74.971 134.633 74.4424 134.959L34.6138 160.211C34.392 160.348 34.1375 160.42 33.8765 160.413H33.8895ZM30.4965 151.122L34.3397 157.288L67.5716 136.219C64.5244 136.799 61.5295 137.465 58.6128 138.222L51.8463 140.173L30.4965 151.122Z"
    fill="#0E072D" />
  <path d="M35.3773 147.148L27.5408 151.174L32.8325 159.67L40.3102 155.056L35.3773 147.148Z"
    fill="#FF5027" />
  <path
    d="M32.7999 160.981C32.3758 160.968 31.9647 160.753 31.7233 160.361L26.425 151.866C26.2292 151.552 26.177 151.174 26.2749 150.822C26.3728 150.469 26.6142 150.169 26.9405 150.006L34.7835 145.974C35.3903 145.66 36.1342 145.863 36.4931 146.443L41.426 154.352C41.6087 154.645 41.6674 155.004 41.5891 155.343C41.5108 155.683 41.2955 155.976 41.0019 156.159L33.5242 160.779C33.2958 160.916 33.0479 160.981 32.7999 160.975V160.981ZM29.4004 151.689L33.2501 157.869L38.4962 154.632L34.901 148.864L29.4004 151.689Z"
    fill="#0E072D" />
  <path
    d="M98.2131 81.9567C97.926 81.9502 97.6389 81.8458 97.404 81.65C96.8494 81.1802 96.7776 80.3581 97.2474 79.8035C102.598 73.4481 112.066 71.1839 121.364 74.0484C122.055 74.2637 122.447 74.9945 122.232 75.6862C122.016 76.3778 121.286 76.7693 120.594 76.554C112.307 74.0093 103.929 75.9407 99.2571 81.4934C98.9895 81.8132 98.6046 81.9698 98.2196 81.9567H98.2131Z"
    fill="#0E072D" />
  <path
    d="M73.9923 81.4739C73.6334 81.4673 73.2811 81.3107 73.0331 81.0171C69.0985 76.4365 61.3207 74.8183 57.2556 76.4822C56.5835 76.7563 55.8201 76.4365 55.5461 75.7645C55.272 75.0924 55.5918 74.329 56.2638 74.0549C61.7775 71.7973 70.7232 74.3029 75.0232 79.3076C75.493 79.8557 75.4343 80.6843 74.8862 81.1541C74.6317 81.376 74.312 81.4804 73.9988 81.4673L73.9923 81.4739Z"
    fill="#0E072D" />
  <path
    d="M135.908 149.112C135.308 149.099 134.779 148.668 134.655 148.055C134.512 147.344 134.975 146.652 135.686 146.515C138.492 145.961 140.378 144.688 141.135 142.829C141.82 141.145 141.5 139.083 140.28 137.315C139.869 136.721 140.019 135.906 140.613 135.488C141.213 135.077 142.029 135.227 142.44 135.821C144.169 138.313 144.586 141.302 143.568 143.814C142.479 146.496 139.862 148.368 136.202 149.086C136.104 149.106 136.006 149.112 135.915 149.112H135.908Z"
    fill="#0E072D" />
  <path
    d="M224.329 102.243C225.725 117.616 209.269 134.157 198.307 132.421C188.356 130.842 179.756 114.66 175.469 102.602C170.36 88.2402 189.589 72.1104 200.662 72.3975C211.742 72.6846 222.926 86.8635 224.322 102.243H224.329Z"
    fill="#EFD6B8" />
  <path
    d="M199.592 133.85C199.083 133.837 198.587 133.791 198.105 133.713C187.978 132.108 179.136 116.813 174.236 103.039C172.22 97.3687 173.57 90.8568 178.04 84.6972C183.802 76.7497 193.544 70.9033 200.701 71.086C212.505 71.3927 224.159 85.8978 225.634 102.119C226.527 111.985 220.642 121.309 214.835 126.744C209.863 131.397 204.284 133.968 199.586 133.85H199.592ZM200.636 73.7091C194.372 73.5459 185.381 79.0465 180.161 86.2371C176.213 91.6724 174.986 97.3296 176.709 102.158C181.14 114.627 189.511 129.694 198.516 131.123C202.692 131.782 208.127 129.433 213.047 124.833C218.404 119.821 223.833 111.287 223.024 102.36C221.686 87.6334 211.017 73.9831 200.636 73.7091Z"
    fill="#0E072D" />
  <path
    d="M188.056 86.2241C192.232 82.3091 197.38 79.7644 200.473 79.8427C207.148 80.0188 216.133 90.3675 217.275 102.967C217.705 107.724 215.389 113.473 211.083 118.334C209.236 120.415 207.318 121.988 205.543 123.084"
    fill="#EFD6B8" />
  <path
    d="M205.51 124.402C205.086 124.389 204.669 124.174 204.427 123.782C204.049 123.169 204.238 122.36 204.851 121.981C206.665 120.859 208.486 119.299 210.104 117.472C214.182 112.872 216.374 107.502 215.976 103.091C214.919 91.4702 206.554 81.3173 200.447 81.1542C198.059 81.0889 193.217 83.1835 188.956 87.1768C188.428 87.6727 187.599 87.6466 187.103 87.118C186.607 86.5895 186.633 85.7608 187.162 85.2649C191.488 81.2064 196.976 78.4398 200.512 78.5311C207.866 78.7204 217.366 89.3887 218.586 102.85C219.05 107.965 216.616 114.079 212.068 119.208C210.28 121.224 208.264 122.947 206.235 124.206C206.006 124.343 205.758 124.408 205.51 124.402Z"
    fill="#0E072D" />
  <path
    d="M165.877 95.5744L187.906 96.2008L183.56 101.682L192.023 102.758L188.415 109.153L195.632 110.438L191.606 117.27L198.072 118.464L186.738 134.835"
    fill="#8B6155" />
  <path
    d="M190.392 130.509C190.209 130.509 190.02 130.451 189.857 130.333C189.413 130.02 189.296 129.413 189.609 128.963L196.395 119.156L191.423 118.242C191.11 118.184 190.842 117.975 190.705 117.681C190.568 117.388 190.588 117.048 190.751 116.774L194.059 111.156L188.239 110.125C187.925 110.066 187.658 109.864 187.521 109.577C187.384 109.29 187.397 108.951 187.554 108.677L190.444 103.555L183.436 102.667C183.084 102.621 182.784 102.393 182.647 102.06C182.516 101.734 182.568 101.356 182.784 101.082L185.909 97.1339L173.642 96.7881C173.101 96.775 172.67 96.3183 172.69 95.7767C172.703 95.2351 173.153 94.8045 173.701 94.8241L187.932 95.2286C188.304 95.2417 188.637 95.457 188.793 95.7963C188.95 96.1356 188.904 96.5336 188.669 96.8207L185.407 100.938L192.141 101.793C192.467 101.832 192.747 102.034 192.898 102.328C193.048 102.621 193.035 102.967 192.878 103.254L189.948 108.442L195.795 109.479C196.114 109.538 196.382 109.74 196.519 110.034C196.656 110.327 196.636 110.667 196.473 110.941L193.159 116.565L198.242 117.505C198.568 117.564 198.848 117.786 198.972 118.099C199.096 118.405 199.064 118.758 198.874 119.032L191.221 130.092C191.025 130.379 190.705 130.522 190.385 130.516L190.392 130.509Z"
    fill="#0E072D" />
  <path
    d="M102.95 98.1322C99.3551 101.545 95.8773 100.188 92.3604 100.559C94.9769 103.998 98.5591 106.66 102.722 108.122C105.273 108.161 107.903 108.05 110.258 105.812C115.537 100.801 110.526 95.5156 115.805 90.5044C116.77 89.5844 117.73 89.0167 118.682 88.6644L105.841 88.3316C105.502 91.6137 106.324 94.9284 102.95 98.1387V98.1322Z"
    fill="white" />
  <path
    d="M54.7372 96.6771C51.8793 99.3915 49.0997 98.9217 46.3135 98.9087C48.0948 101.988 50.7374 104.507 53.9347 106.132C56.5382 106.178 59.2525 106.249 61.6668 103.953C66.6715 99.2023 61.9213 94.1976 66.9194 89.4474C68.1657 88.2599 69.4055 87.6857 70.6257 87.4116L57.5104 87.0723C57.0928 90.2892 58.0389 93.5386 54.7307 96.6837L54.7372 96.6771Z"
    fill="white" />
</svg>