<svg width="107" height="107" viewBox="0 0 107 107" fill="none" xmlns="http://www.w3.org/2000/svg">
  <path fill-rule="evenodd" clip-rule="evenodd"
    d="M57.9583 8.91666H49.0416V26.75H40.125V17.8333H31.2083V26.75L40.125 26.75V35.6667H49.0416V49.0417H35.6666V40.125H26.75L26.75 31.2083H17.8333V40.125H26.75V49.0417H8.91663V57.9583L26.75 57.9583V66.875L17.8333 66.875V75.7917H26.75L26.75 66.875H35.6666V57.9583L49.0416 57.9583V71.3333H40.125V80.25H31.2083V89.1667H40.125V80.25H49.0416V98.0833H57.9583L57.9583 80.25H66.875L66.875 89.1667H75.7916V80.25H66.875V71.3333H57.9583L57.9583 57.9583L71.3333 57.9583V66.875H80.25V75.7917H89.1666V66.875L80.25 66.875V57.9583L98.0833 57.9583V49.0417H80.25V40.125H89.1666V31.2083H80.25V40.125H71.3333V49.0417H57.9583L57.9583 35.6667H66.875V26.75L75.7916 26.75V17.8333H66.875L66.875 26.75H57.9583L57.9583 8.91666Z"
    fill="currentColor" />
</svg>