<svg width="107" height="107" viewBox="0 0 107 107" fill="none" xmlns="http://www.w3.org/2000/svg">
  <g clip-path="url(#clip0_2389_1320)">
    <path fill-rule="evenodd" clip-rule="evenodd"
      d="M57.9583 0H49.0417V17.8333H57.9583V0ZM0 49.0417V57.9583H17.8333V49.0417H0ZM107 49.0417V57.9583H89.1667V49.0417H107ZM57.9583 107H49.0417V89.1667H57.9583V107ZM35.6667 26.75H71.3333V35.6667H35.6667V26.75ZM26.75 35.6667H35.6667V71.3333H26.75V35.6667ZM35.6667 80.25V71.3333H71.3333V80.25H35.6667ZM80.25 71.3333H71.3333V35.6667H80.25V71.3333ZM89.1667 8.91667H98.0833V17.8333H89.1667V8.91667ZM89.1667 17.8333V26.75H80.25V17.8333H89.1667ZM98.0833 98.0833H89.1667V89.1667H98.0833V98.0833ZM89.1667 89.1667L80.25 89.1667V80.25H89.1667V89.1667ZM17.8333 8.91667H8.91667V17.8333H17.8333L17.8333 26.75H26.75V17.8333H17.8333V8.91667ZM8.91667 98.0833H17.8333V89.1667L26.75 89.1667V80.25H17.8333L17.8333 89.1667H8.91667V98.0833Z"
      fill="currentColor" />
  </g>
  <defs>
    <clipPath id="clip0_2389_1320">
      <rect width="107" height="107" fill="currentColor" />
    </clipPath>
  </defs>
</svg>