<svg width="236" height="134" viewBox="0 0 236 134" fill="none" xmlns="http://www.w3.org/2000/svg">
<g id="Tag">
<path id="Union" fill-rule="evenodd" clip-rule="evenodd" d="M17.0913 118.548L211.03 131.386L211.623 122.901L220.041 123.49L220.635 115.005L229.052 115.594L232.443 67.1116L224.025 66.523L224.618 58.0386L216.2 57.4499L216.793 48.9655L199.958 47.7882L201.144 30.8193L209.562 31.408L210.245 22.862L201.738 22.3349L193.32 21.7463L193.913 13.2618L185.495 12.6732L184.902 21.1576L176.484 20.569L175.891 29.0534L167.473 28.4648L166.879 36.9492L158.462 36.3606L157.868 44.845L22.8547 36.1275L22.2614 44.612L13.8435 44.0233L13.2502 52.5078L4.8323 51.9191L1.44207 100.402L9.85998 100.99L9.26669 109.475L17.6846 110.063L17.0913 118.548Z" fill="#EFF0F0"/>
<path id="Union_2" fill-rule="evenodd" clip-rule="evenodd" d="M17.0913 118.548L211.03 131.386L211.623 122.901L220.041 123.49L220.635 115.005L229.052 115.594L232.443 67.1116L224.025 66.523L224.618 58.0386L216.2 57.4499L216.793 48.9655L199.958 47.7882L201.144 30.8193L209.562 31.408L210.245 22.862L201.738 22.3349L193.32 21.7463L193.913 13.2618L185.495 12.6732L184.902 21.1576L176.484 20.569L175.891 29.0534L167.473 28.4648L166.879 36.9492L158.462 36.3606L157.868 44.845L22.8547 36.1275L22.2614 44.612L13.8435 44.0233L13.2502 52.5078L4.8323 51.9191L1.44207 100.402L9.85998 100.99L9.26669 109.475L17.6846 110.063L17.0913 118.548ZM17.6846 110.063L18.2779 101.579L9.85998 100.99L13.2502 52.5078L21.6681 53.0964L22.2614 44.612L157.275 53.3295L157.868 44.845L166.286 45.4337L166.879 36.9492L175.297 37.5379L175.891 29.0534L184.308 29.6421L184.902 21.1576L193.32 21.7463L193.913 13.2618L202.331 13.8505L201.144 30.8193L192.726 30.2307L191.54 47.1996L199.958 47.7882L199.364 56.2727L216.2 57.4499L215.607 65.9344L224.025 66.523L220.635 115.005L212.217 114.417L211.623 122.901L17.6846 110.063Z" fill="#0E072D"/>
<g id="Click Me">
<path d="M40.5655 98.4529C32.2254 97.8697 28.5797 91.4739 29.1426 83.423C29.9871 71.3466 40.1384 57.874 52.9394 58.7692C56.4791 59.0167 58.7804 60.2498 60.3836 62.4089C61.0116 63.1838 61.3442 63.3046 61.8518 62.3166L63.0847 60.0147L64.3906 60.1547L59.1468 73.8242L57.8376 73.7327C59.095 66.9 58.4091 62.0758 53.8027 61.7537C45.7535 61.1909 39.4915 74.7892 38.854 83.9071C38.3893 90.5515 40.9148 93.4574 44.5999 93.7151C49.8852 94.0847 54.2513 88.7853 56.9722 83.3221L58.5723 83.4339C54.1807 92.5818 49.3419 99.0666 40.5655 98.4529Z" fill="#0E072D"/>
<path d="M76.3649 59.7249L76.9095 60.2991L64.8293 90.2073C64.1321 91.8155 63.0311 94.3216 62.9734 95.1461C62.9226 95.8736 63.148 96.133 63.6329 96.167C65.1361 96.2721 67.4595 93.7053 69.1933 90.5124L70.551 90.6074C68.2892 95.0792 64.681 99.993 59.7351 99.6471C56.147 99.3962 55.1087 97.5203 55.2579 95.3864C55.3631 93.8829 55.9914 92.5622 57.3858 89.3456L66.5294 66.5913C67.8854 63.2259 67.6376 61.8926 64.5343 61.6756L65.0138 60.3933C72.0446 60.8849 75.0984 60.4161 76.3649 59.7249Z" fill="#0E072D"/>
<path d="M84.203 70.4103C81.6816 70.2339 80.0964 68.5148 80.2626 66.1383C80.4321 63.7133 82.2412 62.2315 84.7626 62.4078C87.2355 62.5807 88.8207 64.2999 88.6511 66.7249C88.4849 69.1014 86.6759 70.5832 84.203 70.4103ZM71.5506 90.3848L74.7746 83.2998C75.6963 81.2685 76.8977 78.7208 76.9587 77.8478C76.996 77.3143 76.7672 77.1033 76.4277 77.0796C75.264 76.9982 73.5903 78.6357 71.1292 81.7777L69.82 81.6862C72.7877 76.8738 77.1253 73.3756 81.4408 73.6774C83.8652 73.8469 84.8651 75.5739 84.7363 77.4169C84.6244 79.0174 83.5922 81.2358 82.2283 84.0159L78.9941 91.2465C78.2484 92.8514 77.0053 95.2988 76.9477 96.1233C76.8968 96.8508 77.1223 97.1102 77.6072 97.1441C79.1103 97.2492 81.4337 94.6824 83.1675 91.4896L84.5252 91.5845C82.3119 96.0597 78.6552 100.97 73.7094 100.624C70.1697 100.377 69.1314 98.5009 69.2807 96.3669C69.3858 94.8634 70.1562 93.6014 71.5506 90.3848Z" fill="#0E072D"/>
<path d="M90.0694 101.866C85.463 101.544 82.5869 98.0772 82.9905 92.3057C83.5874 83.7698 91.1297 74.16 99.3243 74.733C102.622 74.9636 104.893 77.3156 104.656 80.7106C104.446 83.7175 102.549 86.4603 100.076 86.2874C98.5725 86.1823 97.7224 85.0994 97.8174 83.7414C97.9734 81.5104 100.612 81.4025 100.782 78.9775C100.856 77.9105 100.37 77.1942 99.3521 77.123C95.764 76.8721 91.4121 84.7556 90.9474 91.4C90.7168 94.698 91.358 97.3746 93.8794 97.5509C96.3523 97.7239 98.9463 95.4684 101.264 91.5854L102.574 91.6769C99.3179 98.5161 95.1123 102.218 90.0694 101.866Z" fill="#0E072D"/>
<path d="M123.547 99.528C124.905 99.623 126.693 97.7498 128.312 94.7926L129.67 94.8876C127.032 99.8692 123.762 104.124 118.816 103.778C114.549 103.48 113.698 99.6191 113.856 93.8792C113.886 92.7603 113.96 91.6933 114.097 90.4358C121.423 89.486 123.197 85.0287 123.312 83.3797C123.39 82.2643 122.929 81.8909 122.25 81.8434C120.699 81.7349 114.247 84.1105 106.399 102.277L98.6888 101.737L111.694 69.7496C113.05 66.3841 112.754 65.0475 109.65 64.8305L110.13 63.5481C115.561 63.9279 120.495 63.7368 121.53 62.8831L122.074 63.4573L110.092 91.959L110.529 91.9895C115.494 82.297 122.035 76.5647 126.98 76.9106C129.987 77.1208 131.053 79.2911 130.928 81.0855C130.728 83.947 127.86 88.7177 121.463 90.3172L121.414 90.3139C121.423 91.5816 121.621 94.3247 121.723 95.6478C121.886 98.1935 122.335 99.4433 123.547 99.528Z" fill="#0E072D"/>
<path d="M161.672 67.1522L159.619 91.6208L159.765 91.631L175.345 68.1084L191.541 69.2409L191.11 70.5266C187.861 70.2995 186.321 71.4102 185.394 74.2209L176.112 101.742C175.185 104.552 175.734 105.76 180.437 106.089L179.906 107.417L160.413 106.054L160.896 104.723C164.533 104.977 166.166 103.922 167.142 101.114L177.137 71.0604L176.846 71.0401L152.975 106.508L149.678 106.278L152.568 69.8297L152.277 69.8094L140.951 99.3804C139.881 102.132 140.191 103.275 144.41 103.57L143.878 104.897L131.271 104.016L131.754 102.685C135.391 102.939 137.166 101.942 138.19 99.1386L148.74 71.609C149.813 68.8086 149.458 67.6141 145.288 67.3225L145.767 66.0401L161.672 67.1522Z" fill="#0E072D"/>
<path d="M191.868 104.452C194.535 104.638 196.963 102.664 199.856 98.2358L201.165 98.3274C197.504 105.382 193.105 109.071 187.965 108.711C183.31 108.386 180.126 105.141 180.533 99.3215C181.16 90.3491 189.361 81.0777 197.071 81.6168C200.804 81.8779 203.083 84.1329 202.863 87.2854C202.446 93.2509 195.108 96.4418 188.598 96.8638C188.392 97.7266 188.286 98.5477 188.235 99.2752C187.991 102.767 189.589 104.292 191.868 104.452ZM196.811 83.938C193.853 83.7312 190.569 89.5936 189.077 94.8991C193.681 93.8564 197.828 90.2962 198.117 86.1737C198.215 84.7673 197.926 84.016 196.811 83.938Z" fill="#0E072D"/>
</g>
</g>
</svg>
