<svg xmlns="http://www.w3.org/2000/svg" version="1.1" viewBox="0.00 0.00 360.00 360.00">
  <g stroke-width="2.00" stroke-linecap="butt" fill="none">
    <path stroke="#9898ad" vector-effect="non-scaling-stroke"
      d="
  M 132.34 265.00
  A 0.63 0.63 0.0 0 1 132.97 265.63
  L 133.02 274.36
  A 0.63 0.63 0.0 0 0 133.65 274.99
  L 151.36 275.01
  A 0.63 0.63 0.0 0 1 151.99 275.64
  L 152.01 283.37
  A 0.63 0.63 0.0 0 0 152.64 284.00
  L 170.34 284.00
  A 0.63 0.63 0.0 0 1 170.97 284.63
  L 171.01 292.37
  A 0.63 0.63 0.0 0 0 171.64 293.00
  L 188.37 293.00
  A 0.63 0.63 0.0 0 0 189.00 292.37
  L 189.01 284.63
  A 0.63 0.63 0.0 0 1 189.64 284.00
  L 207.36 284.00
  A 0.63 0.63 0.0 0 0 207.99 283.37
  L 208.01 275.63
  A 0.63 0.63 0.0 0 1 208.64 275.00
  L 226.36 275.00
  A 0.63 0.63 0.0 0 0 226.99 274.37
  L 227.01 265.63
  A 0.63 0.63 0.0 0 1 227.64 265.00
  L 245.37 265.00
  A 0.63 0.63 0.0 0 0 246.00 264.37
  L 246.01 256.64
  A 0.63 0.63 0.0 0 1 246.64 256.01
  L 255.37 255.99
  A 0.63 0.63 0.0 0 0 256.00 255.36
  L 256.00 246.63
  A 0.63 0.63 0.0 0 1 256.63 246.00
  L 264.36 245.99
  A 0.63 0.63 0.0 0 0 264.99 245.36
  L 265.01 237.64
  A 0.63 0.63 0.0 0 1 265.64 237.01
  L 273.37 236.99
  A 0.63 0.63 0.0 0 0 274.00 236.36
  L 274.01 123.64
  A 0.63 0.63 0.0 0 0 273.38 123.01
  L 265.64 122.99
  A 0.63 0.63 0.0 0 1 265.01 122.36
  L 265.00 114.63
  A 0.63 0.63 0.0 0 0 264.37 114.00
  L 256.66 114.00
  A 0.63 0.63 0.0 0 1 256.03 113.37
  L 255.98 104.63
  A 0.63 0.63 0.0 0 0 255.35 104.00
  L 246.64 103.99
  A 0.63 0.63 0.0 0 1 246.01 103.36
  L 245.99 95.63
  A 0.63 0.63 0.0 0 0 245.36 95.00
  L 227.64 95.00
  A 0.63 0.63 0.0 0 1 227.01 94.37
  L 227.00 85.63
  A 0.63 0.63 0.0 0 0 226.37 85.00
  L 208.65 85.00
  A 0.63 0.63 0.0 0 1 208.02 84.37
  L 207.99 76.62
  A 0.63 0.63 0.0 0 0 207.36 75.99
  L 189.64 76.00
  A 0.63 0.63 0.0 0 1 189.01 75.37
  L 189.00 66.62
  A 0.63 0.63 0.0 0 0 188.37 65.99
  L 171.63 65.99
  A 0.63 0.63 0.0 0 0 171.00 66.62
  L 170.99 75.36
  A 0.63 0.63 0.0 0 1 170.36 75.99
  L 152.61 75.99
  A 0.63 0.63 0.0 0 0 151.98 76.62
  L 152.01 84.37
  A 0.63 0.63 0.0 0 1 151.38 85.00
  L 133.62 84.99
  A 0.63 0.63 0.0 0 0 132.99 85.62
  L 132.99 94.36
  A 0.63 0.63 0.0 0 1 132.36 94.99
  L 114.63 94.96
  A 0.63 0.63 0.0 0 0 114.00 95.59
  L 114.00 103.37
  A 0.63 0.63 0.0 0 1 113.37 104.00
  L 104.62 104.00
  A 0.63 0.63 0.0 0 0 103.99 104.63
  L 104.00 113.37
  A 0.63 0.63 0.0 0 1 103.37 114.00
  L 95.63 114.00
  A 0.63 0.63 0.0 0 0 95.00 114.63
  L 95.00 122.36
  A 0.63 0.63 0.0 0 1 94.37 122.99
  L 85.63 123.00
  A 0.63 0.63 0.0 0 0 85.00 123.63
  L 85.00 236.37
  A 0.63 0.63 0.0 0 0 85.63 237.00
  L 94.35 237.00
  A 0.63 0.63 0.0 0 1 94.98 237.63
  L 95.00 245.36
  A 0.63 0.63 0.0 0 0 95.63 245.99
  L 103.37 246.01
  A 0.63 0.63 0.0 0 1 104.00 246.64
  L 104.00 255.36
  A 0.63 0.63 0.0 0 0 104.63 255.99
  L 113.37 256.01
  A 0.63 0.63 0.0 0 1 114.00 256.64
  L 114.00 264.37
  A 0.63 0.63 0.0 0 0 114.63 265.00
  L 132.34 265.00"
    />
    <path stroke="#9898ad" vector-effect="non-scaling-stroke"
      d="
  M 141.31 141.98
  A 0.71 0.71 0.0 0 1 142.02 142.69
  L 142.00 160.28
  A 0.71 0.71 0.0 0 0 142.71 160.99
  L 151.29 161.00
  A 0.71 0.71 0.0 0 0 152.00 160.29
  L 151.99 142.68
  A 0.71 0.71 0.0 0 1 152.70 141.97
  L 160.30 142.01
  A 0.71 0.71 0.0 0 0 161.01 141.30
  L 161.01 133.71
  A 0.71 0.71 0.0 0 0 160.30 133.00
  L 152.68 133.01
  A 0.71 0.71 0.0 0 1 151.97 132.30
  L 152.01 114.71
  A 0.71 0.71 0.0 0 0 151.30 114.00
  L 142.71 114.00
  A 0.71 0.71 0.0 0 0 142.00 114.71
  L 142.02 132.32
  A 0.71 0.71 0.0 0 1 141.31 133.03
  L 133.72 133.00
  A 0.71 0.71 0.0 0 0 133.01 133.71
  L 133.01 141.28
  A 0.71 0.71 0.0 0 0 133.72 141.99
  L 141.31 141.98"
    />
    <path stroke="#9898ad" vector-effect="non-scaling-stroke"
      d="
  M 218.00 218.63
  A 0.63 0.63 0.0 0 1 218.63 218.00
  L 226.37 218.00
  A 0.63 0.63 0.0 0 0 227.00 217.37
  L 227.00 199.63
  A 0.63 0.63 0.0 0 1 227.63 199.00
  L 236.38 198.99
  A 0.63 0.63 0.0 0 0 237.01 198.36
  L 236.98 189.63
  A 0.63 0.63 0.0 0 1 237.61 189.00
  L 255.38 189.00
  A 0.63 0.63 0.0 0 0 256.01 188.37
  L 256.00 180.63
  A 0.63 0.63 0.0 0 0 255.37 180.00
  L 237.63 180.00
  A 0.63 0.63 0.0 0 1 237.00 179.37
  L 236.98 171.64
  A 0.63 0.63 0.0 0 0 236.35 171.01
  L 227.63 170.99
  A 0.63 0.63 0.0 0 1 227.00 170.36
  L 226.99 152.64
  A 0.63 0.63 0.0 0 0 226.36 152.01
  L 218.63 151.99
  A 0.63 0.63 0.0 0 1 218.00 151.36
  L 218.00 123.63
  A 0.63 0.63 0.0 0 0 217.37 123.00
  L 208.63 123.01
  A 0.63 0.63 0.0 0 0 208.00 123.64
  L 208.00 151.37
  A 0.63 0.63 0.0 0 1 207.37 152.00
  L 199.63 152.00
  A 0.63 0.63 0.0 0 0 199.00 152.63
  L 199.00 170.36
  A 0.63 0.63 0.0 0 1 198.37 170.99
  L 189.64 171.00
  A 0.63 0.63 0.0 0 0 189.01 171.63
  L 189.00 179.37
  A 0.63 0.63 0.0 0 1 188.37 180.00
  L 171.63 180.00
  A 0.63 0.63 0.0 0 0 171.00 180.63
  L 171.01 188.36
  A 0.63 0.63 0.0 0 0 171.64 188.99
  L 188.37 189.00
  A 0.63 0.63 0.0 0 1 189.00 189.63
  L 189.01 198.37
  A 0.63 0.63 0.0 0 0 189.64 199.00
  L 198.37 199.00
  A 0.63 0.63 0.0 0 1 199.00 199.63
  L 199.00 217.35
  A 0.63 0.63 0.0 0 0 199.63 217.98
  L 207.37 218.00
  A 0.63 0.63 0.0 0 1 208.00 218.63
  L 208.00 245.37
  A 0.63 0.63 0.0 0 0 208.63 246.00
  L 217.37 246.01
  A 0.63 0.63 0.0 0 0 218.00 245.38
  L 218.00 218.63"
    />
    <path stroke="#9898ad" vector-effect="non-scaling-stroke"
      d="
  M 133.00 227.63
  A 0.63 0.63 0.0 0 1 133.63 227.00
  L 141.38 226.99
  A 0.63 0.63 0.0 0 0 142.01 226.36
  L 141.99 218.63
  A 0.63 0.63 0.0 0 1 142.62 218.00
  L 151.37 217.99
  A 0.63 0.63 0.0 0 0 152.00 217.36
  L 152.00 208.64
  A 0.63 0.63 0.0 0 0 151.37 208.01
  L 142.64 207.99
  A 0.63 0.63 0.0 0 1 142.01 207.36
  L 141.99 199.64
  A 0.63 0.63 0.0 0 0 141.36 199.01
  L 133.64 199.00
  A 0.63 0.63 0.0 0 1 133.01 198.37
  L 132.98 180.63
  A 0.63 0.63 0.0 0 0 132.35 180.00
  L 123.64 180.00
  A 0.63 0.63 0.0 0 0 123.01 180.63
  L 123.00 198.36
  A 0.63 0.63 0.0 0 1 122.37 198.99
  L 114.64 199.01
  A 0.63 0.63 0.0 0 0 114.01 199.64
  L 114.00 207.37
  A 0.63 0.63 0.0 0 1 113.37 208.00
  L 104.63 208.01
  A 0.63 0.63 0.0 0 0 104.00 208.64
  L 104.02 217.37
  A 0.63 0.63 0.0 0 0 104.65 218.00
  L 113.37 218.00
  A 0.63 0.63 0.0 0 1 114.00 218.63
  L 113.99 226.36
  A 0.63 0.63 0.0 0 0 114.62 226.99
  L 122.37 227.00
  A 0.63 0.63 0.0 0 1 123.00 227.63
  L 123.00 245.36
  A 0.63 0.63 0.0 0 0 123.63 245.99
  L 132.36 246.01
  A 0.63 0.63 0.0 0 0 132.99 245.38
  L 133.00 227.63"
    />
  </g>
  <path fill="currentColor"
    d="
  M 313.58 19.00
  L 331.42 19.00
  A 0.58 0.58 0.0 0 1 332.00 19.58
  L 332.00 27.42
  A 0.58 0.58 0.0 0 0 332.58 28.00
  L 340.42 28.01
  A 0.58 0.58 0.0 0 1 341.00 28.59
  L 341.00 46.41
  A 0.58 0.58 0.0 0 0 341.58 46.99
  L 349.42 47.01
  A 0.58 0.58 0.0 0 1 350.00 47.59
  L 350.00 312.42
  A 0.58 0.58 0.0 0 1 349.42 313.00
  L 341.58 313.00
  A 0.58 0.58 0.0 0 0 341.00 313.58
  L 341.00 331.42
  A 0.58 0.58 0.0 0 1 340.42 332.00
  L 332.58 332.00
  A 0.58 0.58 0.0 0 0 332.00 332.58
  L 332.00 340.42
  A 0.58 0.58 0.0 0 1 331.42 341.00
  L 313.58 341.00
  A 0.58 0.58 0.0 0 0 313.00 341.58
  L 313.00 349.42
  A 0.58 0.58 0.0 0 1 312.42 350.00
  L 47.59 350.00
  A 0.58 0.58 0.0 0 1 47.01 349.42
  L 46.99 341.58
  A 0.58 0.58 0.0 0 0 46.41 341.00
  L 28.60 340.99
  A 0.58 0.58 0.0 0 1 28.02 340.41
  L 27.98 332.58
  A 0.58 0.58 0.0 0 0 27.40 332.00
  L 19.58 331.99
  A 0.58 0.58 0.0 0 1 19.00 331.41
  L 18.99 313.58
  A 0.58 0.58 0.0 0 0 18.41 313.00
  L 9.58 313.00
  A 0.58 0.58 0.0 0 1 9.00 312.42
  L 9.00 47.59
  A 0.58 0.58 0.0 0 1 9.58 47.01
  L 18.41 46.99
  A 0.58 0.58 0.0 0 0 18.99 46.41
  L 19.01 28.59
  A 0.58 0.58 0.0 0 1 19.59 28.01
  L 27.42 27.99
  A 0.58 0.58 0.0 0 0 28.00 27.41
  L 28.01 19.59
  A 0.58 0.58 0.0 0 1 28.59 19.01
  L 46.42 19.00
  A 0.58 0.58 0.0 0 0 47.00 18.42
  L 47.00 9.58
  A 0.58 0.58 0.0 0 1 47.58 9.00
  L 312.42 9.00
  A 0.58 0.58 0.0 0 1 313.00 9.58
  L 313.00 18.42
  A 0.58 0.58 0.0 0 0 313.58 19.00
  Z
  M 132.34 265.00
  A 0.63 0.63 0.0 0 1 132.97 265.63
  L 133.02 274.36
  A 0.63 0.63 0.0 0 0 133.65 274.99
  L 151.36 275.01
  A 0.63 0.63 0.0 0 1 151.99 275.64
  L 152.01 283.37
  A 0.63 0.63 0.0 0 0 152.64 284.00
  L 170.34 284.00
  A 0.63 0.63 0.0 0 1 170.97 284.63
  L 171.01 292.37
  A 0.63 0.63 0.0 0 0 171.64 293.00
  L 188.37 293.00
  A 0.63 0.63 0.0 0 0 189.00 292.37
  L 189.01 284.63
  A 0.63 0.63 0.0 0 1 189.64 284.00
  L 207.36 284.00
  A 0.63 0.63 0.0 0 0 207.99 283.37
  L 208.01 275.63
  A 0.63 0.63 0.0 0 1 208.64 275.00
  L 226.36 275.00
  A 0.63 0.63 0.0 0 0 226.99 274.37
  L 227.01 265.63
  A 0.63 0.63 0.0 0 1 227.64 265.00
  L 245.37 265.00
  A 0.63 0.63 0.0 0 0 246.00 264.37
  L 246.01 256.64
  A 0.63 0.63 0.0 0 1 246.64 256.01
  L 255.37 255.99
  A 0.63 0.63 0.0 0 0 256.00 255.36
  L 256.00 246.63
  A 0.63 0.63 0.0 0 1 256.63 246.00
  L 264.36 245.99
  A 0.63 0.63 0.0 0 0 264.99 245.36
  L 265.01 237.64
  A 0.63 0.63 0.0 0 1 265.64 237.01
  L 273.37 236.99
  A 0.63 0.63 0.0 0 0 274.00 236.36
  L 274.01 123.64
  A 0.63 0.63 0.0 0 0 273.38 123.01
  L 265.64 122.99
  A 0.63 0.63 0.0 0 1 265.01 122.36
  L 265.00 114.63
  A 0.63 0.63 0.0 0 0 264.37 114.00
  L 256.66 114.00
  A 0.63 0.63 0.0 0 1 256.03 113.37
  L 255.98 104.63
  A 0.63 0.63 0.0 0 0 255.35 104.00
  L 246.64 103.99
  A 0.63 0.63 0.0 0 1 246.01 103.36
  L 245.99 95.63
  A 0.63 0.63 0.0 0 0 245.36 95.00
  L 227.64 95.00
  A 0.63 0.63 0.0 0 1 227.01 94.37
  L 227.00 85.63
  A 0.63 0.63 0.0 0 0 226.37 85.00
  L 208.65 85.00
  A 0.63 0.63 0.0 0 1 208.02 84.37
  L 207.99 76.62
  A 0.63 0.63 0.0 0 0 207.36 75.99
  L 189.64 76.00
  A 0.63 0.63 0.0 0 1 189.01 75.37
  L 189.00 66.62
  A 0.63 0.63 0.0 0 0 188.37 65.99
  L 171.63 65.99
  A 0.63 0.63 0.0 0 0 171.00 66.62
  L 170.99 75.36
  A 0.63 0.63 0.0 0 1 170.36 75.99
  L 152.61 75.99
  A 0.63 0.63 0.0 0 0 151.98 76.62
  L 152.01 84.37
  A 0.63 0.63 0.0 0 1 151.38 85.00
  L 133.62 84.99
  A 0.63 0.63 0.0 0 0 132.99 85.62
  L 132.99 94.36
  A 0.63 0.63 0.0 0 1 132.36 94.99
  L 114.63 94.96
  A 0.63 0.63 0.0 0 0 114.00 95.59
  L 114.00 103.37
  A 0.63 0.63 0.0 0 1 113.37 104.00
  L 104.62 104.00
  A 0.63 0.63 0.0 0 0 103.99 104.63
  L 104.00 113.37
  A 0.63 0.63 0.0 0 1 103.37 114.00
  L 95.63 114.00
  A 0.63 0.63 0.0 0 0 95.00 114.63
  L 95.00 122.36
  A 0.63 0.63 0.0 0 1 94.37 122.99
  L 85.63 123.00
  A 0.63 0.63 0.0 0 0 85.00 123.63
  L 85.00 236.37
  A 0.63 0.63 0.0 0 0 85.63 237.00
  L 94.35 237.00
  A 0.63 0.63 0.0 0 1 94.98 237.63
  L 95.00 245.36
  A 0.63 0.63 0.0 0 0 95.63 245.99
  L 103.37 246.01
  A 0.63 0.63 0.0 0 1 104.00 246.64
  L 104.00 255.36
  A 0.63 0.63 0.0 0 0 104.63 255.99
  L 113.37 256.01
  A 0.63 0.63 0.0 0 1 114.00 256.64
  L 114.00 264.37
  A 0.63 0.63 0.0 0 0 114.63 265.00
  L 132.34 265.00
  Z"
  />
  <path fill="#ffffff"
    d="
  M 132.34 265.00
  L 114.63 265.00
  A 0.63 0.63 0.0 0 1 114.00 264.37
  L 114.00 256.64
  A 0.63 0.63 0.0 0 0 113.37 256.01
  L 104.63 255.99
  A 0.63 0.63 0.0 0 1 104.00 255.36
  L 104.00 246.64
  A 0.63 0.63 0.0 0 0 103.37 246.01
  L 95.63 245.99
  A 0.63 0.63 0.0 0 1 95.00 245.36
  L 94.98 237.63
  A 0.63 0.63 0.0 0 0 94.35 237.00
  L 85.63 237.00
  A 0.63 0.63 0.0 0 1 85.00 236.37
  L 85.00 123.63
  A 0.63 0.63 0.0 0 1 85.63 123.00
  L 94.37 122.99
  A 0.63 0.63 0.0 0 0 95.00 122.36
  L 95.00 114.63
  A 0.63 0.63 0.0 0 1 95.63 114.00
  L 103.37 114.00
  A 0.63 0.63 0.0 0 0 104.00 113.37
  L 103.99 104.63
  A 0.63 0.63 0.0 0 1 104.62 104.00
  L 113.37 104.00
  A 0.63 0.63 0.0 0 0 114.00 103.37
  L 114.00 95.59
  A 0.63 0.63 0.0 0 1 114.63 94.96
  L 132.36 94.99
  A 0.63 0.63 0.0 0 0 132.99 94.36
  L 132.99 85.62
  A 0.63 0.63 0.0 0 1 133.62 84.99
  L 151.38 85.00
  A 0.63 0.63 0.0 0 0 152.01 84.37
  L 151.98 76.62
  A 0.63 0.63 0.0 0 1 152.61 75.99
  L 170.36 75.99
  A 0.63 0.63 0.0 0 0 170.99 75.36
  L 171.00 66.62
  A 0.63 0.63 0.0 0 1 171.63 65.99
  L 188.37 65.99
  A 0.63 0.63 0.0 0 1 189.00 66.62
  L 189.01 75.37
  A 0.63 0.63 0.0 0 0 189.64 76.00
  L 207.36 75.99
  A 0.63 0.63 0.0 0 1 207.99 76.62
  L 208.02 84.37
  A 0.63 0.63 0.0 0 0 208.65 85.00
  L 226.37 85.00
  A 0.63 0.63 0.0 0 1 227.00 85.63
  L 227.01 94.37
  A 0.63 0.63 0.0 0 0 227.64 95.00
  L 245.36 95.00
  A 0.63 0.63 0.0 0 1 245.99 95.63
  L 246.01 103.36
  A 0.63 0.63 0.0 0 0 246.64 103.99
  L 255.35 104.00
  A 0.63 0.63 0.0 0 1 255.98 104.63
  L 256.03 113.37
  A 0.63 0.63 0.0 0 0 256.66 114.00
  L 264.37 114.00
  A 0.63 0.63 0.0 0 1 265.00 114.63
  L 265.01 122.36
  A 0.63 0.63 0.0 0 0 265.64 122.99
  L 273.38 123.01
  A 0.63 0.63 0.0 0 1 274.01 123.64
  L 274.00 236.36
  A 0.63 0.63 0.0 0 1 273.37 236.99
  L 265.64 237.01
  A 0.63 0.63 0.0 0 0 265.01 237.64
  L 264.99 245.36
  A 0.63 0.63 0.0 0 1 264.36 245.99
  L 256.63 246.00
  A 0.63 0.63 0.0 0 0 256.00 246.63
  L 256.00 255.36
  A 0.63 0.63 0.0 0 1 255.37 255.99
  L 246.64 256.01
  A 0.63 0.63 0.0 0 0 246.01 256.64
  L 246.00 264.37
  A 0.63 0.63 0.0 0 1 245.37 265.00
  L 227.64 265.00
  A 0.63 0.63 0.0 0 0 227.01 265.63
  L 226.99 274.37
  A 0.63 0.63 0.0 0 1 226.36 275.00
  L 208.64 275.00
  A 0.63 0.63 0.0 0 0 208.01 275.63
  L 207.99 283.37
  A 0.63 0.63 0.0 0 1 207.36 284.00
  L 189.64 284.00
  A 0.63 0.63 0.0 0 0 189.01 284.63
  L 189.00 292.37
  A 0.63 0.63 0.0 0 1 188.37 293.00
  L 171.64 293.00
  A 0.63 0.63 0.0 0 1 171.01 292.37
  L 170.97 284.63
  A 0.63 0.63 0.0 0 0 170.34 284.00
  L 152.64 284.00
  A 0.63 0.63 0.0 0 1 152.01 283.37
  L 151.99 275.64
  A 0.63 0.63 0.0 0 0 151.36 275.01
  L 133.65 274.99
  A 0.63 0.63 0.0 0 1 133.02 274.36
  L 132.97 265.63
  A 0.63 0.63 0.0 0 0 132.34 265.00
  Z
  M 141.31 141.98
  A 0.71 0.71 0.0 0 1 142.02 142.69
  L 142.00 160.28
  A 0.71 0.71 0.0 0 0 142.71 160.99
  L 151.29 161.00
  A 0.71 0.71 0.0 0 0 152.00 160.29
  L 151.99 142.68
  A 0.71 0.71 0.0 0 1 152.70 141.97
  L 160.30 142.01
  A 0.71 0.71 0.0 0 0 161.01 141.30
  L 161.01 133.71
  A 0.71 0.71 0.0 0 0 160.30 133.00
  L 152.68 133.01
  A 0.71 0.71 0.0 0 1 151.97 132.30
  L 152.01 114.71
  A 0.71 0.71 0.0 0 0 151.30 114.00
  L 142.71 114.00
  A 0.71 0.71 0.0 0 0 142.00 114.71
  L 142.02 132.32
  A 0.71 0.71 0.0 0 1 141.31 133.03
  L 133.72 133.00
  A 0.71 0.71 0.0 0 0 133.01 133.71
  L 133.01 141.28
  A 0.71 0.71 0.0 0 0 133.72 141.99
  L 141.31 141.98
  Z
  M 218.00 218.63
  A 0.63 0.63 0.0 0 1 218.63 218.00
  L 226.37 218.00
  A 0.63 0.63 0.0 0 0 227.00 217.37
  L 227.00 199.63
  A 0.63 0.63 0.0 0 1 227.63 199.00
  L 236.38 198.99
  A 0.63 0.63 0.0 0 0 237.01 198.36
  L 236.98 189.63
  A 0.63 0.63 0.0 0 1 237.61 189.00
  L 255.38 189.00
  A 0.63 0.63 0.0 0 0 256.01 188.37
  L 256.00 180.63
  A 0.63 0.63 0.0 0 0 255.37 180.00
  L 237.63 180.00
  A 0.63 0.63 0.0 0 1 237.00 179.37
  L 236.98 171.64
  A 0.63 0.63 0.0 0 0 236.35 171.01
  L 227.63 170.99
  A 0.63 0.63 0.0 0 1 227.00 170.36
  L 226.99 152.64
  A 0.63 0.63 0.0 0 0 226.36 152.01
  L 218.63 151.99
  A 0.63 0.63 0.0 0 1 218.00 151.36
  L 218.00 123.63
  A 0.63 0.63 0.0 0 0 217.37 123.00
  L 208.63 123.01
  A 0.63 0.63 0.0 0 0 208.00 123.64
  L 208.00 151.37
  A 0.63 0.63 0.0 0 1 207.37 152.00
  L 199.63 152.00
  A 0.63 0.63 0.0 0 0 199.00 152.63
  L 199.00 170.36
  A 0.63 0.63 0.0 0 1 198.37 170.99
  L 189.64 171.00
  A 0.63 0.63 0.0 0 0 189.01 171.63
  L 189.00 179.37
  A 0.63 0.63 0.0 0 1 188.37 180.00
  L 171.63 180.00
  A 0.63 0.63 0.0 0 0 171.00 180.63
  L 171.01 188.36
  A 0.63 0.63 0.0 0 0 171.64 188.99
  L 188.37 189.00
  A 0.63 0.63 0.0 0 1 189.00 189.63
  L 189.01 198.37
  A 0.63 0.63 0.0 0 0 189.64 199.00
  L 198.37 199.00
  A 0.63 0.63 0.0 0 1 199.00 199.63
  L 199.00 217.35
  A 0.63 0.63 0.0 0 0 199.63 217.98
  L 207.37 218.00
  A 0.63 0.63 0.0 0 1 208.00 218.63
  L 208.00 245.37
  A 0.63 0.63 0.0 0 0 208.63 246.00
  L 217.37 246.01
  A 0.63 0.63 0.0 0 0 218.00 245.38
  L 218.00 218.63
  Z
  M 133.00 227.63
  A 0.63 0.63 0.0 0 1 133.63 227.00
  L 141.38 226.99
  A 0.63 0.63 0.0 0 0 142.01 226.36
  L 141.99 218.63
  A 0.63 0.63 0.0 0 1 142.62 218.00
  L 151.37 217.99
  A 0.63 0.63 0.0 0 0 152.00 217.36
  L 152.00 208.64
  A 0.63 0.63 0.0 0 0 151.37 208.01
  L 142.64 207.99
  A 0.63 0.63 0.0 0 1 142.01 207.36
  L 141.99 199.64
  A 0.63 0.63 0.0 0 0 141.36 199.01
  L 133.64 199.00
  A 0.63 0.63 0.0 0 1 133.01 198.37
  L 132.98 180.63
  A 0.63 0.63 0.0 0 0 132.35 180.00
  L 123.64 180.00
  A 0.63 0.63 0.0 0 0 123.01 180.63
  L 123.00 198.36
  A 0.63 0.63 0.0 0 1 122.37 198.99
  L 114.64 199.01
  A 0.63 0.63 0.0 0 0 114.01 199.64
  L 114.00 207.37
  A 0.63 0.63 0.0 0 1 113.37 208.00
  L 104.63 208.01
  A 0.63 0.63 0.0 0 0 104.00 208.64
  L 104.02 217.37
  A 0.63 0.63 0.0 0 0 104.65 218.00
  L 113.37 218.00
  A 0.63 0.63 0.0 0 1 114.00 218.63
  L 113.99 226.36
  A 0.63 0.63 0.0 0 0 114.62 226.99
  L 122.37 227.00
  A 0.63 0.63 0.0 0 1 123.00 227.63
  L 123.00 245.36
  A 0.63 0.63 0.0 0 0 123.63 245.99
  L 132.36 246.01
  A 0.63 0.63 0.0 0 0 132.99 245.38
  L 133.00 227.63
  Z"
  />
  <path fill="currentColor"
    d="
  M 141.31 141.98
  L 133.72 141.99
  A 0.71 0.71 0.0 0 1 133.01 141.28
  L 133.01 133.71
  A 0.71 0.71 0.0 0 1 133.72 133.00
  L 141.31 133.03
  A 0.71 0.71 0.0 0 0 142.02 132.32
  L 142.00 114.71
  A 0.71 0.71 0.0 0 1 142.71 114.00
  L 151.30 114.00
  A 0.71 0.71 0.0 0 1 152.01 114.71
  L 151.97 132.30
  A 0.71 0.71 0.0 0 0 152.68 133.01
  L 160.30 133.00
  A 0.71 0.71 0.0 0 1 161.01 133.71
  L 161.01 141.30
  A 0.71 0.71 0.0 0 1 160.30 142.01
  L 152.70 141.97
  A 0.71 0.71 0.0 0 0 151.99 142.68
  L 152.00 160.29
  A 0.71 0.71 0.0 0 1 151.29 161.00
  L 142.71 160.99
  A 0.71 0.71 0.0 0 1 142.00 160.28
  L 142.02 142.69
  A 0.71 0.71 0.0 0 0 141.31 141.98
  Z"
  />
  <path fill="currentColor"
    d="
  M 218.00 218.63
  L 218.00 245.38
  A 0.63 0.63 0.0 0 1 217.37 246.01
  L 208.63 246.00
  A 0.63 0.63 0.0 0 1 208.00 245.37
  L 208.00 218.63
  A 0.63 0.63 0.0 0 0 207.37 218.00
  L 199.63 217.98
  A 0.63 0.63 0.0 0 1 199.00 217.35
  L 199.00 199.63
  A 0.63 0.63 0.0 0 0 198.37 199.00
  L 189.64 199.00
  A 0.63 0.63 0.0 0 1 189.01 198.37
  L 189.00 189.63
  A 0.63 0.63 0.0 0 0 188.37 189.00
  L 171.64 188.99
  A 0.63 0.63 0.0 0 1 171.01 188.36
  L 171.00 180.63
  A 0.63 0.63 0.0 0 1 171.63 180.00
  L 188.37 180.00
  A 0.63 0.63 0.0 0 0 189.00 179.37
  L 189.01 171.63
  A 0.63 0.63 0.0 0 1 189.64 171.00
  L 198.37 170.99
  A 0.63 0.63 0.0 0 0 199.00 170.36
  L 199.00 152.63
  A 0.63 0.63 0.0 0 1 199.63 152.00
  L 207.37 152.00
  A 0.63 0.63 0.0 0 0 208.00 151.37
  L 208.00 123.64
  A 0.63 0.63 0.0 0 1 208.63 123.01
  L 217.37 123.00
  A 0.63 0.63 0.0 0 1 218.00 123.63
  L 218.00 151.36
  A 0.63 0.63 0.0 0 0 218.63 151.99
  L 226.36 152.01
  A 0.63 0.63 0.0 0 1 226.99 152.64
  L 227.00 170.36
  A 0.63 0.63 0.0 0 0 227.63 170.99
  L 236.35 171.01
  A 0.63 0.63 0.0 0 1 236.98 171.64
  L 237.00 179.37
  A 0.63 0.63 0.0 0 0 237.63 180.00
  L 255.37 180.00
  A 0.63 0.63 0.0 0 1 256.00 180.63
  L 256.01 188.37
  A 0.63 0.63 0.0 0 1 255.38 189.00
  L 237.61 189.00
  A 0.63 0.63 0.0 0 0 236.98 189.63
  L 237.01 198.36
  A 0.63 0.63 0.0 0 1 236.38 198.99
  L 227.63 199.00
  A 0.63 0.63 0.0 0 0 227.00 199.63
  L 227.00 217.37
  A 0.63 0.63 0.0 0 1 226.37 218.00
  L 218.63 218.00
  A 0.63 0.63 0.0 0 0 218.00 218.63
  Z"
  />
  <path fill="currentColor"
    d="
  M 133.00 227.63
  L 132.99 245.38
  A 0.63 0.63 0.0 0 1 132.36 246.01
  L 123.63 245.99
  A 0.63 0.63 0.0 0 1 123.00 245.36
  L 123.00 227.63
  A 0.63 0.63 0.0 0 0 122.37 227.00
  L 114.62 226.99
  A 0.63 0.63 0.0 0 1 113.99 226.36
  L 114.00 218.63
  A 0.63 0.63 0.0 0 0 113.37 218.00
  L 104.65 218.00
  A 0.63 0.63 0.0 0 1 104.02 217.37
  L 104.00 208.64
  A 0.63 0.63 0.0 0 1 104.63 208.01
  L 113.37 208.00
  A 0.63 0.63 0.0 0 0 114.00 207.37
  L 114.01 199.64
  A 0.63 0.63 0.0 0 1 114.64 199.01
  L 122.37 198.99
  A 0.63 0.63 0.0 0 0 123.00 198.36
  L 123.01 180.63
  A 0.63 0.63 0.0 0 1 123.64 180.00
  L 132.35 180.00
  A 0.63 0.63 0.0 0 1 132.98 180.63
  L 133.01 198.37
  A 0.63 0.63 0.0 0 0 133.64 199.00
  L 141.36 199.01
  A 0.63 0.63 0.0 0 1 141.99 199.64
  L 142.01 207.36
  A 0.63 0.63 0.0 0 0 142.64 207.99
  L 151.37 208.01
  A 0.63 0.63 0.0 0 1 152.00 208.64
  L 152.00 217.36
  A 0.63 0.63 0.0 0 1 151.37 217.99
  L 142.62 218.00
  A 0.63 0.63 0.0 0 0 141.99 218.63
  L 142.01 226.36
  A 0.63 0.63 0.0 0 1 141.38 226.99
  L 133.63 227.00
  A 0.63 0.63 0.0 0 0 133.00 227.63
  Z"
  />
</svg>