<svg xmlns="http://www.w3.org/2000/svg" version="1.1" viewBox="0.00 0.00 360.00 360.00">
  <g stroke-width="2.00" fill="none" stroke-linecap="butt">
    <path stroke="#9898ad" vector-effect="non-scaling-stroke"
      d="
  M 294.01 114.01
  L 294.01 105.96
  A 0.96 0.95 90.0 0 1 294.96 105.00
  L 303.25 105.00
  Q 304.00 105.00 304.00 104.25
  L 304.00 95.75
  Q 304.00 95.00 303.25 95.00
  L 285.51 95.00
  A 0.49 0.49 0.0 0 0 285.02 95.49
  L 285.01 104.49
  A 0.50 0.50 0.0 0 1 284.51 104.99
  L 276.52 104.99
  A 0.50 0.49 0.0 0 1 276.02 104.50
  L 275.98 95.30
  A 0.30 0.29 90.0 0 0 275.69 95.00
  L 257.75 94.99
  A 0.74 0.74 0.0 0 1 257.01 94.25
  L 257.00 86.50
  Q 257.00 85.99 256.50 85.99
  L 219.50 86.00
  Q 219.00 86.00 219.00 86.50
  L 218.99 94.25
  A 0.74 0.74 0.0 0 1 218.25 94.99
  L 200.25 95.00
  A 0.25 0.25 0.0 0 0 200.00 95.25
  L 200.00 113.25
  A 0.75 0.74 0.0 0 1 199.25 113.99
  L 190.50 114.00
  Q 190.00 114.00 190.00 114.50
  L 190.00 151.25
  A 0.75 0.75 0.0 0 1 189.25 152.00
  L 171.63 152.00
  Q 171.02 152.00 171.02 151.38
  L 171.00 142.49
  A 0.51 0.51 0.0 0 0 170.49 141.98
  L 152.70 142.00
  A 0.66 0.65 -0.4 0 1 152.04 141.36
  L 151.98 133.74
  Q 151.98 133.00 151.24 133.00
  L 133.63 133.00
  Q 133.02 133.00 133.02 132.38
  L 132.99 124.62
  A 0.62 0.62 0.0 0 0 132.37 124.00
  L 115.63 124.00
  Q 115.01 124.00 115.01 123.38
  L 115.00 114.50
  Q 115.00 113.99 114.50 113.99
  L 105.63 114.00
  Q 105.02 114.00 105.02 113.38
  L 104.99 105.50
  Q 104.99 105.00 104.50 105.00
  L 96.75 105.00
  A 0.75 0.74 -90.0 0 1 96.01 104.25
  L 95.99 95.29
  A 0.29 0.29 0.0 0 0 95.70 95.00
  L 86.25 95.00
  Q 86.00 95.00 86.00 95.25
  L 86.00 132.37
  Q 86.00 132.99 86.62 132.99
  L 95.25 133.01
  A 0.75 0.74 -0.0 0 1 96.00 133.75
  L 96.00 151.25
  A 0.75 0.74 -0.0 0 0 96.75 151.99
  L 104.00 152.01
  A 1.00 0.99 89.7 0 1 104.99 153.00
  L 105.02 159.99
  A 1.01 1.01 0.0 0 1 104.01 161.00
  L 86.50 161.00
  Q 86.00 161.00 86.00 161.50
  L 86.01 170.50
  A 0.49 0.48 0.0 0 0 86.50 170.98
  L 95.25 171.01
  A 0.74 0.74 0.0 0 1 95.99 171.75
  L 96.01 179.50
  A 0.49 0.49 0.0 0 0 96.50 179.99
  L 104.37 180.01
  A 0.62 0.61 -0.0 0 1 104.99 180.62
  L 105.00 189.50
  Q 105.00 190.00 105.50 190.00
  L 114.25 190.00
  A 0.75 0.74 -90.0 0 1 114.99 190.75
  L 115.00 198.50
  Q 115.00 198.99 115.50 198.99
  L 123.25 199.01
  A 0.75 0.74 -0.0 0 1 124.00 199.75
  L 124.00 208.37
  A 0.63 0.62 -90.0 0 1 123.38 209.00
  L 96.75 209.00
  Q 95.99 209.00 95.99 209.75
  L 96.01 217.25
  Q 96.01 217.99 96.75 217.99
  L 104.25 218.01
  Q 104.99 218.01 104.99 218.75
  L 105.00 227.37
  A 0.62 0.62 0.0 0 0 105.62 227.99
  L 114.25 228.01
  A 0.75 0.74 89.6 0 1 114.99 228.75
  L 115.01 236.50
  Q 115.01 237.00 115.50 237.00
  L 131.75 237.00
  Q 133.00 237.00 133.00 238.25
  L 133.01 245.99
  Q 133.01 246.99 132.01 246.99
  L 124.50 247.00
  Q 124.00 247.00 124.00 247.50
  L 124.00 255.00
  A 1.00 0.99 -0.0 0 1 123.00 255.99
  L 77.25 256.00
  A 0.26 0.25 0.0 0 0 76.99 256.25
  L 77.01 265.69
  A 0.30 0.30 0.0 0 0 77.31 265.99
  L 95.50 266.01
  A 0.49 0.49 0.0 0 1 95.99 266.50
  L 96.00 274.50
  A 0.50 0.50 0.0 0 0 96.50 275.00
  L 114.36 275.00
  A 0.61 0.61 0.0 0 1 114.97 275.61
  L 115.01 283.51
  A 0.50 0.49 0.0 0 0 115.51 284.00
  L 189.37 284.00
  Q 190.00 284.00 190.00 283.38
  L 190.00 275.75
  A 0.75 0.75 0.0 0 1 190.75 275.00
  L 218.25 275.00
  A 0.75 0.75 0.0 0 0 219.00 274.25
  L 219.00 266.75
  Q 219.00 266.00 219.75 266.00
  L 237.25 266.00
  Q 238.00 266.00 238.00 265.25
  L 238.00 256.50
  A 0.50 0.50 0.0 0 1 238.50 256.01
  L 246.50 255.99
  A 0.50 0.50 0.0 0 0 247.00 255.50
  L 247.01 247.75
  Q 247.01 247.00 247.75 247.00
  L 256.50 247.00
  A 0.50 0.49 -90.0 0 0 256.99 246.50
  L 257.01 237.50
  A 0.49 0.49 0.0 0 1 257.50 237.01
  L 265.25 236.99
  A 0.74 0.74 0.0 0 0 265.99 236.25
  L 266.00 218.75
  Q 266.00 218.01 266.75 218.00
  L 275.25 218.00
  A 0.76 0.75 -0.4 0 0 276.00 217.25
  L 276.00 190.75
  A 0.75 0.74 0.0 0 1 276.75 190.01
  L 284.25 189.99
  A 0.75 0.74 0.0 0 0 285.00 189.25
  L 285.00 142.75
  Q 285.00 142.01 285.75 142.01
  L 293.25 141.99
  A 0.75 0.74 0.0 0 0 294.00 141.25
  L 294.00 124.50
  A 0.50 0.50 0.0 0 1 294.50 124.00
  L 303.50 123.99
  A 0.49 0.49 0.0 0 0 303.99 123.50
  L 304.00 114.51
  A 0.47 0.47 0.0 0 0 303.53 114.04
  L 294.01 114.01"
    />
    <path stroke="#9898ad" vector-effect="non-scaling-stroke"
      d="
  M 294.01 114.01
  L 285.41 114.04
  A 0.42 0.42 0.0 0 0 284.99 114.46
  L 285.02 123.66
  A 0.33 0.33 0.0 0 0 285.35 123.99
  L 293.48 124.00
  Q 294.04 124.00 294.04 123.44
  L 294.01 114.01"
    />
  </g>
  <path fill="currentColor"
    d="
  M 313.58 19.00
  L 331.42 19.00
  A 0.58 0.58 0.0 0 1 332.00 19.58
  L 332.00 27.42
  A 0.58 0.58 0.0 0 0 332.58 28.00
  L 340.42 28.01
  A 0.58 0.58 0.0 0 1 341.00 28.59
  L 341.00 46.41
  A 0.58 0.58 0.0 0 0 341.58 46.99
  L 349.42 47.01
  A 0.58 0.58 0.0 0 1 350.00 47.59
  L 350.00 312.42
  A 0.58 0.58 0.0 0 1 349.42 313.00
  L 341.58 313.00
  A 0.58 0.58 0.0 0 0 341.00 313.58
  L 341.00 331.42
  A 0.58 0.58 0.0 0 1 340.42 332.00
  L 332.58 332.00
  A 0.58 0.58 0.0 0 0 332.00 332.58
  L 332.00 340.42
  A 0.58 0.58 0.0 0 1 331.42 341.00
  L 313.58 341.00
  A 0.58 0.58 0.0 0 0 313.00 341.58
  L 313.00 349.42
  A 0.58 0.58 0.0 0 1 312.42 350.00
  L 47.59 350.00
  A 0.58 0.58 0.0 0 1 47.01 349.42
  L 46.99 341.58
  A 0.58 0.58 0.0 0 0 46.41 341.00
  L 28.60 340.99
  A 0.58 0.58 0.0 0 1 28.02 340.41
  L 27.98 332.58
  A 0.58 0.58 0.0 0 0 27.40 332.00
  L 19.58 331.99
  A 0.58 0.58 0.0 0 1 19.00 331.41
  L 18.99 313.58
  A 0.58 0.58 0.0 0 0 18.41 313.00
  L 9.58 313.00
  A 0.58 0.58 0.0 0 1 9.00 312.42
  L 9.00 47.59
  A 0.58 0.58 0.0 0 1 9.58 47.01
  L 18.41 46.99
  A 0.58 0.58 0.0 0 0 18.99 46.41
  L 19.01 28.59
  A 0.58 0.58 0.0 0 1 19.59 28.01
  L 27.42 27.99
  A 0.58 0.58 0.0 0 0 28.00 27.41
  L 28.01 19.59
  A 0.58 0.58 0.0 0 1 28.59 19.01
  L 46.42 19.00
  A 0.58 0.58 0.0 0 0 47.00 18.42
  L 47.00 9.58
  A 0.58 0.58 0.0 0 1 47.58 9.00
  L 312.42 9.00
  A 0.58 0.58 0.0 0 1 313.00 9.58
  L 313.00 18.42
  A 0.58 0.58 0.0 0 0 313.58 19.00
  Z
  M 294.01 114.01
  L 294.01 105.96
  A 0.96 0.95 90.0 0 1 294.96 105.00
  L 303.25 105.00
  Q 304.00 105.00 304.00 104.25
  L 304.00 95.75
  Q 304.00 95.00 303.25 95.00
  L 285.51 95.00
  A 0.49 0.49 0.0 0 0 285.02 95.49
  L 285.01 104.49
  A 0.50 0.50 0.0 0 1 284.51 104.99
  L 276.52 104.99
  A 0.50 0.49 0.0 0 1 276.02 104.50
  L 275.98 95.30
  A 0.30 0.29 90.0 0 0 275.69 95.00
  L 257.75 94.99
  A 0.74 0.74 0.0 0 1 257.01 94.25
  L 257.00 86.50
  Q 257.00 85.99 256.50 85.99
  L 219.50 86.00
  Q 219.00 86.00 219.00 86.50
  L 218.99 94.25
  A 0.74 0.74 0.0 0 1 218.25 94.99
  L 200.25 95.00
  A 0.25 0.25 0.0 0 0 200.00 95.25
  L 200.00 113.25
  A 0.75 0.74 0.0 0 1 199.25 113.99
  L 190.50 114.00
  Q 190.00 114.00 190.00 114.50
  L 190.00 151.25
  A 0.75 0.75 0.0 0 1 189.25 152.00
  L 171.63 152.00
  Q 171.02 152.00 171.02 151.38
  L 171.00 142.49
  A 0.51 0.51 0.0 0 0 170.49 141.98
  L 152.70 142.00
  A 0.66 0.65 -0.4 0 1 152.04 141.36
  L 151.98 133.74
  Q 151.98 133.00 151.24 133.00
  L 133.63 133.00
  Q 133.02 133.00 133.02 132.38
  L 132.99 124.62
  A 0.62 0.62 0.0 0 0 132.37 124.00
  L 115.63 124.00
  Q 115.01 124.00 115.01 123.38
  L 115.00 114.50
  Q 115.00 113.99 114.50 113.99
  L 105.63 114.00
  Q 105.02 114.00 105.02 113.38
  L 104.99 105.50
  Q 104.99 105.00 104.50 105.00
  L 96.75 105.00
  A 0.75 0.74 -90.0 0 1 96.01 104.25
  L 95.99 95.29
  A 0.29 0.29 0.0 0 0 95.70 95.00
  L 86.25 95.00
  Q 86.00 95.00 86.00 95.25
  L 86.00 132.37
  Q 86.00 132.99 86.62 132.99
  L 95.25 133.01
  A 0.75 0.74 -0.0 0 1 96.00 133.75
  L 96.00 151.25
  A 0.75 0.74 -0.0 0 0 96.75 151.99
  L 104.00 152.01
  A 1.00 0.99 89.7 0 1 104.99 153.00
  L 105.02 159.99
  A 1.01 1.01 0.0 0 1 104.01 161.00
  L 86.50 161.00
  Q 86.00 161.00 86.00 161.50
  L 86.01 170.50
  A 0.49 0.48 0.0 0 0 86.50 170.98
  L 95.25 171.01
  A 0.74 0.74 0.0 0 1 95.99 171.75
  L 96.01 179.50
  A 0.49 0.49 0.0 0 0 96.50 179.99
  L 104.37 180.01
  A 0.62 0.61 -0.0 0 1 104.99 180.62
  L 105.00 189.50
  Q 105.00 190.00 105.50 190.00
  L 114.25 190.00
  A 0.75 0.74 -90.0 0 1 114.99 190.75
  L 115.00 198.50
  Q 115.00 198.99 115.50 198.99
  L 123.25 199.01
  A 0.75 0.74 -0.0 0 1 124.00 199.75
  L 124.00 208.37
  A 0.63 0.62 -90.0 0 1 123.38 209.00
  L 96.75 209.00
  Q 95.99 209.00 95.99 209.75
  L 96.01 217.25
  Q 96.01 217.99 96.75 217.99
  L 104.25 218.01
  Q 104.99 218.01 104.99 218.75
  L 105.00 227.37
  A 0.62 0.62 0.0 0 0 105.62 227.99
  L 114.25 228.01
  A 0.75 0.74 89.6 0 1 114.99 228.75
  L 115.01 236.50
  Q 115.01 237.00 115.50 237.00
  L 131.75 237.00
  Q 133.00 237.00 133.00 238.25
  L 133.01 245.99
  Q 133.01 246.99 132.01 246.99
  L 124.50 247.00
  Q 124.00 247.00 124.00 247.50
  L 124.00 255.00
  A 1.00 0.99 -0.0 0 1 123.00 255.99
  L 77.25 256.00
  A 0.26 0.25 0.0 0 0 76.99 256.25
  L 77.01 265.69
  A 0.30 0.30 0.0 0 0 77.31 265.99
  L 95.50 266.01
  A 0.49 0.49 0.0 0 1 95.99 266.50
  L 96.00 274.50
  A 0.50 0.50 0.0 0 0 96.50 275.00
  L 114.36 275.00
  A 0.61 0.61 0.0 0 1 114.97 275.61
  L 115.01 283.51
  A 0.50 0.49 0.0 0 0 115.51 284.00
  L 189.37 284.00
  Q 190.00 284.00 190.00 283.38
  L 190.00 275.75
  A 0.75 0.75 0.0 0 1 190.75 275.00
  L 218.25 275.00
  A 0.75 0.75 0.0 0 0 219.00 274.25
  L 219.00 266.75
  Q 219.00 266.00 219.75 266.00
  L 237.25 266.00
  Q 238.00 266.00 238.00 265.25
  L 238.00 256.50
  A 0.50 0.50 0.0 0 1 238.50 256.01
  L 246.50 255.99
  A 0.50 0.50 0.0 0 0 247.00 255.50
  L 247.01 247.75
  Q 247.01 247.00 247.75 247.00
  L 256.50 247.00
  A 0.50 0.49 -90.0 0 0 256.99 246.50
  L 257.01 237.50
  A 0.49 0.49 0.0 0 1 257.50 237.01
  L 265.25 236.99
  A 0.74 0.74 0.0 0 0 265.99 236.25
  L 266.00 218.75
  Q 266.00 218.01 266.75 218.00
  L 275.25 218.00
  A 0.76 0.75 -0.4 0 0 276.00 217.25
  L 276.00 190.75
  A 0.75 0.74 0.0 0 1 276.75 190.01
  L 284.25 189.99
  A 0.75 0.74 0.0 0 0 285.00 189.25
  L 285.00 142.75
  Q 285.00 142.01 285.75 142.01
  L 293.25 141.99
  A 0.75 0.74 0.0 0 0 294.00 141.25
  L 294.00 124.50
  A 0.50 0.50 0.0 0 1 294.50 124.00
  L 303.50 123.99
  A 0.49 0.49 0.0 0 0 303.99 123.50
  L 304.00 114.51
  A 0.47 0.47 0.0 0 0 303.53 114.04
  L 294.01 114.01
  Z"
  />
  <path fill="#ffffff"
    d="
  M 294.01 114.01
  L 285.41 114.04
  A 0.42 0.42 0.0 0 0 284.99 114.46
  L 285.02 123.66
  A 0.33 0.33 0.0 0 0 285.35 123.99
  L 293.48 124.00
  Q 294.04 124.00 294.04 123.44
  L 294.01 114.01
  L 303.53 114.04
  A 0.47 0.47 0.0 0 1 304.00 114.51
  L 303.99 123.50
  A 0.49 0.49 0.0 0 1 303.50 123.99
  L 294.50 124.00
  A 0.50 0.50 0.0 0 0 294.00 124.50
  L 294.00 141.25
  A 0.75 0.74 0.0 0 1 293.25 141.99
  L 285.75 142.01
  Q 285.00 142.01 285.00 142.75
  L 285.00 189.25
  A 0.75 0.74 0.0 0 1 284.25 189.99
  L 276.75 190.01
  A 0.75 0.74 0.0 0 0 276.00 190.75
  L 276.00 217.25
  A 0.76 0.75 -0.4 0 1 275.25 218.00
  L 266.75 218.00
  Q 266.00 218.01 266.00 218.75
  L 265.99 236.25
  A 0.74 0.74 0.0 0 1 265.25 236.99
  L 257.50 237.01
  A 0.49 0.49 0.0 0 0 257.01 237.50
  L 256.99 246.50
  A 0.50 0.49 -90.0 0 1 256.50 247.00
  L 247.75 247.00
  Q 247.01 247.00 247.01 247.75
  L 247.00 255.50
  A 0.50 0.50 0.0 0 1 246.50 255.99
  L 238.50 256.01
  A 0.50 0.50 0.0 0 0 238.00 256.50
  L 238.00 265.25
  Q 238.00 266.00 237.25 266.00
  L 219.75 266.00
  Q 219.00 266.00 219.00 266.75
  L 219.00 274.25
  A 0.75 0.75 0.0 0 1 218.25 275.00
  L 190.75 275.00
  A 0.75 0.75 0.0 0 0 190.00 275.75
  L 190.00 283.38
  Q 190.00 284.00 189.37 284.00
  L 115.51 284.00
  A 0.50 0.49 0.0 0 1 115.01 283.51
  L 114.97 275.61
  A 0.61 0.61 0.0 0 0 114.36 275.00
  L 96.50 275.00
  A 0.50 0.50 0.0 0 1 96.00 274.50
  L 95.99 266.50
  A 0.49 0.49 0.0 0 0 95.50 266.01
  L 77.31 265.99
  A 0.30 0.30 0.0 0 1 77.01 265.69
  L 76.99 256.25
  A 0.26 0.25 0.0 0 1 77.25 256.00
  L 123.00 255.99
  A 1.00 0.99 0.0 0 0 124.00 255.00
  L 124.00 247.50
  Q 124.00 247.00 124.50 247.00
  L 132.01 246.99
  Q 133.01 246.99 133.01 245.99
  L 133.00 238.25
  Q 133.00 237.00 131.75 237.00
  L 115.50 237.00
  Q 115.01 237.00 115.01 236.50
  L 114.99 228.75
  A 0.75 0.74 89.6 0 0 114.25 228.01
  L 105.62 227.99
  A 0.62 0.62 0.0 0 1 105.00 227.37
  L 104.99 218.75
  Q 104.99 218.01 104.25 218.01
  L 96.75 217.99
  Q 96.01 217.99 96.01 217.25
  L 95.99 209.75
  Q 95.99 209.00 96.75 209.00
  L 123.38 209.00
  A 0.63 0.62 90.0 0 0 124.00 208.37
  L 124.00 199.75
  A 0.75 0.74 -0.0 0 0 123.25 199.01
  L 115.50 198.99
  Q 115.00 198.99 115.00 198.50
  L 114.99 190.75
  A 0.75 0.74 90.0 0 0 114.25 190.00
  L 105.50 190.00
  Q 105.00 190.00 105.00 189.50
  L 104.99 180.62
  A 0.62 0.61 0.0 0 0 104.37 180.01
  L 96.50 179.99
  A 0.49 0.49 0.0 0 1 96.01 179.50
  L 95.99 171.75
  A 0.74 0.74 0.0 0 0 95.25 171.01
  L 86.50 170.98
  A 0.49 0.48 0.0 0 1 86.01 170.50
  L 86.00 161.50
  Q 86.00 161.00 86.50 161.00
  L 104.01 161.00
  A 1.01 1.01 0.0 0 0 105.02 159.99
  L 104.99 153.00
  A 1.00 0.99 89.7 0 0 104.00 152.01
  L 96.75 151.99
  A 0.75 0.74 -0.0 0 1 96.00 151.25
  L 96.00 133.75
  A 0.75 0.74 -0.0 0 0 95.25 133.01
  L 86.62 132.99
  Q 86.00 132.99 86.00 132.37
  L 86.00 95.25
  Q 86.00 95.00 86.25 95.00
  L 95.70 95.00
  A 0.29 0.29 0.0 0 1 95.99 95.29
  L 96.01 104.25
  A 0.75 0.74 90.0 0 0 96.75 105.00
  L 104.50 105.00
  Q 104.99 105.00 104.99 105.50
  L 105.02 113.38
  Q 105.02 114.00 105.63 114.00
  L 114.50 113.99
  Q 115.00 113.99 115.00 114.50
  L 115.01 123.38
  Q 115.01 124.00 115.63 124.00
  L 132.37 124.00
  A 0.62 0.62 0.0 0 1 132.99 124.62
  L 133.02 132.38
  Q 133.02 133.00 133.63 133.00
  L 151.24 133.00
  Q 151.98 133.00 151.98 133.74
  L 152.04 141.36
  A 0.66 0.65 -0.4 0 0 152.70 142.00
  L 170.49 141.98
  A 0.51 0.51 0.0 0 1 171.00 142.49
  L 171.02 151.38
  Q 171.02 152.00 171.63 152.00
  L 189.25 152.00
  A 0.75 0.75 0.0 0 0 190.00 151.25
  L 190.00 114.50
  Q 190.00 114.00 190.50 114.00
  L 199.25 113.99
  A 0.75 0.74 -0.0 0 0 200.00 113.25
  L 200.00 95.25
  A 0.25 0.25 0.0 0 1 200.25 95.00
  L 218.25 94.99
  A 0.74 0.74 0.0 0 0 218.99 94.25
  L 219.00 86.50
  Q 219.00 86.00 219.50 86.00
  L 256.50 85.99
  Q 257.00 85.99 257.00 86.50
  L 257.01 94.25
  A 0.74 0.74 0.0 0 0 257.75 94.99
  L 275.69 95.00
  A 0.30 0.29 -90.0 0 1 275.98 95.30
  L 276.02 104.50
  A 0.50 0.49 0.0 0 0 276.52 104.99
  L 284.51 104.99
  A 0.50 0.50 0.0 0 0 285.01 104.49
  L 285.02 95.49
  A 0.49 0.49 0.0 0 1 285.51 95.00
  L 303.25 95.00
  Q 304.00 95.00 304.00 95.75
  L 304.00 104.25
  Q 304.00 105.00 303.25 105.00
  L 294.96 105.00
  A 0.96 0.95 90.0 0 0 294.01 105.96
  L 294.01 114.01
  Z"
  />
  <path fill="currentColor"
    d="
  M 294.01 114.01
  L 294.04 123.44
  Q 294.04 124.00 293.48 124.00
  L 285.35 123.99
  A 0.33 0.33 0.0 0 1 285.02 123.66
  L 284.99 114.46
  A 0.42 0.42 0.0 0 1 285.41 114.04
  L 294.01 114.01
  Z"
  />
</svg>