<svg xmlns="http://www.w3.org/2000/svg" version="1.1" viewBox="0.00 0.00 360.00 360.00">
  <g stroke-width="2.00" fill="none" stroke-linecap="butt">
    <path stroke="#9898ad" vector-effect="non-scaling-stroke"
      d="
  M 132.34 171.01
  A 0.63 0.63 0.0 0 1 132.96 171.63
  L 133.02 179.37
  A 0.63 0.63 0.0 0 0 133.64 179.99
  L 142.36 180.01
  A 0.63 0.63 0.0 0 1 142.99 180.64
  L 143.00 189.36
  A 0.63 0.63 0.0 0 0 143.63 189.99
  L 151.38 190.01
  A 0.63 0.63 0.0 0 1 152.01 190.64
  L 152.01 198.36
  A 0.63 0.63 0.0 0 1 151.38 198.99
  L 143.62 199.00
  A 0.63 0.63 0.0 0 0 142.99 199.63
  L 143.00 208.36
  A 0.63 0.63 0.0 0 1 142.37 208.99
  L 133.62 209.00
  A 0.63 0.63 0.0 0 0 132.99 209.63
  L 133.00 217.37
  A 0.63 0.63 0.0 0 1 132.37 218.00
  L 124.62 218.00
  A 0.63 0.63 0.0 0 0 123.99 218.63
  L 124.01 227.37
  A 0.63 0.63 0.0 0 1 123.38 228.00
  L 114.62 228.00
  A 0.63 0.63 0.0 0 0 113.99 228.63
  L 114.01 236.36
  A 0.63 0.63 0.0 0 1 113.38 236.99
  L 105.62 237.00
  A 0.63 0.63 0.0 0 0 104.99 237.63
  L 105.01 246.36
  A 0.63 0.63 0.0 0 1 104.38 246.99
  L 95.62 247.00
  A 0.63 0.63 0.0 0 0 94.99 247.63
  L 95.00 255.36
  A 0.63 0.63 0.0 0 1 94.37 255.99
  L 86.63 256.00
  A 0.63 0.63 0.0 0 0 86.00 256.63
  L 86.00 265.37
  A 0.63 0.63 0.0 0 0 86.63 266.00
  L 104.37 266.00
  A 0.63 0.63 0.0 0 0 105.00 265.37
  L 105.00 256.63
  A 0.63 0.63 0.0 0 1 105.63 256.00
  L 113.36 255.99
  A 0.63 0.63 0.0 0 0 113.99 255.36
  L 114.01 247.63
  A 0.63 0.63 0.0 0 1 114.64 247.00
  L 123.37 247.00
  A 0.63 0.63 0.0 0 0 124.00 246.37
  L 124.01 237.64
  A 0.63 0.63 0.0 0 1 124.64 237.01
  L 132.37 236.99
  A 0.63 0.63 0.0 0 0 133.00 236.36
  L 133.00 228.63
  A 0.63 0.63 0.0 0 1 133.63 228.00
  L 142.37 227.99
  A 0.63 0.63 0.0 0 0 143.00 227.36
  L 143.01 218.64
  A 0.63 0.63 0.0 0 1 143.64 218.01
  L 151.36 217.99
  A 0.63 0.63 0.0 0 0 151.99 217.36
  L 152.01 209.63
  A 0.63 0.63 0.0 0 1 152.64 209.00
  L 170.34 209.00
  A 0.63 0.63 0.0 0 1 170.97 209.63
  L 171.01 217.36
  A 0.63 0.63 0.0 0 0 171.64 217.99
  L 179.37 218.01
  A 0.63 0.63 0.0 0 1 180.00 218.64
  L 180.00 227.36
  A 0.63 0.63 0.0 0 0 180.63 227.99
  L 189.37 228.01
  A 0.63 0.63 0.0 0 1 190.00 228.64
  L 190.00 236.36
  A 0.63 0.63 0.0 0 0 190.63 236.99
  L 198.35 237.01
  A 0.63 0.63 0.0 0 1 198.98 237.64
  L 199.01 246.37
  A 0.63 0.63 0.0 0 0 199.64 247.00
  L 208.34 247.00
  A 0.63 0.63 0.0 0 1 208.97 247.63
  L 209.01 255.36
  A 0.63 0.63 0.0 0 0 209.64 255.99
  L 217.36 256.02
  A 0.63 0.63 0.0 0 1 217.99 256.65
  L 218.01 265.37
  A 0.63 0.63 0.0 0 0 218.64 266.00
  L 303.37 266.00
  A 0.63 0.63 0.0 0 0 304.00 265.37
  L 304.00 256.64
  A 0.63 0.63 0.0 0 0 303.37 256.01
  L 294.64 255.99
  A 0.63 0.63 0.0 0 1 294.01 255.36
  L 293.99 247.63
  A 0.63 0.63 0.0 0 0 293.36 247.00
  L 285.63 247.00
  A 0.63 0.63 0.0 0 1 285.00 246.37
  L 285.00 237.63
  A 0.63 0.63 0.0 0 0 284.37 237.00
  L 275.64 237.00
  A 0.63 0.63 0.0 0 1 275.01 236.37
  L 275.00 228.63
  A 0.63 0.63 0.0 0 0 274.37 228.00
  L 266.64 227.99
  A 0.63 0.63 0.0 0 1 266.01 227.36
  L 265.99 218.63
  A 0.63 0.63 0.0 0 0 265.36 218.00
  L 256.66 218.00
  A 0.63 0.63 0.0 0 1 256.03 217.37
  L 255.98 209.63
  A 0.63 0.63 0.0 0 0 255.35 209.00
  L 247.63 209.00
  A 0.63 0.63 0.0 0 1 247.00 208.37
  L 247.00 199.63
  A 0.63 0.63 0.0 0 0 246.37 199.00
  L 237.64 199.00
  A 0.63 0.63 0.0 0 1 237.01 198.37
  L 237.00 190.63
  A 0.63 0.63 0.0 0 0 236.37 190.00
  L 228.65 190.00
  A 0.63 0.63 0.0 0 1 228.02 189.37
  L 227.99 180.63
  A 0.63 0.63 0.0 0 0 227.36 180.00
  L 218.64 180.00
  A 0.63 0.63 0.0 0 1 218.01 179.37
  L 217.99 171.64
  A 0.63 0.63 0.0 0 0 217.36 171.01
  L 209.65 170.99
  A 0.63 0.63 0.0 0 1 209.02 170.36
  L 209.00 162.64
  A 0.63 0.63 0.0 0 1 209.63 162.01
  L 217.36 161.99
  A 0.63 0.63 0.0 0 0 217.99 161.36
  L 218.01 152.64
  A 0.63 0.63 0.0 0 1 218.64 152.01
  L 227.36 151.99
  A 0.63 0.63 0.0 0 0 227.99 151.36
  L 228.01 143.64
  A 0.63 0.63 0.0 0 1 228.64 143.01
  L 236.37 142.99
  A 0.63 0.63 0.0 0 0 237.00 142.36
  L 237.01 133.63
  A 0.63 0.63 0.0 0 1 237.64 133.00
  L 246.37 132.99
  A 0.63 0.63 0.0 0 0 247.00 132.36
  L 247.00 124.64
  A 0.63 0.63 0.0 0 1 247.63 124.01
  L 255.36 123.99
  A 0.63 0.63 0.0 0 0 255.99 123.36
  L 256.02 114.64
  A 0.63 0.63 0.0 0 1 256.65 114.01
  L 265.36 113.99
  A 0.63 0.63 0.0 0 0 265.99 113.36
  L 266.02 105.65
  A 0.63 0.63 0.0 0 1 266.65 105.02
  L 274.37 104.99
  A 0.63 0.63 0.0 0 0 275.00 104.36
  L 275.01 95.63
  A 0.63 0.63 0.0 0 0 274.38 95.00
  L 256.63 94.99
  A 0.63 0.63 0.0 0 0 256.00 95.62
  L 256.00 104.36
  A 0.63 0.63 0.0 0 1 255.37 104.99
  L 247.62 105.00
  A 0.63 0.63 0.0 0 0 246.99 105.63
  L 247.00 113.37
  A 0.63 0.63 0.0 0 1 246.37 114.00
  L 237.64 114.00
  A 0.63 0.63 0.0 0 0 237.01 114.63
  L 236.99 123.37
  A 0.63 0.63 0.0 0 1 236.36 124.00
  L 228.62 124.00
  A 0.63 0.63 0.0 0 0 227.99 124.63
  L 228.00 132.37
  A 0.63 0.63 0.0 0 1 227.37 133.00
  L 218.63 133.00
  A 0.63 0.63 0.0 0 0 218.00 133.63
  L 218.00 142.36
  A 0.63 0.63 0.0 0 1 217.37 142.99
  L 209.63 143.00
  A 0.63 0.63 0.0 0 0 209.00 143.63
  L 209.00 151.37
  A 0.63 0.63 0.0 0 1 208.37 152.00
  L 190.66 152.00
  A 0.63 0.63 0.0 0 1 190.03 151.37
  L 189.99 143.63
  A 0.63 0.63 0.0 0 0 189.36 143.00
  L 180.62 143.00
  A 0.63 0.63 0.0 0 1 179.99 142.37
  L 180.00 133.63
  A 0.63 0.63 0.0 0 0 179.37 133.00
  L 171.64 133.00
  A 0.63 0.63 0.0 0 1 171.01 132.37
  L 171.00 124.63
  A 0.63 0.63 0.0 0 0 170.37 124.00
  L 162.64 123.99
  A 0.63 0.63 0.0 0 1 162.01 123.36
  L 161.99 114.63
  A 0.63 0.63 0.0 0 0 161.36 114.00
  L 152.66 114.00
  A 0.63 0.63 0.0 0 1 152.03 113.37
  L 151.98 105.63
  A 0.63 0.63 0.0 0 0 151.35 105.00
  L 143.64 105.00
  A 0.63 0.63 0.0 0 1 143.01 104.37
  L 143.00 95.64
  A 0.63 0.63 0.0 0 0 142.37 95.01
  L 57.63 95.00
  A 0.63 0.63 0.0 0 0 57.00 95.63
  L 57.00 104.37
  A 0.63 0.63 0.0 0 0 57.63 105.00
  L 66.35 105.00
  A 0.63 0.63 0.0 0 1 66.98 105.63
  L 67.00 113.36
  A 0.63 0.63 0.0 0 0 67.63 113.99
  L 75.37 114.01
  A 0.63 0.63 0.0 0 1 76.00 114.64
  L 76.00 123.37
  A 0.63 0.63 0.0 0 0 76.63 124.00
  L 85.37 124.01
  A 0.63 0.63 0.0 0 1 86.00 124.64
  L 86.00 132.37
  A 0.63 0.63 0.0 0 0 86.63 133.00
  L 94.36 133.00
  A 0.63 0.63 0.0 0 1 94.99 133.63
  L 95.01 142.37
  A 0.63 0.63 0.0 0 0 95.64 143.00
  L 104.34 143.00
  A 0.63 0.63 0.0 0 1 104.97 143.63
  L 105.01 151.36
  A 0.63 0.63 0.0 0 0 105.64 151.99
  L 113.37 152.01
  A 0.63 0.63 0.0 0 1 114.00 152.64
  L 114.00 161.36
  A 0.63 0.63 0.0 0 0 114.63 161.99
  L 123.37 162.01
  A 0.63 0.63 0.0 0 1 124.00 162.64
  L 124.00 170.36
  A 0.63 0.63 0.0 0 0 124.63 170.99
  L 132.34 171.01"
    />
    <path stroke="#9898ad" vector-effect="non-scaling-stroke"
      d="
  M 208.31 228.00
  A 0.69 0.69 0.0 0 1 209.00 228.69
  L 209.01 236.31
  A 0.69 0.69 0.0 0 0 209.70 237.00
  L 217.31 237.00
  A 0.69 0.69 0.0 0 1 218.00 237.69
  L 218.00 246.30
  A 0.69 0.69 0.0 0 0 218.69 246.99
  L 265.32 247.01
  A 0.69 0.69 0.0 0 0 266.01 246.32
  L 266.00 237.70
  A 0.69 0.69 0.0 0 0 265.31 237.01
  L 256.69 236.99
  A 0.69 0.69 0.0 0 1 256.00 236.30
  L 255.99 228.70
  A 0.69 0.69 0.0 0 0 255.30 228.01
  L 247.69 227.99
  A 0.69 0.69 0.0 0 1 247.00 227.30
  L 246.98 218.69
  A 0.69 0.69 0.0 0 0 246.29 218.00
  L 237.70 217.99
  A 0.69 0.69 0.0 0 1 237.01 217.30
  L 236.98 209.70
  A 0.69 0.69 0.0 0 0 236.29 209.01
  L 228.69 208.99
  A 0.69 0.69 0.0 0 1 228.00 208.30
  L 228.00 199.70
  A 0.69 0.69 0.0 0 0 227.31 199.01
  L 218.69 198.99
  A 0.69 0.69 0.0 0 1 218.00 198.30
  L 217.99 190.70
  A 0.69 0.69 0.0 0 0 217.30 190.01
  L 209.70 189.99
  A 0.69 0.69 0.0 0 1 209.01 189.30
  L 208.99 180.70
  A 0.69 0.69 0.0 0 0 208.30 180.01
  L 199.70 179.99
  A 0.69 0.69 0.0 0 1 199.02 179.31
  L 198.97 171.69
  A 0.69 0.69 0.0 0 0 198.29 171.01
  L 190.69 170.99
  A 0.69 0.69 0.0 0 1 190.00 170.30
  L 189.99 162.70
  A 0.69 0.69 0.0 0 0 189.30 162.01
  L 180.69 161.99
  A 0.69 0.69 0.0 0 1 180.00 161.30
  L 179.99 152.70
  A 0.69 0.69 0.0 0 0 179.30 152.01
  L 171.70 151.99
  A 0.69 0.69 0.0 0 1 171.01 151.30
  L 170.98 143.70
  A 0.69 0.69 0.0 0 0 170.29 143.01
  L 162.69 142.99
  A 0.69 0.69 0.0 0 1 162.00 142.30
  L 162.00 133.69
  A 0.69 0.69 0.0 0 0 161.31 133.00
  L 152.69 132.99
  A 0.69 0.69 0.0 0 1 152.00 132.30
  L 151.99 124.70
  A 0.69 0.69 0.0 0 0 151.30 124.01
  L 143.70 123.99
  A 0.69 0.69 0.0 0 1 143.01 123.30
  L 142.98 114.69
  A 0.69 0.69 0.0 0 0 142.29 114.00
  L 95.69 114.00
  A 0.69 0.69 0.0 0 0 95.00 114.69
  L 95.01 123.30
  A 0.69 0.69 0.0 0 0 95.70 123.99
  L 104.30 124.00
  A 0.69 0.69 0.0 0 1 104.99 124.69
  L 105.01 132.31
  A 0.69 0.69 0.0 0 0 105.70 133.00
  L 113.31 133.00
  A 0.69 0.69 0.0 0 1 114.00 133.69
  L 114.00 142.30
  A 0.69 0.69 0.0 0 0 114.69 142.99
  L 123.30 143.00
  A 0.69 0.69 0.0 0 1 123.99 143.69
  L 124.02 151.31
  A 0.69 0.69 0.0 0 0 124.71 152.00
  L 132.31 152.00
  A 0.69 0.69 0.0 0 1 133.00 152.69
  L 133.01 161.31
  A 0.69 0.69 0.0 0 0 133.70 162.00
  L 142.30 162.00
  A 0.69 0.69 0.0 0 1 142.99 162.69
  L 143.01 170.31
  A 0.69 0.69 0.0 0 0 143.70 171.00
  L 151.29 171.00
  A 0.69 0.69 0.0 0 1 151.98 171.69
  L 152.03 179.31
  A 0.69 0.69 0.0 0 0 152.72 180.00
  L 161.29 180.00
  A 0.69 0.69 0.0 0 1 161.98 180.69
  L 162.03 189.31
  A 0.69 0.69 0.0 0 0 162.72 190.00
  L 170.31 190.00
  A 0.69 0.69 0.0 0 1 171.00 190.69
  L 171.01 198.31
  A 0.69 0.69 0.0 0 0 171.70 199.00
  L 179.31 199.00
  A 0.69 0.69 0.0 0 1 180.00 199.69
  L 179.99 208.30
  A 0.69 0.69 0.0 0 0 180.68 208.99
  L 189.30 209.00
  A 0.69 0.69 0.0 0 1 189.99 209.69
  L 190.02 217.31
  A 0.69 0.69 0.0 0 0 190.71 218.00
  L 198.31 218.00
  A 0.69 0.69 0.0 0 1 199.00 218.69
  L 199.01 227.30
  A 0.69 0.69 0.0 0 0 199.70 227.99
  L 208.31 228.00"
    />
  </g>
  <path fill="currentColor"
    d="
  M 323.53 95.00
  L 331.47 95.01
  A 0.53 0.53 0.0 0 1 332.00 95.54
  L 332.00 113.47
  A 0.53 0.53 0.0 0 0 332.53 114.00
  L 341.47 114.00
  A 0.53 0.53 0.0 0 1 342.00 114.53
  L 342.00 142.46
  A 0.53 0.53 0.0 0 0 342.53 142.99
  L 350.47 143.01
  A 0.53 0.53 0.0 0 1 351.00 143.54
  L 351.00 217.47
  A 0.53 0.53 0.0 0 1 350.47 218.00
  L 342.53 218.00
  A 0.53 0.53 0.0 0 0 342.00 218.53
  L 342.00 246.47
  A 0.53 0.53 0.0 0 1 341.47 247.00
  L 332.53 247.00
  A 0.53 0.53 0.0 0 0 332.00 247.53
  L 332.00 265.47
  A 0.53 0.53 0.0 0 1 331.47 266.00
  L 323.53 266.00
  A 0.53 0.53 0.0 0 0 323.00 266.53
  L 323.00 284.47
  A 0.53 0.53 0.0 0 1 322.47 285.00
  L 313.53 285.00
  A 0.53 0.53 0.0 0 0 313.00 285.53
  L 313.00 293.47
  A 0.53 0.53 0.0 0 1 312.47 294.00
  L 304.53 294.00
  A 0.53 0.53 0.0 0 0 304.00 294.53
  L 304.00 303.47
  A 0.53 0.53 0.0 0 1 303.47 304.00
  L 294.53 304.00
  A 0.53 0.53 0.0 0 0 294.00 304.53
  L 294.00 312.47
  A 0.53 0.53 0.0 0 1 293.47 313.00
  L 285.53 313.00
  A 0.53 0.53 0.0 0 0 285.00 313.53
  L 285.00 322.47
  A 0.53 0.53 0.0 0 1 284.47 323.00
  L 266.53 323.00
  A 0.53 0.53 0.0 0 0 266.00 323.53
  L 266.00 331.47
  A 0.53 0.53 0.0 0 1 265.47 332.00
  L 247.53 332.00
  A 0.53 0.53 0.0 0 0 247.00 332.53
  L 247.00 341.47
  A 0.53 0.53 0.0 0 1 246.47 342.00
  L 218.53 342.00
  A 0.53 0.53 0.0 0 0 218.00 342.53
  L 218.00 350.47
  A 0.53 0.53 0.0 0 1 217.47 351.00
  L 143.54 351.00
  A 0.53 0.53 0.0 0 1 143.01 350.47
  L 142.99 342.53
  A 0.53 0.53 0.0 0 0 142.46 342.00
  L 114.54 342.00
  A 0.53 0.53 0.0 0 1 114.01 341.47
  L 113.99 332.53
  A 0.53 0.53 0.0 0 0 113.46 332.00
  L 95.54 332.00
  A 0.53 0.53 0.0 0 1 95.01 331.47
  L 94.99 323.53
  A 0.53 0.53 0.0 0 0 94.46 323.00
  L 76.54 322.99
  A 0.53 0.53 0.0 0 1 76.01 322.46
  L 75.99 313.53
  A 0.53 0.53 0.0 0 0 75.46 313.00
  L 67.54 313.00
  A 0.53 0.53 0.0 0 1 67.01 312.47
  L 66.99 304.53
  A 0.53 0.53 0.0 0 0 66.46 304.00
  L 57.54 303.99
  A 0.53 0.53 0.0 0 1 57.01 303.46
  L 56.99 294.53
  A 0.53 0.53 0.0 0 0 56.46 294.00
  L 48.53 294.00
  A 0.53 0.53 0.0 0 1 48.00 293.47
  L 48.00 285.54
  A 0.53 0.53 0.0 0 0 47.47 285.01
  L 38.53 284.99
  A 0.53 0.53 0.0 0 1 38.00 284.46
  L 37.99 266.52
  A 0.53 0.53 0.0 0 0 37.46 265.99
  L 29.54 265.99
  A 0.53 0.53 0.0 0 1 29.01 265.46
  L 28.99 247.53
  A 0.53 0.53 0.0 0 0 28.46 247.00
  L 19.54 246.99
  A 0.53 0.53 0.0 0 1 19.01 246.46
  L 18.99 218.53
  A 0.53 0.53 0.0 0 0 18.46 218.00
  L 10.53 218.00
  A 0.53 0.53 0.0 0 1 10.00 217.47
  L 10.01 143.56
  A 0.53 0.53 0.0 0 1 10.54 143.03
  L 18.46 142.99
  A 0.53 0.53 0.0 0 0 18.99 142.46
  L 19.02 114.54
  A 0.53 0.53 0.0 0 1 19.55 114.01
  L 28.46 113.99
  A 0.53 0.53 0.0 0 0 28.99 113.46
  L 29.03 95.54
  A 0.53 0.53 0.0 0 1 29.56 95.01
  L 37.47 94.99
  A 0.53 0.53 0.0 0 0 38.00 94.46
  L 38.01 76.54
  A 0.53 0.53 0.0 0 1 38.54 76.01
  L 47.47 76.00
  A 0.53 0.53 0.0 0 0 48.00 75.47
  L 48.00 67.54
  A 0.53 0.53 0.0 0 1 48.53 67.01
  L 56.46 66.99
  A 0.53 0.53 0.0 0 0 56.99 66.46
  L 57.01 57.54
  A 0.53 0.53 0.0 0 1 57.54 57.01
  L 66.47 57.00
  A 0.53 0.53 0.0 0 0 67.00 56.47
  L 67.01 48.54
  A 0.53 0.53 0.0 0 1 67.54 48.01
  L 75.47 48.00
  A 0.53 0.53 0.0 0 0 76.00 47.47
  L 76.01 38.53
  A 0.53 0.53 0.0 0 1 76.54 38.00
  L 94.46 38.00
  A 0.53 0.53 0.0 0 0 94.99 37.47
  L 95.01 29.54
  A 0.53 0.53 0.0 0 1 95.54 29.01
  L 113.46 28.99
  A 0.53 0.53 0.0 0 0 113.99 28.46
  L 114.01 19.55
  A 0.53 0.53 0.0 0 1 114.54 19.02
  L 142.46 18.99
  A 0.53 0.53 0.0 0 0 142.99 18.46
  L 143.00 10.54
  A 0.53 0.53 0.0 0 1 143.53 10.01
  L 217.47 9.99
  A 0.53 0.53 0.0 0 1 218.00 10.52
  L 218.00 18.47
  A 0.53 0.53 0.0 0 0 218.53 19.00
  L 246.47 19.00
  A 0.53 0.53 0.0 0 1 247.00 19.53
  L 247.01 28.47
  A 0.53 0.53 0.0 0 0 247.54 29.00
  L 265.47 29.00
  A 0.53 0.53 0.0 0 1 266.00 29.53
  L 266.00 37.47
  A 0.53 0.53 0.0 0 0 266.53 38.00
  L 284.47 38.00
  A 0.53 0.53 0.0 0 1 285.00 38.53
  L 285.00 47.47
  A 0.53 0.53 0.0 0 0 285.53 48.00
  L 293.47 48.00
  A 0.53 0.53 0.0 0 1 294.00 48.53
  L 294.01 56.47
  A 0.53 0.53 0.0 0 0 294.54 57.00
  L 303.47 57.00
  A 0.53 0.53 0.0 0 1 304.00 57.53
  L 304.00 66.47
  A 0.53 0.53 0.0 0 0 304.53 67.00
  L 312.46 67.01
  A 0.53 0.53 0.0 0 1 312.99 67.54
  L 313.01 75.46
  A 0.53 0.53 0.0 0 0 313.54 75.99
  L 322.47 76.01
  A 0.53 0.53 0.0 0 1 323.00 76.54
  L 323.00 94.47
  A 0.53 0.53 0.0 0 0 323.53 95.00
  Z
  M 132.34 171.01
  A 0.63 0.63 0.0 0 1 132.96 171.63
  L 133.02 179.37
  A 0.63 0.63 0.0 0 0 133.64 179.99
  L 142.36 180.01
  A 0.63 0.63 0.0 0 1 142.99 180.64
  L 143.00 189.36
  A 0.63 0.63 0.0 0 0 143.63 189.99
  L 151.38 190.01
  A 0.63 0.63 0.0 0 1 152.01 190.64
  L 152.01 198.36
  A 0.63 0.63 0.0 0 1 151.38 198.99
  L 143.62 199.00
  A 0.63 0.63 0.0 0 0 142.99 199.63
  L 143.00 208.36
  A 0.63 0.63 0.0 0 1 142.37 208.99
  L 133.62 209.00
  A 0.63 0.63 0.0 0 0 132.99 209.63
  L 133.00 217.37
  A 0.63 0.63 0.0 0 1 132.37 218.00
  L 124.62 218.00
  A 0.63 0.63 0.0 0 0 123.99 218.63
  L 124.01 227.37
  A 0.63 0.63 0.0 0 1 123.38 228.00
  L 114.62 228.00
  A 0.63 0.63 0.0 0 0 113.99 228.63
  L 114.01 236.36
  A 0.63 0.63 0.0 0 1 113.38 236.99
  L 105.62 237.00
  A 0.63 0.63 0.0 0 0 104.99 237.63
  L 105.01 246.36
  A 0.63 0.63 0.0 0 1 104.38 246.99
  L 95.62 247.00
  A 0.63 0.63 0.0 0 0 94.99 247.63
  L 95.00 255.36
  A 0.63 0.63 0.0 0 1 94.37 255.99
  L 86.63 256.00
  A 0.63 0.63 0.0 0 0 86.00 256.63
  L 86.00 265.37
  A 0.63 0.63 0.0 0 0 86.63 266.00
  L 104.37 266.00
  A 0.63 0.63 0.0 0 0 105.00 265.37
  L 105.00 256.63
  A 0.63 0.63 0.0 0 1 105.63 256.00
  L 113.36 255.99
  A 0.63 0.63 0.0 0 0 113.99 255.36
  L 114.01 247.63
  A 0.63 0.63 0.0 0 1 114.64 247.00
  L 123.37 247.00
  A 0.63 0.63 0.0 0 0 124.00 246.37
  L 124.01 237.64
  A 0.63 0.63 0.0 0 1 124.64 237.01
  L 132.37 236.99
  A 0.63 0.63 0.0 0 0 133.00 236.36
  L 133.00 228.63
  A 0.63 0.63 0.0 0 1 133.63 228.00
  L 142.37 227.99
  A 0.63 0.63 0.0 0 0 143.00 227.36
  L 143.01 218.64
  A 0.63 0.63 0.0 0 1 143.64 218.01
  L 151.36 217.99
  A 0.63 0.63 0.0 0 0 151.99 217.36
  L 152.01 209.63
  A 0.63 0.63 0.0 0 1 152.64 209.00
  L 170.34 209.00
  A 0.63 0.63 0.0 0 1 170.97 209.63
  L 171.01 217.36
  A 0.63 0.63 0.0 0 0 171.64 217.99
  L 179.37 218.01
  A 0.63 0.63 0.0 0 1 180.00 218.64
  L 180.00 227.36
  A 0.63 0.63 0.0 0 0 180.63 227.99
  L 189.37 228.01
  A 0.63 0.63 0.0 0 1 190.00 228.64
  L 190.00 236.36
  A 0.63 0.63 0.0 0 0 190.63 236.99
  L 198.35 237.01
  A 0.63 0.63 0.0 0 1 198.98 237.64
  L 199.01 246.37
  A 0.63 0.63 0.0 0 0 199.64 247.00
  L 208.34 247.00
  A 0.63 0.63 0.0 0 1 208.97 247.63
  L 209.01 255.36
  A 0.63 0.63 0.0 0 0 209.64 255.99
  L 217.36 256.02
  A 0.63 0.63 0.0 0 1 217.99 256.65
  L 218.01 265.37
  A 0.63 0.63 0.0 0 0 218.64 266.00
  L 303.37 266.00
  A 0.63 0.63 0.0 0 0 304.00 265.37
  L 304.00 256.64
  A 0.63 0.63 0.0 0 0 303.37 256.01
  L 294.64 255.99
  A 0.63 0.63 0.0 0 1 294.01 255.36
  L 293.99 247.63
  A 0.63 0.63 0.0 0 0 293.36 247.00
  L 285.63 247.00
  A 0.63 0.63 0.0 0 1 285.00 246.37
  L 285.00 237.63
  A 0.63 0.63 0.0 0 0 284.37 237.00
  L 275.64 237.00
  A 0.63 0.63 0.0 0 1 275.01 236.37
  L 275.00 228.63
  A 0.63 0.63 0.0 0 0 274.37 228.00
  L 266.64 227.99
  A 0.63 0.63 0.0 0 1 266.01 227.36
  L 265.99 218.63
  A 0.63 0.63 0.0 0 0 265.36 218.00
  L 256.66 218.00
  A 0.63 0.63 0.0 0 1 256.03 217.37
  L 255.98 209.63
  A 0.63 0.63 0.0 0 0 255.35 209.00
  L 247.63 209.00
  A 0.63 0.63 0.0 0 1 247.00 208.37
  L 247.00 199.63
  A 0.63 0.63 0.0 0 0 246.37 199.00
  L 237.64 199.00
  A 0.63 0.63 0.0 0 1 237.01 198.37
  L 237.00 190.63
  A 0.63 0.63 0.0 0 0 236.37 190.00
  L 228.65 190.00
  A 0.63 0.63 0.0 0 1 228.02 189.37
  L 227.99 180.63
  A 0.63 0.63 0.0 0 0 227.36 180.00
  L 218.64 180.00
  A 0.63 0.63 0.0 0 1 218.01 179.37
  L 217.99 171.64
  A 0.63 0.63 0.0 0 0 217.36 171.01
  L 209.65 170.99
  A 0.63 0.63 0.0 0 1 209.02 170.36
  L 209.00 162.64
  A 0.63 0.63 0.0 0 1 209.63 162.01
  L 217.36 161.99
  A 0.63 0.63 0.0 0 0 217.99 161.36
  L 218.01 152.64
  A 0.63 0.63 0.0 0 1 218.64 152.01
  L 227.36 151.99
  A 0.63 0.63 0.0 0 0 227.99 151.36
  L 228.01 143.64
  A 0.63 0.63 0.0 0 1 228.64 143.01
  L 236.37 142.99
  A 0.63 0.63 0.0 0 0 237.00 142.36
  L 237.01 133.63
  A 0.63 0.63 0.0 0 1 237.64 133.00
  L 246.37 132.99
  A 0.63 0.63 0.0 0 0 247.00 132.36
  L 247.00 124.64
  A 0.63 0.63 0.0 0 1 247.63 124.01
  L 255.36 123.99
  A 0.63 0.63 0.0 0 0 255.99 123.36
  L 256.02 114.64
  A 0.63 0.63 0.0 0 1 256.65 114.01
  L 265.36 113.99
  A 0.63 0.63 0.0 0 0 265.99 113.36
  L 266.02 105.65
  A 0.63 0.63 0.0 0 1 266.65 105.02
  L 274.37 104.99
  A 0.63 0.63 0.0 0 0 275.00 104.36
  L 275.01 95.63
  A 0.63 0.63 0.0 0 0 274.38 95.00
  L 256.63 94.99
  A 0.63 0.63 0.0 0 0 256.00 95.62
  L 256.00 104.36
  A 0.63 0.63 0.0 0 1 255.37 104.99
  L 247.62 105.00
  A 0.63 0.63 0.0 0 0 246.99 105.63
  L 247.00 113.37
  A 0.63 0.63 0.0 0 1 246.37 114.00
  L 237.64 114.00
  A 0.63 0.63 0.0 0 0 237.01 114.63
  L 236.99 123.37
  A 0.63 0.63 0.0 0 1 236.36 124.00
  L 228.62 124.00
  A 0.63 0.63 0.0 0 0 227.99 124.63
  L 228.00 132.37
  A 0.63 0.63 0.0 0 1 227.37 133.00
  L 218.63 133.00
  A 0.63 0.63 0.0 0 0 218.00 133.63
  L 218.00 142.36
  A 0.63 0.63 0.0 0 1 217.37 142.99
  L 209.63 143.00
  A 0.63 0.63 0.0 0 0 209.00 143.63
  L 209.00 151.37
  A 0.63 0.63 0.0 0 1 208.37 152.00
  L 190.66 152.00
  A 0.63 0.63 0.0 0 1 190.03 151.37
  L 189.99 143.63
  A 0.63 0.63 0.0 0 0 189.36 143.00
  L 180.62 143.00
  A 0.63 0.63 0.0 0 1 179.99 142.37
  L 180.00 133.63
  A 0.63 0.63 0.0 0 0 179.37 133.00
  L 171.64 133.00
  A 0.63 0.63 0.0 0 1 171.01 132.37
  L 171.00 124.63
  A 0.63 0.63 0.0 0 0 170.37 124.00
  L 162.64 123.99
  A 0.63 0.63 0.0 0 1 162.01 123.36
  L 161.99 114.63
  A 0.63 0.63 0.0 0 0 161.36 114.00
  L 152.66 114.00
  A 0.63 0.63 0.0 0 1 152.03 113.37
  L 151.98 105.63
  A 0.63 0.63 0.0 0 0 151.35 105.00
  L 143.64 105.00
  A 0.63 0.63 0.0 0 1 143.01 104.37
  L 143.00 95.64
  A 0.63 0.63 0.0 0 0 142.37 95.01
  L 57.63 95.00
  A 0.63 0.63 0.0 0 0 57.00 95.63
  L 57.00 104.37
  A 0.63 0.63 0.0 0 0 57.63 105.00
  L 66.35 105.00
  A 0.63 0.63 0.0 0 1 66.98 105.63
  L 67.00 113.36
  A 0.63 0.63 0.0 0 0 67.63 113.99
  L 75.37 114.01
  A 0.63 0.63 0.0 0 1 76.00 114.64
  L 76.00 123.37
  A 0.63 0.63 0.0 0 0 76.63 124.00
  L 85.37 124.01
  A 0.63 0.63 0.0 0 1 86.00 124.64
  L 86.00 132.37
  A 0.63 0.63 0.0 0 0 86.63 133.00
  L 94.36 133.00
  A 0.63 0.63 0.0 0 1 94.99 133.63
  L 95.01 142.37
  A 0.63 0.63 0.0 0 0 95.64 143.00
  L 104.34 143.00
  A 0.63 0.63 0.0 0 1 104.97 143.63
  L 105.01 151.36
  A 0.63 0.63 0.0 0 0 105.64 151.99
  L 113.37 152.01
  A 0.63 0.63 0.0 0 1 114.00 152.64
  L 114.00 161.36
  A 0.63 0.63 0.0 0 0 114.63 161.99
  L 123.37 162.01
  A 0.63 0.63 0.0 0 1 124.00 162.64
  L 124.00 170.36
  A 0.63 0.63 0.0 0 0 124.63 170.99
  L 132.34 171.01
  Z"
  />
  <path fill="#ffffff"
    d="
  M 132.34 171.01
  L 124.63 170.99
  A 0.63 0.63 0.0 0 1 124.00 170.36
  L 124.00 162.64
  A 0.63 0.63 0.0 0 0 123.37 162.01
  L 114.63 161.99
  A 0.63 0.63 0.0 0 1 114.00 161.36
  L 114.00 152.64
  A 0.63 0.63 0.0 0 0 113.37 152.01
  L 105.64 151.99
  A 0.63 0.63 0.0 0 1 105.01 151.36
  L 104.97 143.63
  A 0.63 0.63 0.0 0 0 104.34 143.00
  L 95.64 143.00
  A 0.63 0.63 0.0 0 1 95.01 142.37
  L 94.99 133.63
  A 0.63 0.63 0.0 0 0 94.36 133.00
  L 86.63 133.00
  A 0.63 0.63 0.0 0 1 86.00 132.37
  L 86.00 124.64
  A 0.63 0.63 0.0 0 0 85.37 124.01
  L 76.63 124.00
  A 0.63 0.63 0.0 0 1 76.00 123.37
  L 76.00 114.64
  A 0.63 0.63 0.0 0 0 75.37 114.01
  L 67.63 113.99
  A 0.63 0.63 0.0 0 1 67.00 113.36
  L 66.98 105.63
  A 0.63 0.63 0.0 0 0 66.35 105.00
  L 57.63 105.00
  A 0.63 0.63 0.0 0 1 57.00 104.37
  L 57.00 95.63
  A 0.63 0.63 0.0 0 1 57.63 95.00
  L 142.37 95.01
  A 0.63 0.63 0.0 0 1 143.00 95.64
  L 143.01 104.37
  A 0.63 0.63 0.0 0 0 143.64 105.00
  L 151.35 105.00
  A 0.63 0.63 0.0 0 1 151.98 105.63
  L 152.03 113.37
  A 0.63 0.63 0.0 0 0 152.66 114.00
  L 161.36 114.00
  A 0.63 0.63 0.0 0 1 161.99 114.63
  L 162.01 123.36
  A 0.63 0.63 0.0 0 0 162.64 123.99
  L 170.37 124.00
  A 0.63 0.63 0.0 0 1 171.00 124.63
  L 171.01 132.37
  A 0.63 0.63 0.0 0 0 171.64 133.00
  L 179.37 133.00
  A 0.63 0.63 0.0 0 1 180.00 133.63
  L 179.99 142.37
  A 0.63 0.63 0.0 0 0 180.62 143.00
  L 189.36 143.00
  A 0.63 0.63 0.0 0 1 189.99 143.63
  L 190.03 151.37
  A 0.63 0.63 0.0 0 0 190.66 152.00
  L 208.37 152.00
  A 0.63 0.63 0.0 0 0 209.00 151.37
  L 209.00 143.63
  A 0.63 0.63 0.0 0 1 209.63 143.00
  L 217.37 142.99
  A 0.63 0.63 0.0 0 0 218.00 142.36
  L 218.00 133.63
  A 0.63 0.63 0.0 0 1 218.63 133.00
  L 227.37 133.00
  A 0.63 0.63 0.0 0 0 228.00 132.37
  L 227.99 124.63
  A 0.63 0.63 0.0 0 1 228.62 124.00
  L 236.36 124.00
  A 0.63 0.63 0.0 0 0 236.99 123.37
  L 237.01 114.63
  A 0.63 0.63 0.0 0 1 237.64 114.00
  L 246.37 114.00
  A 0.63 0.63 0.0 0 0 247.00 113.37
  L 246.99 105.63
  A 0.63 0.63 0.0 0 1 247.62 105.00
  L 255.37 104.99
  A 0.63 0.63 0.0 0 0 256.00 104.36
  L 256.00 95.62
  A 0.63 0.63 0.0 0 1 256.63 94.99
  L 274.38 95.00
  A 0.63 0.63 0.0 0 1 275.01 95.63
  L 275.00 104.36
  A 0.63 0.63 0.0 0 1 274.37 104.99
  L 266.65 105.02
  A 0.63 0.63 0.0 0 0 266.02 105.65
  L 265.99 113.36
  A 0.63 0.63 0.0 0 1 265.36 113.99
  L 256.65 114.01
  A 0.63 0.63 0.0 0 0 256.02 114.64
  L 255.99 123.36
  A 0.63 0.63 0.0 0 1 255.36 123.99
  L 247.63 124.01
  A 0.63 0.63 0.0 0 0 247.00 124.64
  L 247.00 132.36
  A 0.63 0.63 0.0 0 1 246.37 132.99
  L 237.64 133.00
  A 0.63 0.63 0.0 0 0 237.01 133.63
  L 237.00 142.36
  A 0.63 0.63 0.0 0 1 236.37 142.99
  L 228.64 143.01
  A 0.63 0.63 0.0 0 0 228.01 143.64
  L 227.99 151.36
  A 0.63 0.63 0.0 0 1 227.36 151.99
  L 218.64 152.01
  A 0.63 0.63 0.0 0 0 218.01 152.64
  L 217.99 161.36
  A 0.63 0.63 0.0 0 1 217.36 161.99
  L 209.63 162.01
  A 0.63 0.63 0.0 0 0 209.00 162.64
  L 209.02 170.36
  A 0.63 0.63 0.0 0 0 209.65 170.99
  L 217.36 171.01
  A 0.63 0.63 0.0 0 1 217.99 171.64
  L 218.01 179.37
  A 0.63 0.63 0.0 0 0 218.64 180.00
  L 227.36 180.00
  A 0.63 0.63 0.0 0 1 227.99 180.63
  L 228.02 189.37
  A 0.63 0.63 0.0 0 0 228.65 190.00
  L 236.37 190.00
  A 0.63 0.63 0.0 0 1 237.00 190.63
  L 237.01 198.37
  A 0.63 0.63 0.0 0 0 237.64 199.00
  L 246.37 199.00
  A 0.63 0.63 0.0 0 1 247.00 199.63
  L 247.00 208.37
  A 0.63 0.63 0.0 0 0 247.63 209.00
  L 255.35 209.00
  A 0.63 0.63 0.0 0 1 255.98 209.63
  L 256.03 217.37
  A 0.63 0.63 0.0 0 0 256.66 218.00
  L 265.36 218.00
  A 0.63 0.63 0.0 0 1 265.99 218.63
  L 266.01 227.36
  A 0.63 0.63 0.0 0 0 266.64 227.99
  L 274.37 228.00
  A 0.63 0.63 0.0 0 1 275.00 228.63
  L 275.01 236.37
  A 0.63 0.63 0.0 0 0 275.64 237.00
  L 284.37 237.00
  A 0.63 0.63 0.0 0 1 285.00 237.63
  L 285.00 246.37
  A 0.63 0.63 0.0 0 0 285.63 247.00
  L 293.36 247.00
  A 0.63 0.63 0.0 0 1 293.99 247.63
  L 294.01 255.36
  A 0.63 0.63 0.0 0 0 294.64 255.99
  L 303.37 256.01
  A 0.63 0.63 0.0 0 1 304.00 256.64
  L 304.00 265.37
  A 0.63 0.63 0.0 0 1 303.37 266.00
  L 218.64 266.00
  A 0.63 0.63 0.0 0 1 218.01 265.37
  L 217.99 256.65
  A 0.63 0.63 0.0 0 0 217.36 256.02
  L 209.64 255.99
  A 0.63 0.63 0.0 0 1 209.01 255.36
  L 208.97 247.63
  A 0.63 0.63 0.0 0 0 208.34 247.00
  L 199.64 247.00
  A 0.63 0.63 0.0 0 1 199.01 246.37
  L 198.98 237.64
  A 0.63 0.63 0.0 0 0 198.35 237.01
  L 190.63 236.99
  A 0.63 0.63 0.0 0 1 190.00 236.36
  L 190.00 228.64
  A 0.63 0.63 0.0 0 0 189.37 228.01
  L 180.63 227.99
  A 0.63 0.63 0.0 0 1 180.00 227.36
  L 180.00 218.64
  A 0.63 0.63 0.0 0 0 179.37 218.01
  L 171.64 217.99
  A 0.63 0.63 0.0 0 1 171.01 217.36
  L 170.97 209.63
  A 0.63 0.63 0.0 0 0 170.34 209.00
  L 152.64 209.00
  A 0.63 0.63 0.0 0 0 152.01 209.63
  L 151.99 217.36
  A 0.63 0.63 0.0 0 1 151.36 217.99
  L 143.64 218.01
  A 0.63 0.63 0.0 0 0 143.01 218.64
  L 143.00 227.36
  A 0.63 0.63 0.0 0 1 142.37 227.99
  L 133.63 228.00
  A 0.63 0.63 0.0 0 0 133.00 228.63
  L 133.00 236.36
  A 0.63 0.63 0.0 0 1 132.37 236.99
  L 124.64 237.01
  A 0.63 0.63 0.0 0 0 124.01 237.64
  L 124.00 246.37
  A 0.63 0.63 0.0 0 1 123.37 247.00
  L 114.64 247.00
  A 0.63 0.63 0.0 0 0 114.01 247.63
  L 113.99 255.36
  A 0.63 0.63 0.0 0 1 113.36 255.99
  L 105.63 256.00
  A 0.63 0.63 0.0 0 0 105.00 256.63
  L 105.00 265.37
  A 0.63 0.63 0.0 0 1 104.37 266.00
  L 86.63 266.00
  A 0.63 0.63 0.0 0 1 86.00 265.37
  L 86.00 256.63
  A 0.63 0.63 0.0 0 1 86.63 256.00
  L 94.37 255.99
  A 0.63 0.63 0.0 0 0 95.00 255.36
  L 94.99 247.63
  A 0.63 0.63 0.0 0 1 95.62 247.00
  L 104.38 246.99
  A 0.63 0.63 0.0 0 0 105.01 246.36
  L 104.99 237.63
  A 0.63 0.63 0.0 0 1 105.62 237.00
  L 113.38 236.99
  A 0.63 0.63 0.0 0 0 114.01 236.36
  L 113.99 228.63
  A 0.63 0.63 0.0 0 1 114.62 228.00
  L 123.38 228.00
  A 0.63 0.63 0.0 0 0 124.01 227.37
  L 123.99 218.63
  A 0.63 0.63 0.0 0 1 124.62 218.00
  L 132.37 218.00
  A 0.63 0.63 0.0 0 0 133.00 217.37
  L 132.99 209.63
  A 0.63 0.63 0.0 0 1 133.62 209.00
  L 142.37 208.99
  A 0.63 0.63 0.0 0 0 143.00 208.36
  L 142.99 199.63
  A 0.63 0.63 0.0 0 1 143.62 199.00
  L 151.38 198.99
  A 0.63 0.63 0.0 0 0 152.01 198.36
  L 152.01 190.64
  A 0.63 0.63 0.0 0 0 151.38 190.01
  L 143.63 189.99
  A 0.63 0.63 0.0 0 1 143.00 189.36
  L 142.99 180.64
  A 0.63 0.63 0.0 0 0 142.36 180.01
  L 133.64 179.99
  A 0.63 0.63 0.0 0 1 133.02 179.37
  L 132.96 171.63
  A 0.63 0.63 0.0 0 0 132.34 171.01
  Z
  M 208.31 228.00
  A 0.69 0.69 0.0 0 1 209.00 228.69
  L 209.01 236.31
  A 0.69 0.69 0.0 0 0 209.70 237.00
  L 217.31 237.00
  A 0.69 0.69 0.0 0 1 218.00 237.69
  L 218.00 246.30
  A 0.69 0.69 0.0 0 0 218.69 246.99
  L 265.32 247.01
  A 0.69 0.69 0.0 0 0 266.01 246.32
  L 266.00 237.70
  A 0.69 0.69 0.0 0 0 265.31 237.01
  L 256.69 236.99
  A 0.69 0.69 0.0 0 1 256.00 236.30
  L 255.99 228.70
  A 0.69 0.69 0.0 0 0 255.30 228.01
  L 247.69 227.99
  A 0.69 0.69 0.0 0 1 247.00 227.30
  L 246.98 218.69
  A 0.69 0.69 0.0 0 0 246.29 218.00
  L 237.70 217.99
  A 0.69 0.69 0.0 0 1 237.01 217.30
  L 236.98 209.70
  A 0.69 0.69 0.0 0 0 236.29 209.01
  L 228.69 208.99
  A 0.69 0.69 0.0 0 1 228.00 208.30
  L 228.00 199.70
  A 0.69 0.69 0.0 0 0 227.31 199.01
  L 218.69 198.99
  A 0.69 0.69 0.0 0 1 218.00 198.30
  L 217.99 190.70
  A 0.69 0.69 0.0 0 0 217.30 190.01
  L 209.70 189.99
  A 0.69 0.69 0.0 0 1 209.01 189.30
  L 208.99 180.70
  A 0.69 0.69 0.0 0 0 208.30 180.01
  L 199.70 179.99
  A 0.69 0.69 0.0 0 1 199.02 179.31
  L 198.97 171.69
  A 0.69 0.69 0.0 0 0 198.29 171.01
  L 190.69 170.99
  A 0.69 0.69 0.0 0 1 190.00 170.30
  L 189.99 162.70
  A 0.69 0.69 0.0 0 0 189.30 162.01
  L 180.69 161.99
  A 0.69 0.69 0.0 0 1 180.00 161.30
  L 179.99 152.70
  A 0.69 0.69 0.0 0 0 179.30 152.01
  L 171.70 151.99
  A 0.69 0.69 0.0 0 1 171.01 151.30
  L 170.98 143.70
  A 0.69 0.69 0.0 0 0 170.29 143.01
  L 162.69 142.99
  A 0.69 0.69 0.0 0 1 162.00 142.30
  L 162.00 133.69
  A 0.69 0.69 0.0 0 0 161.31 133.00
  L 152.69 132.99
  A 0.69 0.69 0.0 0 1 152.00 132.30
  L 151.99 124.70
  A 0.69 0.69 0.0 0 0 151.30 124.01
  L 143.70 123.99
  A 0.69 0.69 0.0 0 1 143.01 123.30
  L 142.98 114.69
  A 0.69 0.69 0.0 0 0 142.29 114.00
  L 95.69 114.00
  A 0.69 0.69 0.0 0 0 95.00 114.69
  L 95.01 123.30
  A 0.69 0.69 0.0 0 0 95.70 123.99
  L 104.30 124.00
  A 0.69 0.69 0.0 0 1 104.99 124.69
  L 105.01 132.31
  A 0.69 0.69 0.0 0 0 105.70 133.00
  L 113.31 133.00
  A 0.69 0.69 0.0 0 1 114.00 133.69
  L 114.00 142.30
  A 0.69 0.69 0.0 0 0 114.69 142.99
  L 123.30 143.00
  A 0.69 0.69 0.0 0 1 123.99 143.69
  L 124.02 151.31
  A 0.69 0.69 0.0 0 0 124.71 152.00
  L 132.31 152.00
  A 0.69 0.69 0.0 0 1 133.00 152.69
  L 133.01 161.31
  A 0.69 0.69 0.0 0 0 133.70 162.00
  L 142.30 162.00
  A 0.69 0.69 0.0 0 1 142.99 162.69
  L 143.01 170.31
  A 0.69 0.69 0.0 0 0 143.70 171.00
  L 151.29 171.00
  A 0.69 0.69 0.0 0 1 151.98 171.69
  L 152.03 179.31
  A 0.69 0.69 0.0 0 0 152.72 180.00
  L 161.29 180.00
  A 0.69 0.69 0.0 0 1 161.98 180.69
  L 162.03 189.31
  A 0.69 0.69 0.0 0 0 162.72 190.00
  L 170.31 190.00
  A 0.69 0.69 0.0 0 1 171.00 190.69
  L 171.01 198.31
  A 0.69 0.69 0.0 0 0 171.70 199.00
  L 179.31 199.00
  A 0.69 0.69 0.0 0 1 180.00 199.69
  L 179.99 208.30
  A 0.69 0.69 0.0 0 0 180.68 208.99
  L 189.30 209.00
  A 0.69 0.69 0.0 0 1 189.99 209.69
  L 190.02 217.31
  A 0.69 0.69 0.0 0 0 190.71 218.00
  L 198.31 218.00
  A 0.69 0.69 0.0 0 1 199.00 218.69
  L 199.01 227.30
  A 0.69 0.69 0.0 0 0 199.70 227.99
  L 208.31 228.00
  Z"
  />
  <path fill="currentColor"
    d="
  M 208.31 228.00
  L 199.70 227.99
  A 0.69 0.69 0.0 0 1 199.01 227.30
  L 199.00 218.69
  A 0.69 0.69 0.0 0 0 198.31 218.00
  L 190.71 218.00
  A 0.69 0.69 0.0 0 1 190.02 217.31
  L 189.99 209.69
  A 0.69 0.69 0.0 0 0 189.30 209.00
  L 180.68 208.99
  A 0.69 0.69 0.0 0 1 179.99 208.30
  L 180.00 199.69
  A 0.69 0.69 0.0 0 0 179.31 199.00
  L 171.70 199.00
  A 0.69 0.69 0.0 0 1 171.01 198.31
  L 171.00 190.69
  A 0.69 0.69 0.0 0 0 170.31 190.00
  L 162.72 190.00
  A 0.69 0.69 0.0 0 1 162.03 189.31
  L 161.98 180.69
  A 0.69 0.69 0.0 0 0 161.29 180.00
  L 152.72 180.00
  A 0.69 0.69 0.0 0 1 152.03 179.31
  L 151.98 171.69
  A 0.69 0.69 0.0 0 0 151.29 171.00
  L 143.70 171.00
  A 0.69 0.69 0.0 0 1 143.01 170.31
  L 142.99 162.69
  A 0.69 0.69 0.0 0 0 142.30 162.00
  L 133.70 162.00
  A 0.69 0.69 0.0 0 1 133.01 161.31
  L 133.00 152.69
  A 0.69 0.69 0.0 0 0 132.31 152.00
  L 124.71 152.00
  A 0.69 0.69 0.0 0 1 124.02 151.31
  L 123.99 143.69
  A 0.69 0.69 0.0 0 0 123.30 143.00
  L 114.69 142.99
  A 0.69 0.69 0.0 0 1 114.00 142.30
  L 114.00 133.69
  A 0.69 0.69 0.0 0 0 113.31 133.00
  L 105.70 133.00
  A 0.69 0.69 0.0 0 1 105.01 132.31
  L 104.99 124.69
  A 0.69 0.69 0.0 0 0 104.30 124.00
  L 95.70 123.99
  A 0.69 0.69 0.0 0 1 95.01 123.30
  L 95.00 114.69
  A 0.69 0.69 0.0 0 1 95.69 114.00
  L 142.29 114.00
  A 0.69 0.69 0.0 0 1 142.98 114.69
  L 143.01 123.30
  A 0.69 0.69 0.0 0 0 143.70 123.99
  L 151.30 124.01
  A 0.69 0.69 0.0 0 1 151.99 124.70
  L 152.00 132.30
  A 0.69 0.69 0.0 0 0 152.69 132.99
  L 161.31 133.00
  A 0.69 0.69 0.0 0 1 162.00 133.69
  L 162.00 142.30
  A 0.69 0.69 0.0 0 0 162.69 142.99
  L 170.29 143.01
  A 0.69 0.69 0.0 0 1 170.98 143.70
  L 171.01 151.30
  A 0.69 0.69 0.0 0 0 171.70 151.99
  L 179.30 152.01
  A 0.69 0.69 0.0 0 1 179.99 152.70
  L 180.00 161.30
  A 0.69 0.69 0.0 0 0 180.69 161.99
  L 189.30 162.01
  A 0.69 0.69 0.0 0 1 189.99 162.70
  L 190.00 170.30
  A 0.69 0.69 0.0 0 0 190.69 170.99
  L 198.29 171.01
  A 0.69 0.69 0.0 0 1 198.97 171.69
  L 199.02 179.31
  A 0.69 0.69 0.0 0 0 199.70 179.99
  L 208.30 180.01
  A 0.69 0.69 0.0 0 1 208.99 180.70
  L 209.01 189.30
  A 0.69 0.69 0.0 0 0 209.70 189.99
  L 217.30 190.01
  A 0.69 0.69 0.0 0 1 217.99 190.70
  L 218.00 198.30
  A 0.69 0.69 0.0 0 0 218.69 198.99
  L 227.31 199.01
  A 0.69 0.69 0.0 0 1 228.00 199.70
  L 228.00 208.30
  A 0.69 0.69 0.0 0 0 228.69 208.99
  L 236.29 209.01
  A 0.69 0.69 0.0 0 1 236.98 209.70
  L 237.01 217.30
  A 0.69 0.69 0.0 0 0 237.70 217.99
  L 246.29 218.00
  A 0.69 0.69 0.0 0 1 246.98 218.69
  L 247.00 227.30
  A 0.69 0.69 0.0 0 0 247.69 227.99
  L 255.30 228.01
  A 0.69 0.69 0.0 0 1 255.99 228.70
  L 256.00 236.30
  A 0.69 0.69 0.0 0 0 256.69 236.99
  L 265.31 237.01
  A 0.69 0.69 0.0 0 1 266.00 237.70
  L 266.01 246.32
  A 0.69 0.69 0.0 0 1 265.32 247.01
  L 218.69 246.99
  A 0.69 0.69 0.0 0 1 218.00 246.30
  L 218.00 237.69
  A 0.69 0.69 0.0 0 0 217.31 237.00
  L 209.70 237.00
  A 0.69 0.69 0.0 0 1 209.01 236.31
  L 209.00 228.69
  A 0.69 0.69 0.0 0 0 208.31 228.00
  Z"
  />
</svg>