<?xml version="1.0" standalone="no"?>
<!DOCTYPE svg PUBLIC "-//W3C//DTD SVG 20010904//EN"
 "http://www.w3.org/TR/2001/REC-SVG-20010904/DTD/svg10.dtd">
<svg version="1.0" xmlns="http://www.w3.org/2000/svg"
 width="512.000000pt" height="512.000000pt" viewBox="0 0 512.000000 512.000000"
 preserveAspectRatio="xMidYMid meet">
<metadata>
Created by potrace 1.14, written by Peter Selinger 2001-2017
</metadata>
<g transform="translate(0.000000,512.000000) scale(0.100000,-0.100000)"
fill="#000000" stroke="none">
<path d="M2000 4120 l0 -110 -220 0 -220 0 0 -115 0 -115 -110 0 -110 0 0
-110 0 -110 -115 0 -115 0 0 -220 0 -220 -110 0 -110 0 0 -335 0 -335 110 0
110 0 0 -225 0 -225 -110 0 -110 0 0 -110 0 -110 -110 0 -110 0 0 -110 0 -110
-110 0 -110 0 -2 -222 -3 -223 -113 -3 -112 -3 0 -219 0 -220 -110 0 -110 0 0
-335 0 -335 115 0 115 0 0 330 0 329 108 3 107 3 3 222 2 223 110 0 110 0 0
115 0 115 110 0 110 0 0 110 0 110 445 0 445 0 0 -110 0 -110 223 -2 222 -3 3
-112 3 -113 219 0 220 0 0 -110 0 -110 225 0 225 0 0 -110 0 -110 220 0 220 0
0 -110 0 -110 -110 0 -110 0 0 -115 0 -115 -555 0 -554 0 -3 113 -3 112 -112
3 -113 3 0 109 0 110 -220 0 -220 0 0 -220 0 -219 -112 -3 -113 -3 -3 -112 -3
-113 1786 0 1785 0 0 335 0 335 -115 0 -115 0 2 443 3 442 113 3 112 3 0 109
0 110 110 0 110 0 0 335 0 335 -110 0 -110 0 0 220 0 219 -112 3 -113 3 -3
333 -2 332 -110 0 -110 0 0 110 0 110 -110 0 -110 0 0 115 0 115 -110 0 -110
0 0 110 0 110 -1005 0 -1005 0 0 -110z m2002 -227 l3 -108 113 -3 112 -3 0
-219 0 -220 110 0 110 0 0 -225 0 -225 110 0 110 0 0 -220 0 -220 115 0 115 0
-2 -222 -3 -223 -1000 0 -1000 0 -3 113 -3 112 -109 0 -110 0 0 -115 0 -115
110 0 110 0 0 -110 0 -110 890 0 890 0 0 -110 0 -110 -220 0 -220 0 0 -110 0
-110 -780 0 -780 0 0 110 0 110 -110 0 -110 0 0 110 0 110 -108 0 -109 0 -6
167 c-4 91 -7 242 -7 335 l0 168 115 0 115 0 0 110 0 110 110 0 110 0 0 335 0
335 110 0 110 0 0 110 0 110 -220 0 -220 0 0 -110 0 -110 -445 0 -445 0 0
-445 0 -445 -110 0 -110 0 0 110 0 110 -108 0 -109 0 -6 167 c-4 91 -7 192 -7
225 l0 58 115 0 115 0 0 110 0 110 110 0 110 0 0 220 0 220 225 0 225 0 0 110
0 110 995 0 994 0 3 -107z"/>
<path d="M2890 3005 l0 -335 115 0 115 0 0 335 0 335 -115 0 -115 0 0 -335z"/>
<path d="M4002 3008 l3 -333 113 -3 112 -3 0 336 0 335 -115 0 -115 0 2 -332z"/>
<path d="M3560 2340 l0 -110 110 0 110 0 0 110 0 110 -110 0 -110 0 0 -110z"/>
<path d="M4230 2340 l0 -110 110 0 110 0 0 110 0 110 -110 0 -110 0 0 -110z"/>
</g>
</svg>
