<svg width="138" height="77" viewBox="0 0 138 77" fill="none" xmlns="http://www.w3.org/2000/svg">
<g filter="url(#filter0_ii_1857_7775)">
<path d="M7 67L16.5 76.5H106.5L117 67L113.5 59.5L117 46.5L110 51L106.5 37.5L113.5 27L137.5 17.5L113.5 20L102.5 6L106.5 20L88.5 30L67.5 23.5L58.5 30L46 27L35.5 14.5L34 0L32 14.5L41 27L27.5 35L16.5 46.5L5.5 41V32.5L0 41L12.5 54L7 67Z" fill="black"/>
</g>
<defs>
<filter id="filter0_ii_1857_7775" x="0" y="0" width="137.5" height="76.5" filterUnits="userSpaceOnUse" color-interpolation-filters="sRGB">
<feFlood flood-opacity="0" result="BackgroundImageFix"/>
<feBlend mode="normal" in="SourceGraphic" in2="BackgroundImageFix" result="shape"/>
<feColorMatrix in="SourceAlpha" type="matrix" values="0 0 0 0 0 0 0 0 0 0 0 0 0 0 0 0 0 0 127 0" result="hardAlpha"/>
<feOffset dy="-1.3"/>
<feComposite in2="hardAlpha" operator="arithmetic" k2="-1" k3="1"/>
<feColorMatrix type="matrix" values="0 0 0 0 0.341176 0 0 0 0 0.341176 0 0 0 0 0.341176 0 0 0 1 0"/>
<feBlend mode="normal" in2="shape" result="effect1_innerShadow_1857_7775"/>
<feColorMatrix in="SourceAlpha" type="matrix" values="0 0 0 0 0 0 0 0 0 0 0 0 0 0 0 0 0 0 127 0" result="hardAlpha"/>
<feOffset dy="-1"/>
<feComposite in2="hardAlpha" operator="arithmetic" k2="-1" k3="1"/>
<feColorMatrix type="matrix" values="0 0 0 0 0.341176 0 0 0 0 0.341176 0 0 0 0 0.341176 0 0 0 1 0"/>
<feBlend mode="normal" in2="effect1_innerShadow_1857_7775" result="effect2_innerShadow_1857_7775"/>
</filter>
</defs>
</svg>
