<svg width="177" height="75" viewBox="0 0 177 75" fill="none" xmlns="http://www.w3.org/2000/svg">
<g filter="url(#filter0_ii_1857_7774)">
<path d="M20.5 67L11 75H177L167.5 63L161 49V40L153.5 44L148 38L156.5 26.5H167.5L165 21L171.5 13L153.5 22.5L145 0.5L150.5 25L137.5 33.5L114 25L105.5 18L95 25L76 22.5L71.5 25L57 22.5L46.5 26.5L36.5 18L32 7.5V18L38.5 26.5L30 33.5L22 49L11 54L5.5 45.5L15 40V33.5L11 38L8.5 33.5V40L0 47L4 58.5L20.5 67Z" fill="black"/>
</g>
<defs>
<filter id="filter0_ii_1857_7774" x="0" y="0.5" width="177" height="74.5" filterUnits="userSpaceOnUse" color-interpolation-filters="sRGB">
<feFlood flood-opacity="0" result="BackgroundImageFix"/>
<feBlend mode="normal" in="SourceGraphic" in2="BackgroundImageFix" result="shape"/>
<feColorMatrix in="SourceAlpha" type="matrix" values="0 0 0 0 0 0 0 0 0 0 0 0 0 0 0 0 0 0 127 0" result="hardAlpha"/>
<feOffset dy="-1.3"/>
<feComposite in2="hardAlpha" operator="arithmetic" k2="-1" k3="1"/>
<feColorMatrix type="matrix" values="0 0 0 0 0.341176 0 0 0 0 0.341176 0 0 0 0 0.341176 0 0 0 1 0"/>
<feBlend mode="normal" in2="shape" result="effect1_innerShadow_1857_7774"/>
<feColorMatrix in="SourceAlpha" type="matrix" values="0 0 0 0 0 0 0 0 0 0 0 0 0 0 0 0 0 0 127 0" result="hardAlpha"/>
<feOffset dy="-1"/>
<feComposite in2="hardAlpha" operator="arithmetic" k2="-1" k3="1"/>
<feColorMatrix type="matrix" values="0 0 0 0 0.341176 0 0 0 0 0.341176 0 0 0 0 0.341176 0 0 0 1 0"/>
<feBlend mode="normal" in2="effect1_innerShadow_1857_7774" result="effect2_innerShadow_1857_7774"/>
</filter>
</defs>
</svg>
