<svg width="251" height="111" viewBox="0 0 251 111" fill="none" xmlns="http://www.w3.org/2000/svg">
<g filter="url(#filter0_ii_1859_548)">
<path d="M30 104L29 112.5H250L236.5 101V92C237.333 91.3333 239 89.9 239 89.5V83.5L236.5 81V76L240 69.5L234.5 74.5H231.5L225.5 71.5V53.5L230 47.5C231.667 46.5 235.1 44.5 235.5 44.5C235.9 44.5 240.667 47.8333 243 49.5L242 54L245 50.5L251 50L245.5 48.5L245 46.5L244 37.5L249 31L235 40L229.5 45.5H226L207 14.5L203 0L204.5 14.5L223 45V51L219.5 56.5V59.5L212.5 61H203.5L191 53L187.5 44.5H183V39.5H181L178.5 41.5L176.5 38.5L171.5 42.5L168.5 40.5L162 41.5L155 37.5L145.5 41.5H128.5L125 39.5H120L114 42.5H104L69.5 39L42.5 27.5L33.5 13L42.5 32H46L61.5 46V54L65.5 62.5L63.5 68H59L57 73.5L44 83.5L45 85.5V88.5L42 92.5L9 82.5V73.5L10 72.5V68.5L11.5 67V57.5L7 64.5L0 60.5V64.5L6.5 69.5L2.5 78.5L3.5 83.5L30 104Z" fill="black"/>
</g>
<defs>
<filter id="filter0_ii_1859_548" x="0" y="0" width="251" height="112.5" filterUnits="userSpaceOnUse" color-interpolation-filters="sRGB">
<feFlood flood-opacity="0" result="BackgroundImageFix"/>
<feBlend mode="normal" in="SourceGraphic" in2="BackgroundImageFix" result="shape"/>
<feColorMatrix in="SourceAlpha" type="matrix" values="0 0 0 0 0 0 0 0 0 0 0 0 0 0 0 0 0 0 127 0" result="hardAlpha"/>
<feOffset dy="-1.3"/>
<feComposite in2="hardAlpha" operator="arithmetic" k2="-1" k3="1"/>
<feColorMatrix type="matrix" values="0 0 0 0 0.341176 0 0 0 0 0.341176 0 0 0 0 0.341176 0 0 0 1 0"/>
<feBlend mode="normal" in2="shape" result="effect1_innerShadow_1859_548"/>
<feColorMatrix in="SourceAlpha" type="matrix" values="0 0 0 0 0 0 0 0 0 0 0 0 0 0 0 0 0 0 127 0" result="hardAlpha"/>
<feOffset dy="-1"/>
<feComposite in2="hardAlpha" operator="arithmetic" k2="-1" k3="1"/>
<feColorMatrix type="matrix" values="0 0 0 0 0.341176 0 0 0 0 0.341176 0 0 0 0 0.341176 0 0 0 1 0"/>
<feBlend mode="normal" in2="effect1_innerShadow_1859_548" result="effect2_innerShadow_1859_548"/>
</filter>
</defs>
</svg>
