<svg width="1440" height="86" viewBox="0 0 1440 86" fill="none" xmlns="http://www.w3.org/2000/svg">
<g clip-path="url(#clip0_1948_1015)">
<path d="M476.338 508.942C483.574 513.156 490.917 517.206 498.362 521.088V521.364H476.338V508.942Z" fill="#95F22A"/>
<path d="M997.3 521.086C1004.75 517.204 1012.09 513.153 1019.32 508.939V521.364H997.3V521.086Z" fill="#95F22A"/>
<path d="M1055.18 486.123C1062.67 480.939 1070.01 475.572 1077.21 470.027V521.364H1055.18V486.123Z" fill="#95F22A"/>
<path d="M1077.21 -386.621C1070.01 -392.166 1062.67 -397.533 1055.18 -402.717V-424H1077.21V-386.621Z" fill="#95F22A"/>
<path d="M1113.07 439.857V521.364H1135.09V418.466C1127.96 425.802 1120.61 432.935 1113.07 439.857Z" fill="#95F22A"/>
<path d="M1135.09 -335.06C1127.96 -342.396 1120.61 -349.529 1113.07 -356.451V-424H1135.09V-335.06Z" fill="#95F22A"/>
<path d="M1170.95 377.727V521.364H1192.98V348.003C1185.97 358.169 1178.62 368.082 1170.95 377.727Z" fill="#95F22A"/>
<path d="M1192.98 -264.598C1185.97 -274.763 1178.62 -284.676 1170.95 -294.321V-424H1192.98V-264.598Z" fill="#95F22A"/>
<path d="M1228.84 288.03V521.364H1250.86V239.281C1244.31 255.951 1236.95 272.216 1228.84 288.03Z" fill="#95F22A"/>
<path d="M1250.86 -155.875C1244.31 -172.545 1236.95 -188.81 1228.84 -204.624V-424H1250.86V-155.875Z" fill="#95F22A"/>
<path d="M1286.72 80.9811C1287.65 68.0098 1288.13 54.9117 1288.13 41.7029C1288.13 28.4941 1287.65 15.3961 1286.72 2.42477V-424H1308.75V521.364H1286.72V80.9811Z" fill="#95F22A"/>
<path d="M440.477 -402.72V-424H418.453V-386.624C425.653 -392.169 432.997 -397.536 440.477 -402.72Z" fill="#95F22A"/>
<path d="M418.453 470.03C425.653 475.575 432.997 480.942 440.477 486.126V521.364H418.453V470.03Z" fill="#95F22A"/>
<path d="M382.593 -356.455V-424H360.568V-335.064C367.706 -342.399 375.051 -349.533 382.593 -356.455Z" fill="#95F22A"/>
<path d="M360.568 418.47C367.706 425.805 375.051 432.939 382.593 439.861V521.364H360.568V418.47Z" fill="#95F22A"/>
<path d="M324.707 -294.324V-424H302.683V-264.602C309.69 -274.766 317.037 -284.679 324.707 -294.324Z" fill="#95F22A"/>
<path d="M302.683 348.008C309.69 358.172 317.037 368.085 324.707 377.73V521.364H302.683V348.008Z" fill="#95F22A"/>
<path d="M266.822 -204.629V-424H244.798V-155.882C251.351 -172.552 258.708 -188.817 266.822 -204.629Z" fill="#95F22A"/>
<path d="M244.798 239.288C251.351 255.958 258.708 272.223 266.822 288.035V521.364H244.798V239.288Z" fill="#95F22A"/>
<path d="M208.938 2.39163C208.004 15.3737 207.529 28.4829 207.529 41.7029C207.529 54.923 208.004 68.0322 208.938 81.0143V521.364H186.913V-424H208.938V2.39163Z" fill="#95F22A"/>
<path d="M35.2841 521.364V-424H15V521.364H35.2841Z" fill="#95F22A"/>
<path d="M93.1688 521.364H71.1445V-424H93.1688V521.364Z" fill="#95F22A"/>
<path d="M151.053 521.364H129.029V-424H151.053V521.364Z" fill="#95F22A"/>
<path d="M1344.61 521.364H1366.63V-424H1344.61V521.364Z" fill="#95F22A"/>
<path d="M1424.52 521.364H1402.49V-424H1424.52V521.364Z" fill="#95F22A"/>
<path d="M208.492 65.5712C208.165 57.8548 208 50.0965 208 42.2996C208 39.8178 208.017 37.3399 208.05 34.866L388.239 -145.323C379.109 -127.804 371.221 -109.534 364.693 -90.6293L208.492 65.5712Z" fill="#95F22A"/>
<path d="M347.722 -22.9441L212.491 112.285C213.663 121.345 215.059 130.335 216.674 139.249L343.646 12.2792C344.499 0.388702 345.865 -11.3597 347.722 -22.9441Z" fill="#95F22A"/>
<path d="M718.411 -362.482C706.521 -361.629 694.773 -360.263 683.188 -358.406L818.292 -493.508C827.353 -492.336 836.342 -490.94 845.256 -489.325L718.411 -362.482Z" fill="#95F22A"/>
<path d="M343.168 63.4619L225.897 180.731C228.045 188.859 230.378 196.912 232.891 204.884L345.695 92.0819C344.524 82.6388 343.678 73.095 343.168 63.4619Z" fill="#95F22A"/>
<path d="M798.214 -360.432C788.771 -361.603 779.227 -362.449 769.594 -362.959L886.738 -480.101C894.866 -477.953 902.919 -475.62 910.891 -473.107L798.214 -360.432Z" fill="#95F22A"/>
<path d="M353.41 135.101L246.221 242.291C249.159 249.66 252.255 256.95 255.504 264.155L360.022 159.636C357.57 151.561 355.363 143.38 353.41 135.101Z" fill="#95F22A"/>
<path d="M865.757 -346.107C857.683 -348.559 849.502 -350.766 841.223 -352.719L948.284 -459.782C955.654 -456.844 962.943 -453.748 970.149 -450.499L865.757 -346.107Z" fill="#95F22A"/>
<path d="M373.402 196.963L272.269 298.097C275.885 304.812 279.64 311.443 283.528 317.984L383.066 218.446C379.644 211.396 376.42 204.233 373.402 196.963Z" fill="#95F22A"/>
<path d="M924.568 -323.064C917.518 -326.486 910.355 -329.709 903.085 -332.727L1004.09 -433.734C1010.81 -430.118 1017.44 -426.364 1023.98 -422.475L924.568 -323.064Z" fill="#95F22A"/>
<path d="M400.934 251.292L303.344 348.881C307.572 355.006 311.924 361.039 316.395 366.978L413.136 270.236C408.899 264.043 404.829 257.726 400.934 251.292Z" fill="#95F22A"/>
<path d="M976.363 -292.991C970.17 -297.228 963.853 -301.298 957.419 -305.193L1054.88 -402.656C1061.01 -398.428 1067.04 -394.076 1072.98 -389.605L976.363 -292.991Z" fill="#95F22A"/>
<path d="M434.894 299.183L339.029 395.048C343.833 400.616 348.748 406.086 353.772 411.452L449.387 315.837C444.408 310.42 439.575 304.866 434.894 299.183Z" fill="#95F22A"/>
<path d="M1021.96 -256.74C1016.55 -261.719 1010.99 -266.552 1005.31 -271.233L1101.05 -366.971C1106.62 -362.167 1112.09 -357.252 1117.45 -352.228L1021.96 -256.74Z" fill="#95F22A"/>
<path d="M474.79 341.148L379.128 436.809C384.494 441.833 389.963 446.749 395.531 451.553L491.501 355.584C485.799 350.922 480.227 346.108 474.79 341.148Z" fill="#95F22A"/>
<path d="M1061.71 -214.621C1057.05 -220.323 1052.24 -225.896 1047.28 -231.333L1142.81 -326.867C1147.84 -321.5 1152.75 -316.031 1157.56 -310.463L1061.71 -214.621Z" fill="#95F22A"/>
<path d="M520.562 377.258L423.619 474.203C429.557 478.674 435.591 483.025 441.716 487.253L539.568 389.399C533.114 385.525 526.776 381.476 520.562 377.258Z" fill="#95F22A"/>
<path d="M1095.52 -166.563C1091.65 -173.018 1087.6 -179.355 1083.38 -185.57L1180.2 -282.387C1184.67 -276.449 1189.02 -270.415 1193.25 -264.29L1095.52 -166.563Z" fill="#95F22A"/>
<path d="M572.517 407.157L472.608 507.067C479.15 510.956 485.78 514.71 492.496 518.327L594.071 416.75C586.777 413.756 579.59 410.556 572.517 407.157Z" fill="#95F22A"/>
<path d="M1122.87 -112.061C1119.88 -119.355 1116.68 -126.542 1113.28 -133.615L1213.06 -233.398C1216.95 -226.857 1220.71 -220.226 1224.32 -213.511L1122.87 -112.061Z" fill="#95F22A"/>
<path d="M631.531 430.002L526.439 535.094C533.645 538.343 540.935 541.438 548.304 544.376L656.156 436.525C647.847 434.603 639.635 432.426 631.531 430.002Z" fill="#95F22A"/>
<path d="M1142.65 -49.9714C1140.73 -58.2804 1138.55 -66.4915 1136.13 -74.5961L1241.09 -179.561C1244.34 -172.355 1247.44 -165.066 1250.38 -157.696L1142.65 -49.9714Z" fill="#95F22A"/>
<path d="M699.322 444.065L585.687 557.7C593.659 560.213 601.712 562.546 609.839 564.694L728.069 446.464C718.394 446 708.808 445.196 699.322 444.065Z" fill="#95F22A"/>
<path d="M1152.59 21.9424C1152.13 12.2671 1151.32 2.68076 1150.19 -6.80496L1263.7 -120.313C1266.21 -112.341 1268.55 -104.288 1270.69 -96.1607L1152.59 21.9424Z" fill="#95F22A"/>
<path d="M779.532 445.716L651.326 573.921C660.239 575.536 669.229 576.933 678.289 578.105L814.999 441.397C803.338 443.342 791.508 444.789 779.532 445.716Z" fill="#95F22A"/>
<path d="M1147.52 108.878C1149.47 97.2164 1150.92 85.3867 1151.84 73.411L1279.92 -54.6671C1281.54 -45.7536 1282.93 -36.7639 1284.11 -27.7039L1147.52 108.878Z" fill="#95F22A"/>
<path d="M883.395 423.707L724.993 582.106C732.721 582.434 740.491 582.599 748.3 582.599C750.769 582.599 753.235 582.583 755.697 582.55L939.32 398.93C921.44 408.534 902.756 416.835 883.395 423.707Z" fill="#95F22A"/>
<path d="M1105.05 233.197C1114.66 215.318 1122.96 196.634 1129.83 177.273L1288.11 19.0008C1288.43 26.7262 1288.6 34.4936 1288.6 42.2996C1288.6 44.7717 1288.58 47.2399 1288.55 49.704L1105.05 233.197Z" fill="#95F22A"/>
<path d="M615.498 -341.434C596.593 -334.906 578.323 -327.018 560.804 -317.888L740.866 -497.95C743.34 -497.983 745.818 -498 748.3 -498C756.097 -498 763.855 -497.835 771.571 -497.508L615.498 -341.434Z" fill="#95F22A"/>
<path d="M216.89 -55.8357C214.679 -43.7815 212.867 -31.5873 211.469 -19.2675L686.725 -494.53C674.405 -493.132 662.211 -491.32 650.157 -489.108L216.89 -55.8357Z" fill="#95F22A"/>
<path d="M252.908 -173.706C245.791 -157.407 239.455 -140.688 233.946 -123.598L582.396 -472.051C565.305 -466.543 548.586 -460.206 532.287 -453.089L252.908 -173.706Z" fill="#95F22A"/>
<path d="M846.415 573.713C834.361 575.924 822.168 577.735 809.849 579.132L1285.13 103.842C1283.74 116.161 1281.93 128.354 1279.71 140.408L846.415 573.713Z" fill="#95F22A"/>
<path d="M914.173 556.661C931.261 551.154 947.978 544.82 964.276 537.705L1243.71 258.269C1250.82 241.971 1257.16 225.255 1262.66 208.166L914.173 556.661Z" fill="#95F22A"/>
<path d="M1101.62 451.075C1121.41 433.952 1139.95 415.415 1157.07 395.621L1101.62 451.075Z" fill="#95F22A"/>
<path d="M394.751 -366.279L339.726 -311.254C356.727 -330.885 375.121 -349.277 394.751 -366.279Z" fill="#95F22A"/>
<path d="M572.083 -322.976H923.609C905.624 -331.646 886.901 -339.028 867.559 -345H628.133C608.791 -339.028 590.068 -331.646 572.083 -322.976Z" fill="#95F22A"/>
<path d="M511.729 -287.115C502.071 -280.179 492.73 -272.829 483.733 -265.091H1011.96C1002.96 -272.829 993.621 -280.179 983.963 -287.115H511.729Z" fill="#95F22A"/>
<path d="M446.997 -229.231C440.57 -222.114 434.393 -214.768 428.478 -207.206H672.216C692.285 -212.099 713.254 -214.693 734.829 -214.693C756.404 -214.693 777.374 -212.099 797.442 -207.206H1067.21C1061.3 -214.768 1055.12 -222.114 1048.69 -229.231H446.997Z" fill="#95F22A"/>
<path d="M590.014 -171.346H403.416C398.945 -164.152 394.692 -156.807 390.669 -149.322H561.146C570.237 -157.301 579.881 -164.664 590.014 -171.346Z" fill="#95F22A"/>
<path d="M908.512 -149.322C899.422 -157.301 889.778 -164.664 879.645 -171.346H1092.28C1096.75 -164.152 1101 -156.807 1105.02 -149.322H908.512Z" fill="#95F22A"/>
<path d="M527.256 -113.461H373.611C370.596 -106.224 367.785 -98.8797 365.184 -91.4368H511.767C516.56 -99.0497 521.732 -106.4 527.256 -113.461Z" fill="#95F22A"/>
<path d="M957.892 -91.4368C953.099 -99.0497 947.927 -106.4 942.403 -113.461H1122.08C1125.1 -106.224 1127.91 -98.8797 1130.51 -91.4368H957.892Z" fill="#95F22A"/>
<path d="M492.881 -55.5767H354.5C352.699 -48.3106 351.094 -40.9671 349.69 -33.5522H484.531C486.992 -41.0478 489.782 -48.3949 492.881 -55.5767Z" fill="#95F22A"/>
<path d="M985.128 -33.5522C982.666 -41.0478 979.877 -48.3949 976.778 -55.5767H1141.19C1142.99 -48.3106 1144.6 -40.9671 1146 -33.5522H985.128Z" fill="#95F22A"/>
<path d="M475.506 2.30786H344.555C343.842 9.59445 343.322 16.9377 343 24.3323H472.545C473.227 16.8971 474.218 9.55127 475.506 2.30786Z" fill="#95F22A"/>
<path d="M997.113 24.3323C996.431 16.8971 995.44 9.55127 994.153 2.30786H1151.14C1151.85 9.59445 1152.37 16.9377 1152.69 24.3323H997.113Z" fill="#95F22A"/>
<path d="M471.679 60.1927H343C343.322 67.5874 343.842 74.9306 344.555 82.2172H473.545C472.624 74.9636 471.997 67.618 471.679 60.1927Z" fill="#95F22A"/>
<path d="M996.114 82.2172C997.035 74.9636 997.661 67.618 997.98 60.1927H1152.69C1152.37 67.5874 1151.85 74.9306 1151.14 82.2172H996.114Z" fill="#95F22A"/>
<path d="M480.664 118.077H349.691C351.094 125.492 352.699 132.836 354.501 140.102H487.722C485.059 132.903 482.701 125.556 480.664 118.077Z" fill="#95F22A"/>
<path d="M981.936 140.102C984.6 132.903 986.958 125.556 988.994 118.077H1146C1144.6 125.492 1142.99 132.836 1141.19 140.102H981.936Z" fill="#95F22A"/>
<path d="M504.159 175.962H365.185C367.785 183.405 370.596 190.749 373.611 197.987H517.792C512.901 190.889 508.349 183.54 504.159 175.962Z" fill="#95F22A"/>
<path d="M951.867 197.987C956.758 190.889 961.31 183.54 965.499 175.962H1130.51C1127.91 183.405 1125.1 190.749 1122.08 197.987H951.867Z" fill="#95F22A"/>
<path d="M547.48 233.847H390.669C394.693 241.332 398.945 248.677 403.416 255.871H572.148C563.47 249.047 555.23 241.689 547.48 233.847Z" fill="#95F22A"/>
<path d="M897.511 255.871C906.189 249.047 914.428 241.689 922.179 233.847H1105.02C1101 241.332 1096.75 248.677 1092.28 255.871H897.511Z" fill="#95F22A"/>
<path d="M633.088 291.731C664.391 304.851 698.763 312.1 734.829 312.1C770.895 312.1 805.268 304.851 836.571 291.731H1067.21C1061.3 299.293 1055.12 306.639 1048.69 313.756H446.998C440.571 306.639 434.393 299.293 428.479 291.731H633.088Z" fill="#95F22A"/>
<path d="M483.734 349.616C492.731 357.354 502.071 364.704 511.73 371.64H983.962C993.62 364.704 1002.96 357.354 1011.96 349.616H483.734Z" fill="#95F22A"/>
<path d="M628.135 429.525C608.793 423.553 590.069 416.172 572.084 407.501H923.608C905.623 416.172 886.899 423.553 867.557 429.525H628.135Z" fill="#95F22A"/>
<path d="M742.946 -215C754.61 -214.667 766.083 -213.576 777.319 -211.774L995.35 6.25967C997.151 17.4957 998.242 28.9693 998.575 40.6326L742.946 -215Z" fill="#95F22A"/>
<path d="M669.315 -206.779C677.776 -208.961 686.401 -210.733 695.168 -212.073L995.648 88.4105C994.308 97.1779 992.536 105.803 990.354 114.263L669.315 -206.779Z" fill="#95F22A"/>
<path d="M610.498 -183.73C617.324 -187.409 624.331 -190.796 631.502 -193.873L977.449 152.073C974.371 159.245 970.984 166.252 967.305 173.078L610.498 -183.73Z" fill="#95F22A"/>
<path d="M562.148 -150.213C567.71 -155.068 573.477 -159.693 579.435 -164.073L947.651 204.137C943.271 210.095 938.646 215.863 933.791 221.424L562.148 -150.213Z" fill="#95F22A"/>
<path d="M522.93 -107.569C527.311 -113.527 531.936 -119.295 536.791 -124.856L908.431 246.785C902.87 251.64 897.103 256.265 891.144 260.645L522.93 -107.569Z" fill="#95F22A"/>
<path d="M493.131 -55.508C496.209 -62.6788 499.596 -69.6855 503.275 -76.5113L860.083 280.302C853.258 283.981 846.251 287.368 839.08 290.446L493.131 -55.508Z" fill="#95F22A"/>
<path d="M474.931 8.14548C476.271 -0.621353 478.044 -9.24593 480.226 -17.7058L801.278 303.35C792.818 305.532 784.193 307.305 775.426 308.645L474.931 8.14548Z" fill="#95F22A"/>
<path d="M475.224 90.3057C473.423 79.07 472.332 67.597 472 55.9341L727.641 311.575C715.978 311.243 704.505 310.152 693.27 308.351L475.224 90.3057Z" fill="#95F22A"/>
<path d="M498.992 164.79C524.634 216.7 566.878 258.943 618.788 284.585L498.992 164.79Z" fill="#95F22A"/>
<path d="M971.575 -68.2343L851.81 -187.999C903.703 -162.36 945.935 -120.128 971.575 -68.2343Z" fill="#95F22A"/>
</g>
<defs>
<clipPath id="clip0_1948_1015">
<rect width="1440" height="86" fill="white"/>
</clipPath>
</defs>
</svg>
